<?xml version="1.0" encoding="UTF-8"?>
<!DOCTYPE svg PUBLIC "-//W3C//DTD SVG 1.1//EN" "http://www.w3.org/Graphics/SVG/1.1/DTD/svg11.dtd">
<svg xmlns="http://www.w3.org/2000/svg" version="1.1" width="270px" height="260px" style="shape-rendering:geometricPrecision; text-rendering:geometricPrecision; image-rendering:optimizeQuality; fill-rule:evenodd; clip-rule:evenodd" xmlns:xlink="http://www.w3.org/1999/xlink">
<g><path style="opacity:1" fill="#060c1f" d="M -0.5,-0.5 C 89.5,-0.5 179.5,-0.5 269.5,-0.5C 269.5,86.1667 269.5,172.833 269.5,259.5C 179.5,259.5 89.5,259.5 -0.5,259.5C -0.5,172.833 -0.5,86.1667 -0.5,-0.5 Z"/></g>
<g><path style="opacity:1" fill="#0b222f" d="M 158.5,76.5 C 159.791,76.2627 160.791,76.596 161.5,77.5C 160.817,80.5159 159.817,83.5159 158.5,86.5C 157.778,87.5511 156.778,88.2178 155.5,88.5C 154.833,88.5 154.167,88.5 153.5,88.5C 153.189,87.5222 152.522,86.8555 151.5,86.5C 150.511,90.1073 150.177,93.774 150.5,97.5C 148.5,97.5 146.5,97.5 144.5,97.5C 144.5,99.5 144.5,101.5 144.5,103.5C 141.769,106.866 138.102,108.7 133.5,109C 131.963,110.11 131.297,111.61 131.5,113.5C 129.861,110.259 130.695,107.592 134,105.5C 134.333,105.833 134.667,106.167 135,106.5C 136.491,104.996 138.324,104.163 140.5,104C 142.503,101.911 143.67,99.411 144,96.5C 145.167,95.3333 146.333,94.1667 147.5,93C 146.436,91.4894 145.103,91.3228 143.5,92.5C 144.167,91.5 144.833,90.5 145.5,89.5C 150.167,85.5 154.5,81.1667 158.5,76.5 Z"/></g>
<g><path style="opacity:1" fill="#d4d5d5" d="M 158.5,76.5 C 154.5,81.1667 150.167,85.5 145.5,89.5C 145.167,89.5 144.833,89.5 144.5,89.5C 144.586,88.5041 144.252,87.6708 143.5,87C 145.619,86.9024 147.286,86.0691 148.5,84.5C 148.145,83.4777 147.478,82.811 146.5,82.5C 137.121,78.4691 127.787,78.6358 118.5,83C 117.619,83.7083 116.953,84.5416 116.5,85.5C 114.596,85.7376 113.262,86.7376 112.5,88.5C 110.833,89.5 109.5,90.8333 108.5,92.5C 107.504,92.4142 106.671,92.7476 106,93.5C 104.454,96.5919 102.954,99.5919 101.5,102.5C 101.5,101.167 101.5,99.8333 101.5,98.5C 95.1103,98.5411 92.4436,101.874 93.5,108.5C 95.8333,108.5 98.1667,108.5 100.5,108.5C 100.263,107.209 100.596,106.209 101.5,105.5C 101.5,106.833 101.5,108.167 101.5,109.5C 98.5,109.5 95.5,109.5 92.5,109.5C 92.3354,106.482 92.502,103.482 93,100.5C 95.3972,96.376 97.2306,92.0427 98.5,87.5C 104.696,77.3903 113.696,71.2236 125.5,69C 137.645,67.1251 148.645,69.6251 158.5,76.5 Z"/></g>
<g><path style="opacity:1" fill="#202632" d="M 146.5,82.5 C 144.83,84.6134 142.83,85.2801 140.5,84.5C 140.158,83.6618 139.492,83.3284 138.5,83.5C 135.548,81.9772 133.048,82.6438 131,85.5C 129.701,84.0203 128.034,83.3536 126,83.5C 123.312,84.2055 120.979,85.5389 119,87.5C 117.699,87.3613 116.866,86.6946 116.5,85.5C 116.953,84.5416 117.619,83.7083 118.5,83C 127.787,78.6358 137.121,78.4691 146.5,82.5 Z"/></g>
<g><path style="opacity:1" fill="#42a89c" d="M 161.5,77.5 C 161.5,77.8333 161.5,78.1667 161.5,78.5C 163.1,84.69 163.767,91.0233 163.5,97.5C 163.737,98.791 163.404,99.791 162.5,100.5C 162.897,95.0414 162.397,89.7081 161,84.5C 159.646,88.3628 159.146,92.3628 159.5,96.5C 159.167,96.5 158.833,96.5 158.5,96.5C 158.5,93.1667 158.5,89.8333 158.5,86.5C 159.817,83.5159 160.817,80.5159 161.5,77.5 Z"/></g>
<g><path style="opacity:1" fill="#113a45" d="M 161.5,78.5 C 163.047,79.7682 164.047,81.4348 164.5,83.5C 164.335,87.1817 164.501,90.8484 165,94.5C 165.383,93.944 165.883,93.6107 166.5,93.5C 166.5,94.8333 166.5,96.1667 166.5,97.5C 165.5,97.5 164.5,97.5 163.5,97.5C 163.767,91.0233 163.1,84.69 161.5,78.5 Z"/></g>
<g><path style="opacity:1" fill="#081d2a" d="M 164.5,83.5 C 166.026,85.4499 167.026,87.7833 167.5,90.5C 168.293,90.9312 169.127,91.2645 170,91.5C 171.582,89.9712 173.415,89.4712 175.5,90C 177.027,92.4385 179.027,94.4385 181.5,96C 181.167,97.6667 180.833,99.3333 180.5,101C 183.665,103.019 185.999,105.185 187.5,107.5C 188.983,110.612 188.65,113.445 186.5,116C 182.53,115.674 178.53,115.674 174.5,116C 174.833,116.333 175.167,116.667 175.5,117C 174.692,117.308 174.025,117.808 173.5,118.5C 174.808,120.641 176.308,122.641 178,124.5C 178.333,124.167 178.667,123.833 179,123.5C 181.026,126.287 183.36,127.953 186,128.5C 189.772,133.288 189.939,138.288 186.5,143.5C 186.5,141.167 186.5,138.833 186.5,136.5C 185.952,134.606 184.952,132.94 183.5,131.5C 180.788,129.115 178.122,126.782 175.5,124.5C 175.179,122.952 174.179,122.285 172.5,122.5C 171.833,120.181 171.666,117.847 172,115.5C 175.076,114.712 178.242,114.212 181.5,114C 182.056,113.617 182.389,113.117 182.5,112.5C 183.873,112.657 185.207,112.49 186.5,112C 184.35,109.959 183.35,107.459 183.5,104.5C 181.833,104.5 180.167,104.5 178.5,104.5C 178.5,102.167 178.5,99.8333 178.5,97.5C 176.833,97.5 175.167,97.5 173.5,97.5C 173.5,95.8333 173.5,94.1667 173.5,92.5C 170.941,92.1984 168.607,92.5318 166.5,93.5C 165.883,93.6107 165.383,93.944 165,94.5C 164.501,90.8484 164.335,87.1817 164.5,83.5 Z"/></g>
<g><path style="opacity:1" fill="#081020" d="M 143.5,92.5 C 145.103,91.3228 146.436,91.4894 147.5,93C 146.333,94.1667 145.167,95.3333 144,96.5C 143.67,99.411 142.503,101.911 140.5,104C 138.324,104.163 136.491,104.996 135,106.5C 134.667,106.167 134.333,105.833 134,105.5C 130.695,107.592 129.861,110.259 131.5,113.5C 132.75,115.932 134.25,118.266 136,120.5C 144.309,122.36 150.976,127.027 156,134.5C 156.494,136.134 156.66,137.801 156.5,139.5C 156.5,139.833 156.5,140.167 156.5,140.5C 156.167,140.5 155.833,140.5 155.5,140.5C 152.5,136.833 149.167,133.5 145.5,130.5C 145.038,129.12 144.038,128.453 142.5,128.5C 122.354,132.186 113.187,123.853 115,103.5C 115.662,102.016 116.496,100.683 117.5,99.5C 119.905,95.7939 123.238,93.2939 127.5,92C 132.861,91.3914 138.195,91.5581 143.5,92.5 Z"/></g>
<g><path style="opacity:1" fill="#8d9094" d="M 144.5,89.5 C 144.833,89.5 145.167,89.5 145.5,89.5C 144.833,90.5 144.167,91.5 143.5,92.5C 138.195,91.5581 132.861,91.3914 127.5,92C 123.238,93.2939 119.905,95.7939 117.5,99.5C 116.833,99.5 116.5,99.1667 116.5,98.5C 116.833,97.8333 117.167,97.1667 117.5,96.5C 120.326,93.5847 123.66,91.418 127.5,90C 133.27,89.7982 138.937,89.6315 144.5,89.5 Z"/></g>
<g><path style="opacity:1" fill="#134851" d="M 158.5,86.5 C 158.5,89.8333 158.5,93.1667 158.5,96.5C 156.768,94.2844 155.768,91.6177 155.5,88.5C 156.778,88.2178 157.778,87.5511 158.5,86.5 Z"/></g>
<g><path style="opacity:1" fill="#1f6968" d="M 153.5,88.5 C 154.167,88.5 154.833,88.5 155.5,88.5C 155.768,91.6177 156.768,94.2844 158.5,96.5C 158.833,96.5 159.167,96.5 159.5,96.5C 158.597,99.3915 158.264,102.391 158.5,105.5C 157.167,105.5 155.833,105.5 154.5,105.5C 154.828,100.125 154.495,94.7921 153.5,89.5C 152.505,95.1278 152.171,100.794 152.5,106.5C 151.167,106.5 149.833,106.5 148.5,106.5C 148.813,103.753 148.48,101.086 147.5,98.5C 146.832,101.306 146.166,103.972 145.5,106.5C 145.737,105.209 145.404,104.209 144.5,103.5C 144.5,101.5 144.5,99.5 144.5,97.5C 146.5,97.5 148.5,97.5 150.5,97.5C 150.336,100.187 150.503,102.854 151,105.5C 150.874,99.4121 151.708,93.7455 153.5,88.5 Z"/></g>
<g><path style="opacity:1" fill="#2f9a91" d="M 153.5,88.5 C 151.708,93.7455 150.874,99.4121 151,105.5C 150.503,102.854 150.336,100.187 150.5,97.5C 150.177,93.774 150.511,90.1073 151.5,86.5C 152.522,86.8555 153.189,87.5222 153.5,88.5 Z"/></g>
<g><path style="opacity:1" fill="#363b44" d="M 138.5,83.5 C 136.833,83.5 135.167,83.5 133.5,83.5C 133.5,84.5 133.5,85.5 133.5,86.5C 136.388,87.0102 138.721,86.3435 140.5,84.5C 142.83,85.2801 144.83,84.6134 146.5,82.5C 147.478,82.811 148.145,83.4777 148.5,84.5C 147.286,86.0691 145.619,86.9024 143.5,87C 144.252,87.6708 144.586,88.5041 144.5,89.5C 138.937,89.6315 133.27,89.7982 127.5,90C 123.66,91.418 120.326,93.5847 117.5,96.5C 116.432,95.5655 115.099,95.2322 113.5,95.5C 113.741,98.7935 112.908,101.794 111,104.5C 110.501,108.821 110.334,113.154 110.5,117.5C 111.117,117.611 111.617,117.944 112,118.5C 112.495,120.473 112.662,122.473 112.5,124.5C 110.856,124.714 109.356,124.38 108,123.5C 106.801,120.274 106.301,116.941 106.5,113.5C 107.5,113.5 108.5,113.5 109.5,113.5C 109.5,111.167 109.5,108.833 109.5,106.5C 108.5,106.5 107.5,106.5 106.5,106.5C 106.5,108.5 106.5,110.5 106.5,112.5C 104.559,110.989 104.059,108.989 105,106.5C 105.925,105.953 106.758,105.287 107.5,104.5C 106.48,102.568 106.313,100.568 107,98.5C 110.791,96.545 113.291,93.545 114.5,89.5C 114.043,88.7025 113.376,88.3691 112.5,88.5C 113.262,86.7376 114.596,85.7376 116.5,85.5C 116.866,86.6946 117.699,87.3613 119,87.5C 120.979,85.5389 123.312,84.2055 126,83.5C 128.034,83.3536 129.701,84.0203 131,85.5C 133.048,82.6438 135.548,81.9772 138.5,83.5 Z"/></g>
<g><path style="opacity:1" fill="#abacae" d="M 116.5,88.5 C 117.675,88.281 118.675,88.6143 119.5,89.5C 115.125,95.0946 114.125,94.7613 116.5,88.5 Z"/></g>
<g><path style="opacity:1" fill="#a9aaab" d="M 123.5,84.5 C 129.448,84.6264 129.781,85.6264 124.5,87.5C 123.833,87.3333 123.167,87.1667 122.5,87C 123.252,86.3292 123.586,85.4959 123.5,84.5 Z"/></g>
<g><path style="opacity:1" fill="#75787e" d="M 138.5,83.5 C 139.492,83.3284 140.158,83.6618 140.5,84.5C 138.721,86.3435 136.388,87.0102 133.5,86.5C 133.5,85.5 133.5,84.5 133.5,83.5C 135.167,83.5 136.833,83.5 138.5,83.5 Z"/></g>
<g><path style="opacity:1" fill="#228682" d="M 182.5,112.5 C 178.5,112.5 174.5,112.5 170.5,112.5C 170.66,114.199 170.494,115.866 170,117.5C 169.082,114.937 169.582,112.77 171.5,111C 170.584,110.626 169.75,110.126 169,109.5C 168.601,109.728 168.435,110.062 168.5,110.5C 164.818,110.665 161.152,110.499 157.5,110C 157.167,109.667 156.833,109.333 156.5,109C 158.066,108.392 159.4,107.558 160.5,106.5C 164.26,105.074 166.593,102.407 167.5,98.5C 165.952,98.8212 165.285,99.8212 165.5,101.5C 164.209,101.737 163.209,101.404 162.5,100.5C 163.404,99.791 163.737,98.791 163.5,97.5C 164.5,97.5 165.5,97.5 166.5,97.5C 166.5,96.1667 166.5,94.8333 166.5,93.5C 168.607,92.5318 170.941,92.1984 173.5,92.5C 173.5,94.1667 173.5,95.8333 173.5,97.5C 175.167,97.5 176.833,97.5 178.5,97.5C 178.5,99.8333 178.5,102.167 178.5,104.5C 180.167,104.5 181.833,104.5 183.5,104.5C 183.35,107.459 184.35,109.959 186.5,112C 185.207,112.49 183.873,112.657 182.5,112.5 Z"/></g>
<g><path style="opacity:1" fill="#0e474f" d="M 175.5,98.5 C 177.344,100.279 178.01,102.612 177.5,105.5C 178.833,105.5 180.167,105.5 181.5,105.5C 181.649,106.552 181.483,107.552 181,108.5C 178.429,107.599 176.096,106.266 174,104.5C 174.707,102.689 175.207,100.689 175.5,98.5 Z"/></g>
<g><path style="opacity:1" fill="#0d3a42" d="M 167.5,98.5 C 167.5,97.1667 167.5,95.8333 167.5,94.5C 169.167,94.5 170.833,94.5 172.5,94.5C 172.663,96.8568 172.497,99.1902 172,101.5C 171.092,99.5614 169.592,98.5614 167.5,98.5 Z"/></g>
<g><path style="opacity:1" fill="#0a2f3a" d="M 162.5,100.5 C 163.209,101.404 164.209,101.737 165.5,101.5C 165.285,99.8212 165.952,98.8212 167.5,98.5C 166.593,102.407 164.26,105.074 160.5,106.5C 158.833,106.5 157.167,106.5 155.5,106.5C 155.5,107.5 155.5,108.5 155.5,109.5C 154.448,109.351 153.448,109.517 152.5,110C 153.833,110.333 155.167,110.667 156.5,111C 152.5,111.667 148.5,111.667 144.5,111C 143.272,109.51 143.272,108.01 144.5,106.5C 144.833,106.5 145.167,106.5 145.5,106.5C 146.166,103.972 146.832,101.306 147.5,98.5C 148.48,101.086 148.813,103.753 148.5,106.5C 149.833,106.5 151.167,106.5 152.5,106.5C 152.171,100.794 152.505,95.1278 153.5,89.5C 154.495,94.7921 154.828,100.125 154.5,105.5C 155.833,105.5 157.167,105.5 158.5,105.5C 158.264,102.391 158.597,99.3915 159.5,96.5C 159.146,92.3628 159.646,88.3628 161,84.5C 162.397,89.7081 162.897,95.0414 162.5,100.5 Z"/></g>
<g><path style="opacity:1" fill="#258981" d="M 144.5,103.5 C 145.404,104.209 145.737,105.209 145.5,106.5C 145.167,106.5 144.833,106.5 144.5,106.5C 142.824,107.183 142.157,108.517 142.5,110.5C 141.448,110.351 140.448,110.517 139.5,111C 142.859,112.612 146.192,114.112 149.5,115.5C 144.028,115.513 139.194,113.846 135,110.5C 134.5,110.833 134,111.167 133.5,111.5C 138.363,116.102 144.03,119.435 150.5,121.5C 152.783,124.956 155.283,128.29 158,131.5C 158.747,134.924 158.58,138.257 157.5,141.5C 156.833,141.5 156.5,141.167 156.5,140.5C 156.5,140.167 156.5,139.833 156.5,139.5C 157.83,136.56 157.663,133.56 156,130.5C 154.167,128.667 152.333,126.833 150.5,125C 144.139,121.155 137.806,117.322 131.5,113.5C 131.297,111.61 131.963,110.11 133.5,109C 138.102,108.7 141.769,106.866 144.5,103.5 Z"/></g>
<g><path style="opacity:1" fill="#0d474d" d="M 144.5,106.5 C 143.272,108.01 143.272,109.51 144.5,111C 148.5,111.667 152.5,111.667 156.5,111C 155.167,110.667 153.833,110.333 152.5,110C 153.448,109.517 154.448,109.351 155.5,109.5C 155.5,108.5 155.5,107.5 155.5,106.5C 157.167,106.5 158.833,106.5 160.5,106.5C 159.4,107.558 158.066,108.392 156.5,109C 156.833,109.333 157.167,109.667 157.5,110C 161.152,110.499 164.818,110.665 168.5,110.5C 168.663,112.857 168.497,115.19 168,117.5C 167.506,115.866 167.34,114.199 167.5,112.5C 163.692,112.163 160.026,112.663 156.5,114C 157.823,114.816 158.489,115.983 158.5,117.5C 155.598,116.422 152.598,115.756 149.5,115.5C 146.192,114.112 142.859,112.612 139.5,111C 140.448,110.517 141.448,110.351 142.5,110.5C 142.157,108.517 142.824,107.183 144.5,106.5 Z"/></g>
<g><path style="opacity:1" fill="#072a35" d="M 182.5,112.5 C 182.389,113.117 182.056,113.617 181.5,114C 178.242,114.212 175.076,114.712 172,115.5C 171.666,117.847 171.833,120.181 172.5,122.5C 174.179,122.285 175.179,122.952 175.5,124.5C 169.943,121.888 164.276,119.554 158.5,117.5C 158.489,115.983 157.823,114.816 156.5,114C 160.026,112.663 163.692,112.163 167.5,112.5C 167.34,114.199 167.506,115.866 168,117.5C 168.497,115.19 168.663,112.857 168.5,110.5C 168.435,110.062 168.601,109.728 169,109.5C 169.75,110.126 170.584,110.626 171.5,111C 169.582,112.77 169.082,114.937 170,117.5C 170.494,115.866 170.66,114.199 170.5,112.5C 174.5,112.5 178.5,112.5 182.5,112.5 Z"/></g>
<g><path style="opacity:1" fill="#8a8b8c" d="M 98.5,87.5 C 97.2306,92.0427 95.3972,96.376 93,100.5C 92.502,103.482 92.3354,106.482 92.5,109.5C 95.5,109.5 98.5,109.5 101.5,109.5C 101.5,108.167 101.5,106.833 101.5,105.5C 101.5,104.5 101.5,103.5 101.5,102.5C 102.954,99.5919 104.454,96.5919 106,93.5C 106.671,92.7476 107.504,92.4142 108.5,92.5C 101.218,103.354 100.551,114.688 106.5,126.5C 104.732,124.492 103.066,122.326 101.5,120C 95.1311,118.887 93.1311,121.387 95.5,127.5C 88.1921,113.552 89.1921,100.219 98.5,87.5 Z"/></g>
<g><path style="opacity:1" fill="#f7f7f7" d="M 101.5,102.5 C 101.5,103.5 101.5,104.5 101.5,105.5C 100.596,106.209 100.263,107.209 100.5,108.5C 98.1667,108.5 95.8333,108.5 93.5,108.5C 92.4436,101.874 95.1103,98.5411 101.5,98.5C 101.5,99.8333 101.5,101.167 101.5,102.5 Z"/></g>
<g><path style="opacity:1" fill="#135355" d="M 149.5,115.5 C 157.974,118.396 166.307,121.896 174.5,126C 179,129.167 182.833,133 186,137.5C 186.399,137.272 186.565,136.938 186.5,136.5C 186.5,138.833 186.5,141.167 186.5,143.5C 186.663,145.857 186.497,148.19 186,150.5C 185.51,149.207 185.343,147.873 185.5,146.5C 183.348,135.516 177.015,128.182 166.5,124.5C 162.267,122.138 157.767,120.138 153,118.5C 151.69,119.13 150.856,120.13 150.5,121.5C 144.03,119.435 138.363,116.102 133.5,111.5C 134,111.167 134.5,110.833 135,110.5C 139.194,113.846 144.028,115.513 149.5,115.5 Z"/></g>
<g><path style="opacity:1" fill="#248982" d="M 149.5,115.5 C 152.598,115.756 155.598,116.422 158.5,117.5C 164.276,119.554 169.943,121.888 175.5,124.5C 178.122,126.782 180.788,129.115 183.5,131.5C 184.952,132.94 185.952,134.606 186.5,136.5C 186.565,136.938 186.399,137.272 186,137.5C 182.833,133 179,129.167 174.5,126C 166.307,121.896 157.974,118.396 149.5,115.5 Z"/></g>
<g><path style="opacity:1" fill="#b5b5b5" d="M 106.5,126.5 C 106.5,127.833 106.5,129.167 106.5,130.5C 101.892,132.515 98.2256,131.515 95.5,127.5C 93.1311,121.387 95.1311,118.887 101.5,120C 103.066,122.326 104.732,124.492 106.5,126.5 Z"/></g>
<g><path style="opacity:1" fill="#072732" d="M 131.5,113.5 C 137.806,117.322 144.139,121.155 150.5,125C 152.333,126.833 154.167,128.667 156,130.5C 157.663,133.56 157.83,136.56 156.5,139.5C 156.66,137.801 156.494,136.134 156,134.5C 150.976,127.027 144.309,122.36 136,120.5C 134.25,118.266 132.75,115.932 131.5,113.5 Z"/></g>
<g><path style="opacity:1" fill="#66696e" d="M 116.5,98.5 C 116.5,99.1667 116.833,99.5 117.5,99.5C 116.496,100.683 115.662,102.016 115,103.5C 113.187,123.853 122.354,132.186 142.5,128.5C 144.038,128.453 145.038,129.12 145.5,130.5C 145.167,130.5 144.833,130.5 144.5,130.5C 140.847,130.888 137.18,131.221 133.5,131.5C 130.263,131.654 127.263,130.987 124.5,129.5C 111.987,121.637 109.32,111.304 116.5,98.5 Z"/></g>
<g><path style="opacity:1" fill="#393e47" d="M 124.5,129.5 C 127.263,130.987 130.263,131.654 133.5,131.5C 137.18,131.221 140.847,130.888 144.5,130.5C 144.461,131.583 144.127,132.583 143.5,133.5C 144.325,134.386 145.325,134.719 146.5,134.5C 142.894,135.715 139.227,137.048 135.5,138.5C 133.865,138.122 132.365,137.456 131,136.5C 128.676,137.693 126.51,137.693 124.5,136.5C 121.995,134.285 118.995,133.119 115.5,133C 114.484,131.323 113.484,129.657 112.5,128C 112.57,127.235 112.903,126.735 113.5,126.5C 114.251,125.427 115.251,125.26 116.5,126C 118.333,127.833 120.167,129.667 122,131.5C 122.995,130.934 123.828,130.267 124.5,129.5 Z"/></g>
<g><path style="opacity:1" fill="#1f2430" d="M 112.5,88.5 C 113.376,88.3691 114.043,88.7025 114.5,89.5C 113.291,93.545 110.791,96.545 107,98.5C 106.313,100.568 106.48,102.568 107.5,104.5C 106.758,105.287 105.925,105.953 105,106.5C 104.059,108.989 104.559,110.989 106.5,112.5C 106.5,112.833 106.5,113.167 106.5,113.5C 106.301,116.941 106.801,120.274 108,123.5C 109.356,124.38 110.856,124.714 112.5,124.5C 112.662,122.473 112.495,120.473 112,118.5C 111.617,117.944 111.117,117.611 110.5,117.5C 110.334,113.154 110.501,108.821 111,104.5C 112.908,101.794 113.741,98.7935 113.5,95.5C 115.099,95.2322 116.432,95.5655 117.5,96.5C 117.167,97.1667 116.833,97.8333 116.5,98.5C 109.32,111.304 111.987,121.637 124.5,129.5C 123.828,130.267 122.995,130.934 122,131.5C 120.167,129.667 118.333,127.833 116.5,126C 115.251,125.26 114.251,125.427 113.5,126.5C 112.903,126.735 112.57,127.235 112.5,128C 113.484,129.657 114.484,131.323 115.5,133C 118.995,133.119 121.995,134.285 124.5,136.5C 126.51,137.693 128.676,137.693 131,136.5C 132.365,137.456 133.865,138.122 135.5,138.5C 139.227,137.048 142.894,135.715 146.5,134.5C 150.403,135.808 150.403,137.308 146.5,139C 130.084,144.36 116.751,140.193 106.5,126.5C 100.551,114.688 101.218,103.354 108.5,92.5C 109.5,90.8333 110.833,89.5 112.5,88.5 Z"/></g>
<g><path style="opacity:1" fill="#b7b9b9" d="M 113.5,126.5 C 115.729,127.055 117.395,128.389 118.5,130.5C 115.853,130.895 114.187,129.562 113.5,126.5 Z"/></g>
<g><path style="opacity:1" fill="#babbbd" d="M 110.5,117.5 C 112.097,124.332 111.43,124.832 108.5,119C 108.836,117.97 109.503,117.47 110.5,117.5 Z"/></g>
<g><path style="opacity:1" fill="#919395" d="M 106.5,113.5 C 106.5,113.167 106.5,112.833 106.5,112.5C 106.5,110.5 106.5,108.5 106.5,106.5C 107.5,106.5 108.5,106.5 109.5,106.5C 109.5,108.833 109.5,111.167 109.5,113.5C 108.5,113.5 107.5,113.5 106.5,113.5 Z"/></g>
<g><path style="opacity:1" fill="#adafaf" d="M 109.5,97.5 C 111.896,98.8275 111.896,100.494 109.5,102.5C 108.566,100.905 108.566,99.2385 109.5,97.5 Z"/></g>
<g><path style="opacity:1" fill="#0f3c43" d="M 166.5,124.5 C 165.141,125.007 164.141,126.007 163.5,127.5C 161.473,126.307 159.973,124.64 159,122.5C 157.842,122.998 157.009,123.831 156.5,125C 162.209,131.105 162.876,137.605 158.5,144.5C 158.443,143.391 158.11,142.391 157.5,141.5C 158.58,138.257 158.747,134.924 158,131.5C 155.283,128.29 152.783,124.956 150.5,121.5C 150.856,120.13 151.69,119.13 153,118.5C 157.767,120.138 162.267,122.138 166.5,124.5 Z"/></g>
<g><path style="opacity:1" fill="#081a26" d="M 166.5,124.5 C 177.015,128.182 183.348,135.516 185.5,146.5C 181.345,142.742 177.679,137.909 174.5,132C 174.833,131.667 175.167,131.333 175.5,131C 173.666,128.976 171.999,129.142 170.5,131.5C 171.456,133.075 172.123,134.742 172.5,136.5C 171.532,138.607 171.198,140.941 171.5,143.5C 170.958,140.35 169.791,137.35 168,134.5C 164.527,137.026 162.027,140.36 160.5,144.5C 160.043,145.298 159.376,145.631 158.5,145.5C 158.5,145.167 158.5,144.833 158.5,144.5C 162.876,137.605 162.209,131.105 156.5,125C 157.009,123.831 157.842,122.998 159,122.5C 159.973,124.64 161.473,126.307 163.5,127.5C 164.141,126.007 165.141,125.007 166.5,124.5 Z"/></g>
<g><path style="opacity:1" fill="#8d8e8e" d="M 106.5,126.5 C 116.751,140.193 130.084,144.36 146.5,139C 150.403,137.308 150.403,135.808 146.5,134.5C 145.325,134.719 144.325,134.386 143.5,133.5C 144.127,132.583 144.461,131.583 144.5,130.5C 144.833,130.5 145.167,130.5 145.5,130.5C 149.167,133.5 152.5,136.833 155.5,140.5C 155.5,141.833 155.5,143.167 155.5,144.5C 143.626,144.747 132.126,144.747 121,144.5C 113.452,144.807 112.952,146.307 119.5,149C 118.906,149.464 118.239,149.631 117.5,149.5C 106.602,145.683 99.2688,138.349 95.5,127.5C 98.2256,131.515 101.892,132.515 106.5,130.5C 106.5,129.167 106.5,127.833 106.5,126.5 Z"/></g>
<g><path style="opacity:1" fill="#afb2b3" d="M 134.5,134.5 C 140.448,134.626 140.781,135.626 135.5,137.5C 133.197,137.124 132.863,136.124 134.5,134.5 Z"/></g>
<g><path style="opacity:1" fill="#abacaf" d="M 124.5,136.5 C 124.047,135.542 123.381,134.708 122.5,134C 124.684,133.558 126.684,134.058 128.5,135.5C 127.311,136.429 125.978,136.762 124.5,136.5 Z"/></g>
<g><path style="opacity:1" fill="#0f665d" d="M 172.5,136.5 C 172.62,138.199 172.954,139.865 173.5,141.5C 173.253,142.713 172.586,143.38 171.5,143.5C 171.198,140.941 171.532,138.607 172.5,136.5 Z"/></g>
<g><path style="opacity:1" fill="#818283" d="M 155.5,140.5 C 155.833,140.5 156.167,140.5 156.5,140.5C 156.5,141.167 156.833,141.5 157.5,141.5C 158.11,142.391 158.443,143.391 158.5,144.5C 158.5,144.833 158.5,145.167 158.5,145.5C 149.243,150.974 139.243,153.474 128.5,153C 124.386,152.885 120.719,151.718 117.5,149.5C 118.239,149.631 118.906,149.464 119.5,149C 112.952,146.307 113.452,144.807 121,144.5C 132.126,144.747 143.626,144.747 155.5,144.5C 155.5,143.167 155.5,141.833 155.5,140.5 Z"/></g>
<g><path style="opacity:1" fill="#07514a" d="M 169.5,148.5 C 172.957,148.667 173.29,149.667 170.5,151.5C 169.614,150.675 169.281,149.675 169.5,148.5 Z"/></g>
<g><path style="opacity:1" fill="#61666e" d="M 109.5,165.5 C 110.708,164.218 112.042,164.218 113.5,165.5C 113.376,166.107 113.043,166.44 112.5,166.5C 111.791,165.596 110.791,165.263 109.5,165.5 Z"/></g>
<g><path style="opacity:1" fill="#2b313e" d="M 161.5,165.5 C 160.167,165.5 158.833,165.5 157.5,165.5C 157.5,168.167 157.5,170.833 157.5,173.5C 157.5,174.5 157.5,175.5 157.5,176.5C 156.681,173.695 156.181,170.695 156,167.5C 155.809,169.708 155.309,171.708 154.5,173.5C 154.984,170.212 153.984,167.545 151.5,165.5C 152.583,165.539 153.583,165.873 154.5,166.5C 156.556,163.059 158.889,162.726 161.5,165.5 Z"/></g>
<g><path style="opacity:1" fill="#cccdcf" d="M 61.5,171.5 C 60.5326,172.806 59.1993,173.473 57.5,173.5C 57.5,172.5 57.5,171.5 57.5,170.5C 59.5657,165.742 63.2323,163.908 68.5,165C 71.4122,165.845 72.4122,167.512 71.5,170C 69.5104,169.862 67.5104,169.362 65.5,168.5C 63.5828,168.754 62.2495,169.754 61.5,171.5 Z"/></g>
<g><path style="opacity:1" fill="#d3d4d6" d="M 187.5,165.5 C 190.167,165.5 192.833,165.5 195.5,165.5C 195.5,166.833 195.5,168.167 195.5,169.5C 192.873,168.908 190.206,168.575 187.5,168.5C 187.5,169.5 187.5,170.5 187.5,171.5C 189.806,171.993 192.139,172.326 194.5,172.5C 194.5,172.833 194.5,173.167 194.5,173.5C 192.052,174.473 189.385,174.806 186.5,174.5C 184.11,174.315 183.11,172.982 183.5,170.5C 183.381,167.623 184.714,165.956 187.5,165.5 Z"/></g>
<g><path style="opacity:1" fill="#d7d8da" d="M 211.5,165.5 C 212.404,166.209 212.737,167.209 212.5,168.5C 209.5,168.5 206.5,168.5 203.5,168.5C 203.5,169.5 203.5,170.5 203.5,171.5C 205.631,172.314 207.964,172.814 210.5,173C 206.848,173.499 203.182,173.665 199.5,173.5C 199.5,170.833 199.5,168.167 199.5,165.5C 203.5,165.5 207.5,165.5 211.5,165.5 Z"/></g>
<g><path style="opacity:1" fill="#dcddde" d="M 149.5,165.5 C 150.167,165.5 150.833,165.5 151.5,165.5C 153.984,167.545 154.984,170.212 154.5,173.5C 153.833,173.5 153.5,173.833 153.5,174.5C 152.5,174.5 151.5,174.5 150.5,174.5C 150.784,172.585 150.451,170.919 149.5,169.5C 147.735,168.539 145.735,168.205 143.5,168.5C 143.5,170.167 143.5,171.833 143.5,173.5C 142.5,173.5 141.5,173.5 140.5,173.5C 140.5,170.833 140.5,168.167 140.5,165.5C 143.5,165.5 146.5,165.5 149.5,165.5 Z"/></g>
<g><path style="opacity:1" fill="#cbccce" d="M 126.5,171.5 C 125.596,172.209 125.263,173.209 125.5,174.5C 124.167,174.5 122.833,174.5 121.5,174.5C 121.626,168.702 124.626,165.368 130.5,164.5C 133.293,164.816 135.626,165.982 137.5,168C 136.667,168.833 135.833,169.667 135,170.5C 131.657,167.553 128.824,167.887 126.5,171.5 Z"/></g>
<g><path style="opacity:1" fill="#d9dada" d="M 176.5,165.5 C 177.833,165.5 179.167,165.5 180.5,165.5C 180.5,168.5 180.5,171.5 180.5,174.5C 179.167,174.5 177.833,174.5 176.5,174.5C 176.5,171.5 176.5,168.5 176.5,165.5 Z"/></g>
<g><path style="opacity:1" fill="#d5d6d7" d="M 103.5,170.5 C 103.631,171.376 103.298,172.043 102.5,172.5C 101.735,171.388 100.735,170.721 99.5,170.5C 98.4955,169.317 97.6622,167.984 97,166.5C 96.5357,167.094 96.369,167.761 96.5,168.5C 94.5,168.5 92.5,168.5 90.5,168.5C 90.5,170.5 90.5,172.5 90.5,174.5C 89.1667,174.5 87.8333,174.5 86.5,174.5C 86.5,172.5 86.5,170.5 86.5,168.5C 84.8333,168.5 83.1667,168.5 81.5,168.5C 81.5,167.5 81.5,166.5 81.5,165.5C 88.175,165.334 94.8417,165.5 101.5,166C 102.582,167.33 103.249,168.83 103.5,170.5 Z"/></g>
<g><path style="opacity:1" fill="#272e3d" d="M 187.5,165.5 C 190.287,164.523 193.287,164.19 196.5,164.5C 196.5,166.5 196.5,168.5 196.5,170.5C 195.127,170.343 193.793,170.51 192.5,171C 193.416,171.278 194.082,171.778 194.5,172.5C 192.139,172.326 189.806,171.993 187.5,171.5C 187.5,170.5 187.5,169.5 187.5,168.5C 190.206,168.575 192.873,168.908 195.5,169.5C 195.5,168.167 195.5,166.833 195.5,165.5C 192.833,165.5 190.167,165.5 187.5,165.5 Z"/></g>
<g><path style="opacity:1" fill="#cfd0d1" d="M 172.5,174.5 C 171.167,174.5 169.833,174.5 168.5,174.5C 168.5,171.5 168.5,168.5 168.5,165.5C 169.833,165.5 171.167,165.5 172.5,165.5C 172.5,168.5 172.5,171.5 172.5,174.5 Z"/></g>
<g><path style="opacity:1" fill="#cbccce" d="M 79.5,165.5 C 79.5,168.167 79.5,170.833 79.5,173.5C 78.2921,174.234 76.9587,174.567 75.5,174.5C 75.5,171.5 75.5,168.5 75.5,165.5C 76.8333,165.5 78.1667,165.5 79.5,165.5 Z"/></g>
<g><path style="opacity:1" fill="#494f5a" d="M 96.5,168.5 C 95.0813,169.451 93.4147,169.784 91.5,169.5C 91.8168,173.702 91.4834,177.702 90.5,181.5C 90.5,179.167 90.5,176.833 90.5,174.5C 90.5,172.5 90.5,170.5 90.5,168.5C 92.5,168.5 94.5,168.5 96.5,168.5 Z"/></g>
<g><path style="opacity:1" fill="#b6b6b8" d="M 109.5,165.5 C 110.791,165.263 111.791,165.596 112.5,166.5C 110.833,169.833 109.167,173.167 107.5,176.5C 106.549,177.919 106.216,179.585 106.5,181.5C 105.5,181.5 104.5,181.5 103.5,181.5C 103.795,179.265 103.461,177.265 102.5,175.5C 101.248,173.999 100.248,172.332 99.5,170.5C 100.735,170.721 101.735,171.388 102.5,172.5C 103.298,172.043 103.631,171.376 103.5,170.5C 104.117,170.611 104.617,170.944 105,171.5C 106.363,169.316 107.863,167.316 109.5,165.5 Z"/></g>
<g><path style="opacity:1" fill="#d6d8d8" d="M 161.5,165.5 C 161.5,168.167 161.5,170.833 161.5,173.5C 160.167,173.5 158.833,173.5 157.5,173.5C 157.5,170.833 157.5,168.167 157.5,165.5C 158.833,165.5 160.167,165.5 161.5,165.5 Z"/></g>
<g><path style="opacity:1" fill="#919497" d="M 203.5,171.5 C 206.167,171.5 208.833,171.5 211.5,171.5C 211.737,172.791 211.404,173.791 210.5,174.5C 206.629,174.815 202.962,174.482 199.5,173.5C 203.182,173.665 206.848,173.499 210.5,173C 207.964,172.814 205.631,172.314 203.5,171.5 Z"/></g>
<g><path style="opacity:1" fill="#7d7f81" d="M 86.5,174.5 C 87.8333,174.5 89.1667,174.5 90.5,174.5C 90.5,176.833 90.5,179.167 90.5,181.5C 89.4324,182.434 88.099,182.768 86.5,182.5C 86.5,179.833 86.5,177.167 86.5,174.5 Z"/></g>
<g><path style="opacity:1" fill="#7b7d81" d="M 149.5,165.5 C 146.5,165.5 143.5,165.5 140.5,165.5C 140.5,168.167 140.5,170.833 140.5,173.5C 141.5,173.5 142.5,173.5 143.5,173.5C 143.5,171.833 143.5,170.167 143.5,168.5C 145.735,168.205 147.735,168.539 149.5,169.5C 150.451,170.919 150.784,172.585 150.5,174.5C 151.5,174.5 152.5,174.5 153.5,174.5C 151.412,176.829 151.745,179.163 154.5,181.5C 151.048,182.928 148.715,181.761 147.5,178C 146.552,177.517 145.552,177.351 144.5,177.5C 144.5,179.167 144.5,180.833 144.5,182.5C 142.833,182.5 141.167,182.5 139.5,182.5C 139.5,176.5 139.5,170.5 139.5,164.5C 143.042,164.187 146.375,164.521 149.5,165.5 Z"/></g>
<g><path style="opacity:1" fill="#101725" d="M 149.5,169.5 C 149.5,170.833 149.5,172.167 149.5,173.5C 147.833,173.5 146.167,173.5 144.5,173.5C 144.5,172.167 144.5,170.833 144.5,169.5C 146.167,169.5 147.833,169.5 149.5,169.5 Z"/></g>
<g><path style="opacity:1" fill="#5d6169" d="M 211.5,165.5 C 207.5,165.5 203.5,165.5 199.5,165.5C 199.5,168.167 199.5,170.833 199.5,173.5C 202.962,174.482 206.629,174.815 210.5,174.5C 208.393,175.468 206.059,175.802 203.5,175.5C 203.5,176.5 203.5,177.5 203.5,178.5C 202.842,177.602 202.176,176.602 201.5,175.5C 199.717,177.023 199.051,179.023 199.5,181.5C 203.833,181.5 208.167,181.5 212.5,181.5C 208.03,182.486 203.363,182.819 198.5,182.5C 198.5,176.5 198.5,170.5 198.5,164.5C 203.032,164.182 207.366,164.515 211.5,165.5 Z"/></g>
<g><path style="opacity:1" fill="#848588" d="M 57.5,170.5 C 57.5,171.5 57.5,172.5 57.5,173.5C 59.1993,173.473 60.5326,172.806 61.5,171.5C 61.1226,177.95 63.9559,179.95 70,177.5C 71.0588,177.63 71.8921,178.13 72.5,179C 66.3855,184.175 61.2188,183.342 57,176.5C 56.2109,174.288 56.3775,172.288 57.5,170.5 Z"/></g>
<g><path style="opacity:1" fill="#818285" d="M 126.5,171.5 C 125.68,175.24 127.013,177.573 130.5,178.5C 132.374,178.61 133.874,177.944 135,176.5C 136.682,177.865 136.849,179.365 135.5,181C 128.141,184.453 123.474,182.287 121.5,174.5C 122.833,174.5 124.167,174.5 125.5,174.5C 125.263,173.209 125.596,172.209 126.5,171.5 Z"/></g>
<g><path style="opacity:1" fill="#464b56" d="M 176.5,165.5 C 176.5,168.5 176.5,171.5 176.5,174.5C 176.5,176.833 176.5,179.167 176.5,181.5C 177.833,181.5 179.167,181.5 180.5,181.5C 179.081,182.451 177.415,182.784 175.5,182.5C 175.178,176.642 175.511,170.975 176.5,165.5 Z"/></g>
<g><path style="opacity:1" fill="#818285" d="M 157.5,173.5 C 158.833,173.5 160.167,173.5 161.5,173.5C 161.161,178.241 163.161,179.574 167.5,177.5C 168.127,176.583 168.461,175.583 168.5,174.5C 169.833,174.5 171.167,174.5 172.5,174.5C 170.984,181.925 166.651,184.092 159.5,181C 158.418,179.67 157.751,178.17 157.5,176.5C 157.5,175.5 157.5,174.5 157.5,173.5 Z"/></g>
<g><path style="opacity:1" fill="#898a8b" d="M 176.5,174.5 C 177.833,174.5 179.167,174.5 180.5,174.5C 180.5,176.833 180.5,179.167 180.5,181.5C 179.167,181.5 177.833,181.5 176.5,181.5C 176.5,179.167 176.5,176.833 176.5,174.5 Z"/></g>
<g><path style="opacity:1" fill="#818487" d="M 194.5,173.5 C 197.817,179.09 195.984,182.09 189,182.5C 184.69,182.983 183.19,181.316 184.5,177.5C 187.166,178.738 189.832,178.738 192.5,177.5C 190.718,176.016 188.718,175.016 186.5,174.5C 189.385,174.806 192.052,174.473 194.5,173.5 Z"/></g>
<g><path style="opacity:1" fill="#929395" d="M 203.5,178.5 C 206.5,178.5 209.5,178.5 212.5,178.5C 212.5,179.5 212.5,180.5 212.5,181.5C 208.167,181.5 203.833,181.5 199.5,181.5C 199.051,179.023 199.717,177.023 201.5,175.5C 202.176,176.602 202.842,177.602 203.5,178.5 Z"/></g>
<g><path style="opacity:1" fill="#707478" d="M 79.5,165.5 C 78.1667,165.5 76.8333,165.5 75.5,165.5C 75.5,168.5 75.5,171.5 75.5,174.5C 76.9587,174.567 78.2921,174.234 79.5,173.5C 79.5,176.5 79.5,179.5 79.5,182.5C 77.8333,182.5 76.1667,182.5 74.5,182.5C 74.5,176.5 74.5,170.5 74.5,164.5C 76.4147,164.216 78.0813,164.549 79.5,165.5 Z"/></g>
<g><path style="opacity:1" fill="#5b5e67" d="M 102.5,175.5 C 103.461,177.265 103.795,179.265 103.5,181.5C 104.5,181.5 105.5,181.5 106.5,181.5C 106.216,179.585 106.549,177.919 107.5,176.5C 107.5,178.5 107.5,180.5 107.5,182.5C 105.833,182.5 104.167,182.5 102.5,182.5C 102.5,180.167 102.5,177.833 102.5,175.5 Z"/></g>
<g><path style="opacity:1" fill="#81858a" d="M 104.5,188.5 C 110.324,188.347 110.657,189.013 105.5,190.5C 106.376,191.251 107.376,191.751 108.5,192C 104.735,193.377 105.068,194.377 109.5,195C 107.866,195.494 106.199,195.66 104.5,195.5C 104.5,193.167 104.5,190.833 104.5,188.5 Z"/></g>
<g><path style="opacity:1" fill="#414650" d="M 113.5,188.5 C 118.777,189.807 118.777,191.307 113.5,193C 113.728,193.399 114.062,193.565 114.5,193.5C 114.631,194.376 114.298,195.043 113.5,195.5C 112.203,193.027 112.203,190.693 113.5,188.5 Z"/></g>
<g><path style="opacity:1" fill="#404651" d="M 148.5,188.5 C 149.725,189.152 150.392,190.319 150.5,192C 150.167,193.167 149.833,194.333 149.5,195.5C 148.526,193.257 148.192,190.924 148.5,188.5 Z"/></g>
<g><path style="opacity:1" fill="#4f555e" d="M 182.5,188.5 C 184.308,189.918 184.975,191.918 184.5,194.5C 185.552,194.351 186.552,194.517 187.5,195C 185.866,195.494 184.199,195.66 182.5,195.5C 182.5,193.167 182.5,190.833 182.5,188.5 Z"/></g>
<g><path style="opacity:1" fill="#494f59" d="M 81.5,188.5 C 82.7251,189.152 83.3917,190.319 83.5,192C 83.1667,193.167 82.8333,194.333 82.5,195.5C 81.5258,193.257 81.1924,190.924 81.5,188.5 Z"/></g>
<g><path style="opacity:1" fill="#7d8186" d="M 86.5,188.5 C 88.7525,188.916 90.2525,190.249 91,192.5C 91.3333,191.167 91.6667,189.833 92,188.5C 92.8866,195.344 91.5532,196.011 88,190.5C 87.6667,192.167 87.3333,193.833 87,195.5C 86.5034,193.19 86.3367,190.857 86.5,188.5 Z"/></g>
<g><path style="opacity:1" fill="#656970" d="M 133.5,188.5 C 136.918,189.578 138.418,191.911 138,195.5C 135.916,192.967 133.916,192.967 132,195.5C 131.865,193.078 132.365,190.745 133.5,188.5 Z"/></g>
<g><path style="opacity:1" fill="#5b5f67" d="M 163.5,188.5 C 165.371,188.859 166.871,189.859 168,191.5C 168.249,190.376 168.749,189.376 169.5,188.5C 171.158,195.51 169.991,196.51 166,191.5C 165.781,192.938 165.281,194.271 164.5,195.5C 163.526,193.257 163.192,190.924 163.5,188.5 Z"/></g>
<g><path style="opacity:1" fill="#5b606a" d="M 95.5,189.5 C 97.2884,188.378 99.2884,188.211 101.5,189C 100.036,190.864 99.0361,193.031 98.5,195.5C 98.0358,193.025 97.0358,191.025 95.5,189.5 Z"/></g>
<g><path style="opacity:1" fill="#73797f" d="M 113.5,188.5 C 115.167,188.5 116.833,188.5 118.5,188.5C 118.663,190.857 118.497,193.19 118,195.5C 117.184,194.177 116.017,193.511 114.5,193.5C 114.062,193.565 113.728,193.399 113.5,193C 118.777,191.307 118.777,189.807 113.5,188.5 Z"/></g>
<g><path style="opacity:1" fill="#868990" d="M 140.5,189.5 C 141.946,188.387 143.613,188.22 145.5,189C 143.901,190.786 143.067,192.953 143,195.5C 142.998,192.949 142.164,190.949 140.5,189.5 Z"/></g>
<g><path style="opacity:1" fill="#76787e" d="M 175.5,188.5 C 176.496,188.414 177.329,188.748 178,189.5C 178.788,191.165 179.122,192.831 179,194.5C 177.333,193.167 175.667,193.167 174,194.5C 174.15,192.494 174.65,190.494 175.5,188.5 Z"/></g>
<g><path style="opacity:1" fill="#5c6067" d="M 121.5,188.5 C 123.716,189.203 125.549,190.536 127,192.5C 127.333,191.167 127.667,189.833 128,188.5C 129.159,195.576 127.826,196.576 124,191.5C 123.781,192.938 123.281,194.271 122.5,195.5C 121.526,193.257 121.192,190.924 121.5,188.5 Z"/></g>
<g><path style="opacity:1" fill="#5e626a" d="M 154.5,188.5 C 160.158,187.679 161.825,189.846 159.5,195C 155.872,196.316 153.539,195.149 152.5,191.5C 153.193,190.482 153.859,189.482 154.5,188.5 Z"/></g>
<g><path style="opacity:1" fill="#101726" d="M 155.5,189.5 C 159.161,189.35 160.161,190.85 158.5,194C 154.707,194.487 153.707,192.987 155.5,189.5 Z"/></g>
</svg>
