<?xml version="1.0" encoding="UTF-8"?>
<!DOCTYPE svg PUBLIC "-//W3C//DTD SVG 1.1//EN" "http://www.w3.org/Graphics/SVG/1.1/DTD/svg11.dtd">
<svg xmlns="http://www.w3.org/2000/svg" version="1.1" width="273px" height="269px" style="shape-rendering:geometricPrecision; text-rendering:geometricPrecision; image-rendering:optimizeQuality; fill-rule:evenodd; clip-rule:evenodd" xmlns:xlink="http://www.w3.org/1999/xlink">
<g><path style="opacity:1" fill="#f9f9f9" d="M -0.5,-0.5 C 89.8333,-0.5 180.167,-0.5 270.5,-0.5C 271.16,89.3789 270.493,179.046 268.5,268.5C 178.833,268.5 89.1667,268.5 -0.5,268.5C -0.5,178.833 -0.5,89.1667 -0.5,-0.5 Z"/></g>
<g><path style="opacity:1" fill="#d3cff3" d="M 270.5,-0.5 C 271.167,-0.5 271.833,-0.5 272.5,-0.5C 272.5,89.1667 272.5,178.833 272.5,268.5C 271.167,268.5 269.833,268.5 268.5,268.5C 270.493,179.046 271.16,89.3789 270.5,-0.5 Z"/></g>
<g><path style="opacity:1" fill="#9ec6c6" d="M 137.5,96.5 C 139.436,100.715 140.103,105.381 139.5,110.5C 142.634,109.759 145.634,108.759 148.5,107.5C 148.281,106.325 148.614,105.325 149.5,104.5C 151.833,105.667 154.167,106.833 156.5,108C 157.444,110.719 157.777,113.552 157.5,116.5C 164.123,117.512 167.123,121.512 166.5,128.5C 167.452,126.955 167.785,125.288 167.5,123.5C 169.927,123.523 172.26,124.023 174.5,125C 175.38,126.356 175.714,127.856 175.5,129.5C 191.181,129.167 206.848,129.501 222.5,130.5C 206.18,131.499 189.847,131.833 173.5,131.5C 173.773,129.042 172.773,127.375 170.5,126.5C 169.548,128.045 169.215,129.712 169.5,131.5C 167.5,131.5 165.5,131.5 163.5,131.5C 163.5,127.833 163.5,124.167 163.5,120.5C 162.5,120.5 161.5,120.5 160.5,120.5C 160.5,123.5 160.5,126.5 160.5,129.5C 158.5,129.5 156.5,129.5 154.5,129.5C 154.666,122.825 154.5,116.158 154,109.5C 153.586,109.043 153.086,108.709 152.5,108.5C 151.669,115.142 151.169,121.809 151,128.5C 149.301,129.406 147.467,129.739 145.5,129.5C 145.829,123.463 145.496,117.463 144.5,111.5C 143.914,111.709 143.414,112.043 143,112.5C 142.501,118.491 142.334,124.491 142.5,130.5C 139.167,130.5 135.833,130.5 132.5,130.5C 132.829,124.794 132.495,119.128 131.5,113.5C 129.668,112.752 128.001,111.752 126.5,110.5C 125.503,117.134 125.17,123.8 125.5,130.5C 123.5,130.5 121.5,130.5 119.5,130.5C 119.824,126.445 119.491,122.445 118.5,118.5C 117.534,120.396 117.201,122.396 117.5,124.5C 115.833,124.5 114.167,124.5 112.5,124.5C 112.5,122.167 112.5,119.833 112.5,117.5C 110.323,117.586 108.323,118.253 106.5,119.5C 105.509,123.445 105.176,127.445 105.5,131.5C 103.5,131.5 101.5,131.5 99.5,131.5C 99.7852,129.712 99.4519,128.045 98.5,126.5C 96.7826,127.668 96.1159,129.335 96.5,131.5C 79.83,131.667 63.1633,131.5 46.5,131C 62.011,129.517 77.6777,129.017 93.5,129.5C 93.33,128.178 93.6634,127.011 94.5,126C 97.0964,124.864 99.763,124.031 102.5,123.5C 102.215,121.712 102.548,120.045 103.5,118.5C 107.083,116.64 110.749,114.973 114.5,113.5C 115.386,114.325 115.719,115.325 115.5,116.5C 121.509,115.978 123.842,112.645 122.5,106.5C 123.833,106.5 125.167,106.5 126.5,106.5C 126.215,104.712 126.548,103.045 127.5,101.5C 130.937,99.8138 134.271,98.1472 137.5,96.5 Z"/></g>
<g><path style="opacity:1" fill="#f0f5f5" d="M 133.5,100.5 C 134.5,100.5 135.5,100.5 136.5,100.5C 136.832,109.525 136.498,118.525 135.5,127.5C 134.671,122.533 134.171,117.533 134,112.5C 129.615,110.385 128.448,107.051 130.5,102.5C 131.739,102.058 132.739,101.391 133.5,100.5 Z"/></g>
<g><path style="opacity:1" fill="#f36853" d="M 108.5,135.5 C 107.833,135.5 107.167,135.5 106.5,135.5C 106.833,134.833 107.167,134.167 107.5,133.5C 108.407,131.343 109.073,129.01 109.5,126.5C 116.423,125.271 118.09,127.771 114.5,134C 112.414,134.315 110.414,134.815 108.5,135.5 Z"/></g>
<g><path style="opacity:1" fill="#faa299" d="M 109.5,126.5 C 109.073,129.01 108.407,131.343 107.5,133.5C 107.338,131.473 107.505,129.473 108,127.5C 108.383,126.944 108.883,126.611 109.5,126.5 Z"/></g>
<g><path style="opacity:1" fill="#233a55" d="M 106.5,135.5 C 107.167,135.5 107.833,135.5 108.5,135.5C 106.612,139.606 104.446,143.606 102,147.5C 101.503,150.146 101.336,152.813 101.5,155.5C 100.167,155.5 98.8333,155.5 97.5,155.5C 98.6279,149.425 96.9612,144.425 92.5,140.5C 92.5852,139.005 91.9185,138.005 90.5,137.5C 88.2534,138.374 85.9201,138.708 83.5,138.5C 83.5,144.167 83.5,149.833 83.5,155.5C 82.1667,155.5 80.8333,155.5 79.5,155.5C 79.5,149.833 79.5,144.167 79.5,138.5C 77.1667,138.5 74.8333,138.5 72.5,138.5C 72.5,137.5 72.5,136.5 72.5,135.5C 79.8409,135.334 87.1742,135.5 94.5,136C 96.2907,138.414 97.9574,140.914 99.5,143.5C 101.499,141.507 102.999,139.173 104,136.5C 104.671,135.748 105.504,135.414 106.5,135.5 Z"/></g>
<g><path style="opacity:1" fill="#677a8c" d="M 138.5,135.5 C 138.5,141.833 138.5,148.167 138.5,154.5C 139.5,154.5 140.5,154.5 141.5,154.5C 141.216,152.585 141.549,150.919 142.5,149.5C 142.5,151.5 142.5,153.5 142.5,155.5C 140.833,155.5 139.167,155.5 137.5,155.5C 137.176,148.646 137.509,141.979 138.5,135.5 Z"/></g>
<g><path style="opacity:1" fill="#1d3652" d="M 138.5,135.5 C 142.514,135.334 146.514,135.501 150.5,136C 152.324,136.66 153.657,137.827 154.5,139.5C 154.599,142.237 154.265,144.904 153.5,147.5C 152.522,147.811 151.855,148.478 151.5,149.5C 152.248,151.332 153.248,152.999 154.5,154.5C 153.277,155.614 151.944,155.781 150.5,155C 149.272,151.016 146.605,149.183 142.5,149.5C 141.549,150.919 141.216,152.585 141.5,154.5C 140.5,154.5 139.5,154.5 138.5,154.5C 138.5,148.167 138.5,141.833 138.5,135.5 Z"/></g>
<g><path style="opacity:1" fill="#b0b7be" d="M 176.5,135.5 C 177.163,137.641 177.497,139.975 177.5,142.5C 177.685,146.141 177.019,149.474 175.5,152.5C 176.292,146.87 176.625,141.203 176.5,135.5 Z"/></g>
<g><path style="opacity:1" fill="#1f3852" d="M 221.5,143.5 C 221.5,144.5 221.5,145.5 221.5,146.5C 218.5,146.5 215.5,146.5 212.5,146.5C 212.5,148.5 212.5,150.5 212.5,152.5C 216.167,152.5 219.833,152.5 223.5,152.5C 223.5,153.5 223.5,154.5 223.5,155.5C 218.5,155.5 213.5,155.5 208.5,155.5C 208.5,148.833 208.5,142.167 208.5,135.5C 213.167,135.5 217.833,135.5 222.5,135.5C 222.5,136.5 222.5,137.5 222.5,138.5C 219.167,138.5 215.833,138.5 212.5,138.5C 212.5,140.167 212.5,141.833 212.5,143.5C 215.5,143.5 218.5,143.5 221.5,143.5 Z"/></g>
<g><path style="opacity:1" fill="#a6afb8" d="M 221.5,143.5 C 218.5,143.5 215.5,143.5 212.5,143.5C 212.5,141.833 212.5,140.167 212.5,138.5C 215.833,138.5 219.167,138.5 222.5,138.5C 222.5,137.5 222.5,136.5 222.5,135.5C 217.833,135.5 213.167,135.5 208.5,135.5C 208.5,142.167 208.5,148.833 208.5,155.5C 207.509,148.687 207.175,141.687 207.5,134.5C 212.833,134.5 218.167,134.5 223.5,134.5C 223.5,136.167 223.5,137.833 223.5,139.5C 220.167,139.5 216.833,139.5 213.5,139.5C 213.5,140.5 213.5,141.5 213.5,142.5C 216.385,142.194 219.052,142.527 221.5,143.5 Z"/></g>
<g><path style="opacity:1" fill="#667787" d="M 66.5,135.5 C 66.5,141.833 66.5,148.167 66.5,154.5C 67.5,154.5 68.5,154.5 69.5,154.5C 69.5,148.167 69.5,141.833 69.5,135.5C 70.4907,141.979 70.824,148.646 70.5,155.5C 68.8333,155.5 67.1667,155.5 65.5,155.5C 65.176,148.646 65.5093,141.979 66.5,135.5 Z"/></g>
<g><path style="opacity:1" fill="#173049" d="M 66.5,135.5 C 67.5,135.5 68.5,135.5 69.5,135.5C 69.5,141.833 69.5,148.167 69.5,154.5C 68.5,154.5 67.5,154.5 66.5,154.5C 66.5,148.167 66.5,141.833 66.5,135.5 Z"/></g>
<g><path style="opacity:1" fill="#758495" d="M 148.5,139.5 C 146.5,139.5 144.5,139.5 142.5,139.5C 142.5,141.5 142.5,143.5 142.5,145.5C 144.5,145.5 146.5,145.5 148.5,145.5C 146.393,146.468 144.059,146.802 141.5,146.5C 141.5,143.833 141.5,141.167 141.5,138.5C 144.059,138.198 146.393,138.532 148.5,139.5 Z"/></g>
<g><path style="opacity:1" fill="#ebedef" d="M 148.5,139.5 C 151.167,141.5 151.167,143.5 148.5,145.5C 146.5,145.5 144.5,145.5 142.5,145.5C 142.5,143.5 142.5,141.5 142.5,139.5C 144.5,139.5 146.5,139.5 148.5,139.5 Z"/></g>
<g><path style="opacity:1" fill="#b2bac5" d="M 92.5,140.5 C 89.9455,139.612 87.2788,139.279 84.5,139.5C 84.8214,145.026 84.4881,150.36 83.5,155.5C 83.5,149.833 83.5,144.167 83.5,138.5C 85.9201,138.708 88.2534,138.374 90.5,137.5C 91.9185,138.005 92.5852,139.005 92.5,140.5 Z"/></g>
<g><path style="opacity:1" fill="#253c58" d="M 194.5,134.5 C 197.518,134.704 200.518,135.037 203.5,135.5C 203.5,136.833 203.5,138.167 203.5,139.5C 200.507,138.865 197.507,138.699 194.5,139C 193.167,140.333 193.167,141.667 194.5,143C 197.834,143.789 201.001,144.956 204,146.5C 205.379,150.475 204.213,153.309 200.5,155C 197.167,155.667 193.833,155.667 190.5,155C 189.253,153.506 189.253,152.006 190.5,150.5C 193.208,152.436 196.208,152.936 199.5,152C 200.022,151.439 200.355,150.772 200.5,150C 197.094,148.095 193.594,146.261 190,144.5C 188.315,139.487 189.815,136.154 194.5,134.5 Z"/></g>
<g><path style="opacity:1" fill="#364f66" d="M 182.5,135.5 C 183.167,160.833 183.833,160.833 184.5,135.5C 185.491,141.979 185.824,148.646 185.5,155.5C 184.167,155.5 182.833,155.5 181.5,155.5C 181.176,148.646 181.509,141.979 182.5,135.5 Z"/></g>
<g><path style="opacity:1" fill="#122b49" d="M 182.5,135.5 C 183.167,135.5 183.833,135.5 184.5,135.5C 183.833,160.833 183.167,160.833 182.5,135.5 Z"/></g>
<g><path style="opacity:1" fill="#99a6b0" d="M 72.5,138.5 C 74.8333,138.5 77.1667,138.5 79.5,138.5C 79.5,144.167 79.5,149.833 79.5,155.5C 78.5119,150.36 78.1786,145.026 78.5,139.5C 76.2646,139.795 74.2646,139.461 72.5,138.5 Z"/></g>
<g><path style="opacity:1" fill="#adb4bc" d="M 154.5,139.5 C 155.152,140.449 155.486,141.615 155.5,143C 155.693,145.008 155.026,146.508 153.5,147.5C 154.265,144.904 154.599,142.237 154.5,139.5 Z"/></g>
<g><path style="opacity:1" fill="#2a3f59" d="M 57.5,139.5 C 56.7261,138.853 55.7261,138.52 54.5,138.5C 52.6455,138.34 51.3121,139.007 50.5,140.5C 48.2202,143.146 47.8868,146.146 49.5,149.5C 52.2142,152.934 55.2142,153.267 58.5,150.5C 59.5,150.5 60.5,150.5 61.5,150.5C 60.9294,154.674 58.4294,156.674 54,156.5C 46.412,154.321 43.0787,149.321 44,141.5C 47.0069,136.274 51.5069,134.107 57.5,135C 64.1487,137.977 64.1487,139.477 57.5,139.5 Z"/></g>
<g><path style="opacity:1" fill="#a8b0bb" d="M 57.5,139.5 C 55.0971,139.448 52.7638,139.781 50.5,140.5C 51.3121,139.007 52.6455,138.34 54.5,138.5C 55.7261,138.52 56.7261,138.853 57.5,139.5 Z"/></g>
<g><path style="opacity:1" fill="#253c57" d="M 176.5,135.5 C 176.625,141.203 176.292,146.87 175.5,152.5C 171.64,155.324 167.307,156.158 162.5,155C 161.213,153.59 160.046,152.09 159,150.5C 158.501,145.511 158.334,140.511 158.5,135.5C 159.833,135.5 161.167,135.5 162.5,135.5C 162.334,140.179 162.501,144.845 163,149.5C 166.472,152.418 169.472,152.085 172,148.5C 172.499,144.179 172.666,139.846 172.5,135.5C 173.833,135.5 175.167,135.5 176.5,135.5 Z"/></g>
<g><path style="opacity:1" fill="#bac2c9" d="M 49.5,149.5 C 52.4299,150.299 55.4299,150.632 58.5,150.5C 55.2142,153.267 52.2142,152.934 49.5,149.5 Z"/></g>
<g><path style="opacity:1" fill="#bbc3ca" d="M 121.5,149.5 C 124.43,150.299 127.43,150.632 130.5,150.5C 127.214,153.267 124.214,152.934 121.5,149.5 Z"/></g>
<g><path style="opacity:1" fill="#8896a3" d="M 221.5,146.5 C 219.052,147.473 216.385,147.806 213.5,147.5C 213.5,148.833 213.5,150.167 213.5,151.5C 217.167,151.5 220.833,151.5 224.5,151.5C 224.768,153.099 224.434,154.432 223.5,155.5C 223.5,154.5 223.5,153.5 223.5,152.5C 219.833,152.5 216.167,152.5 212.5,152.5C 212.5,150.5 212.5,148.5 212.5,146.5C 215.5,146.5 218.5,146.5 221.5,146.5 Z"/></g>
<g><path style="opacity:1" fill="#243c58" d="M 129.5,139.5 C 128.726,138.853 127.726,138.52 126.5,138.5C 124.645,138.34 123.312,139.007 122.5,140.5C 120.22,143.146 119.887,146.146 121.5,149.5C 124.214,152.934 127.214,153.267 130.5,150.5C 135.794,151.635 135.794,153.135 130.5,155C 121.738,157.23 116.738,153.897 115.5,145C 115.91,139.918 118.577,136.584 123.5,135C 127.053,134.402 130.386,135.069 133.5,137C 134.833,138 134.833,139 133.5,140C 132.072,140.579 130.738,140.412 129.5,139.5 Z"/></g>
<g><path style="opacity:1" fill="#a3afb9" d="M 129.5,139.5 C 127.097,139.448 124.764,139.781 122.5,140.5C 123.312,139.007 124.645,138.34 126.5,138.5C 127.726,138.52 128.726,138.853 129.5,139.5 Z"/></g>
<g><path style="opacity:1" fill="#dcdcdc" d="M 191.5,158.5 C 198.084,158.004 199.751,160.504 196.5,166C 190.788,166.433 189.122,163.933 191.5,158.5 Z"/></g>
<g><path style="opacity:1" fill="#d1d1d1" d="M 129.5,158.5 C 130.748,159.334 131.415,160.667 131.5,162.5C 131.167,163.833 130.833,165.167 130.5,166.5C 128.833,165.5 127.5,164.167 126.5,162.5C 125.749,163.376 125.249,164.376 125,165.5C 123.877,159.563 125.211,158.563 129,162.5C 129.49,161.207 129.657,159.873 129.5,158.5 Z"/></g>
<g><path style="opacity:1" fill="#d6d6d6" d="M 141.5,158.5 C 143.527,158.338 145.527,158.505 147.5,159C 142.27,159.909 142.27,161.075 147.5,162.5C 146.624,163.251 145.624,163.751 144.5,164C 145.624,164.249 146.624,164.749 147.5,165.5C 145.604,166.466 143.604,166.799 141.5,166.5C 141.5,163.833 141.5,161.167 141.5,158.5 Z"/></g>
<g><path style="opacity:1" fill="#d1d1d1" d="M 159.5,158.5 C 161.752,158.916 163.252,160.249 164,162.5C 164.219,161.062 164.719,159.729 165.5,158.5C 166.833,160.833 166.833,163.167 165.5,165.5C 164.186,164.687 163.019,163.687 162,162.5C 161.781,163.938 161.281,165.271 160.5,166.5C 159.52,163.914 159.187,161.247 159.5,158.5 Z"/></g>
<g><path style="opacity:1" fill="#d3d3d2" d="M 150.5,158.5 C 156.367,158.206 158.033,160.872 155.5,166.5C 154.306,163.381 152.806,163.048 151,165.5C 150.503,163.19 150.337,160.857 150.5,158.5 Z"/></g>
<g><path style="opacity:1" fill="#d1d1d0" d="M 213.5,158.5 C 214.496,158.414 215.329,158.748 216,159.5C 216.991,161.447 217.325,163.447 217,165.5C 214.768,164.813 212.602,164.479 210.5,164.5C 211.513,162.473 212.513,160.473 213.5,158.5 Z"/></g>
<g><path style="opacity:1" fill="#d2d3d2" d="M 171.5,158.5 C 172.5,158.5 173.5,158.5 174.5,158.5C 175.167,160.819 175.334,163.153 175,165.5C 172.733,164.065 170.733,164.398 169,166.5C 169.107,163.676 169.94,161.009 171.5,158.5 Z"/></g>
</svg>
