<?xml version="1.0" encoding="UTF-8"?>
<!DOCTYPE svg PUBLIC "-//W3C//DTD SVG 1.1//EN" "http://www.w3.org/Graphics/SVG/1.1/DTD/svg11.dtd">
<svg xmlns="http://www.w3.org/2000/svg" version="1.1" width="270px" height="268px" style="shape-rendering:geometricPrecision; text-rendering:geometricPrecision; image-rendering:optimizeQuality; fill-rule:evenodd; clip-rule:evenodd" xmlns:xlink="http://www.w3.org/1999/xlink">
<g><path style="opacity:1" fill="#f9f9f9" d="M 1.5,-0.5 C 90.8333,-0.5 180.167,-0.5 269.5,-0.5C 269.5,88.8333 269.5,178.167 269.5,267.5C 180.167,267.5 90.8333,267.5 1.5,267.5C 1.5,178.167 1.5,88.8333 1.5,-0.5 Z"/></g>
<g><path style="opacity:1" fill="#b2ace1" d="M -0.5,-0.5 C 0.166667,-0.5 0.833333,-0.5 1.5,-0.5C 1.5,88.8333 1.5,178.167 1.5,267.5C 0.833333,267.5 0.166667,267.5 -0.5,267.5C -0.5,178.167 -0.5,88.8333 -0.5,-0.5 Z"/></g>
<g><path style="opacity:1" fill="#e0e0e1" d="M 176.5,92.5 C 176.5,91.1667 176.5,89.8333 176.5,88.5C 176.833,86.5 177.167,84.5 177.5,82.5C 179.969,76.7216 178.302,72.7216 172.5,70.5C 161.007,69.3405 149.341,69.1739 137.5,70C 137.167,70.3333 136.833,70.6667 136.5,71C 140.827,73.1622 142.827,76.6622 142.5,81.5C 137.449,78.6301 132.783,75.1301 128.5,71C 125.571,70.2228 122.737,70.3895 120,71.5C 119.333,72.5 119.333,73.5 120,74.5C 122.491,76.2904 124.658,78.4571 126.5,81C 131.032,84.0077 136.032,85.1744 141.5,84.5C 141.5,84.8333 141.5,85.1667 141.5,85.5C 138.833,85.5 136.167,85.5 133.5,85.5C 133.371,87.2161 133.038,88.8828 132.5,90.5C 128.418,89.6172 125.084,87.4506 122.5,84C 119.614,83.3939 117.448,81.8939 116,79.5C 115.517,80.448 115.351,81.448 115.5,82.5C 114.5,83.8333 113.5,85.1667 112.5,86.5C 113.839,82.6415 114.673,78.6415 115,74.5C 116.71,72.6202 118.543,70.9535 120.5,69.5C 138.475,68.3596 156.475,68.1929 174.5,69C 178.722,70.5604 180.389,73.5604 179.5,78C 179.309,83.1265 178.309,87.9598 176.5,92.5 Z"/></g>
<g><path style="opacity:1" fill="#f1f2f3" d="M 142.5,81.5 C 142.5,82.1667 142.5,82.8333 142.5,83.5C 142.5,84.1667 142.167,84.5 141.5,84.5C 136.032,85.1744 131.032,84.0077 126.5,81C 124.658,78.4571 122.491,76.2904 120,74.5C 119.333,73.5 119.333,72.5 120,71.5C 122.737,70.3895 125.571,70.2228 128.5,71C 132.783,75.1301 137.449,78.6301 142.5,81.5 Z"/></g>
<g><path style="opacity:1" fill="#939596" d="M 155.5,70.5 C 161.167,70.5 166.833,70.5 172.5,70.5C 178.302,72.7216 179.969,76.7216 177.5,82.5C 176.685,83.4293 175.852,84.4293 175,85.5C 168.051,81.0475 161.551,76.0475 155.5,70.5 Z"/></g>
<g><path style="opacity:1" fill="#b6b7b8" d="M 132.5,90.5 C 132.205,92.4233 131.372,94.0899 130,95.5C 126.193,93.938 123.526,91.2714 122,87.5C 119.672,86.0007 117.505,84.334 115.5,82.5C 115.351,81.448 115.517,80.448 116,79.5C 117.448,81.8939 119.614,83.3939 122.5,84C 125.084,87.4506 128.418,89.6172 132.5,90.5 Z"/></g>
<g><path style="opacity:1" fill="#afb0b2" d="M 155.5,70.5 C 161.551,76.0475 168.051,81.0475 175,85.5C 175.852,84.4293 176.685,83.4293 177.5,82.5C 177.167,84.5 176.833,86.5 176.5,88.5C 175.698,89.9516 175.198,91.6183 175,93.5C 173.887,92.2889 172.72,92.2889 171.5,93.5C 167.525,89.8455 163.192,86.6789 158.5,84C 153.727,79.4404 148.727,75.1071 143.5,71C 147.486,70.5012 151.486,70.3345 155.5,70.5 Z"/></g>
<g><path style="opacity:1" fill="#eaf3f2" d="M 139.5,87.5 C 139.664,90.1873 139.497,92.854 139,95.5C 138.118,91.9584 137.285,92.2917 136.5,96.5C 136.817,99.5719 136.484,102.572 135.5,105.5C 134.806,103.245 133.806,101.245 132.5,99.5C 133.167,95.5 133.833,91.5 134.5,87.5C 136.167,87.5 137.833,87.5 139.5,87.5 Z"/></g>
<g><path style="opacity:1" fill="#999d9e" d="M 115.5,82.5 C 117.505,84.334 119.672,86.0007 122,87.5C 123.526,91.2714 126.193,93.938 130,95.5C 131.372,94.0899 132.205,92.4233 132.5,90.5C 133.038,88.8828 133.371,87.2161 133.5,85.5C 136.167,85.5 138.833,85.5 141.5,85.5C 141.737,86.791 141.404,87.791 140.5,88.5C 140.5,87.8333 140.167,87.5 139.5,87.5C 137.833,87.5 136.167,87.5 134.5,87.5C 133.833,91.5 133.167,95.5 132.5,99.5C 130.876,99.3601 129.71,100.027 129,101.5C 128.667,104.167 128.333,106.833 128,109.5C 127.501,105.514 127.334,101.514 127.5,97.5C 121.671,96.9998 119.337,99.6665 120.5,105.5C 119.71,104.391 119.21,103.058 119,101.5C 116.28,100.777 114.113,99.2768 112.5,97C 112.781,93.9832 112.781,90.8166 112.5,87.5C 112.5,87.1667 112.5,86.8333 112.5,86.5C 113.5,85.1667 114.5,83.8333 115.5,82.5 Z"/></g>
<g><path style="opacity:1" fill="#b1e4de" d="M 139.5,87.5 C 140.167,87.5 140.5,87.8333 140.5,88.5C 140.817,91.5719 140.484,94.5719 139.5,97.5C 138.583,96.8728 137.583,96.5394 136.5,96.5C 137.285,92.2917 138.118,91.9584 139,95.5C 139.497,92.854 139.664,90.1873 139.5,87.5 Z"/></g>
<g><path style="opacity:1" fill="#c5c7c8" d="M 172.5,70.5 C 166.833,70.5 161.167,70.5 155.5,70.5C 151.486,70.3345 147.486,70.5012 143.5,71C 148.727,75.1071 153.727,79.4404 158.5,84C 163.192,86.6789 167.525,89.8455 171.5,93.5C 172.72,92.2889 173.887,92.2889 175,93.5C 175.198,91.6183 175.698,89.9516 176.5,88.5C 176.5,89.8333 176.5,91.1667 176.5,92.5C 173.232,93.8222 169.565,94.4888 165.5,94.5C 161.833,94.1667 158.167,93.8333 154.5,93.5C 155.348,91.5914 155.682,89.5914 155.5,87.5C 152.833,87.5 150.167,87.5 147.5,87.5C 147.067,84.7411 145.4,83.4078 142.5,83.5C 142.5,82.8333 142.5,82.1667 142.5,81.5C 142.827,76.6622 140.827,73.1622 136.5,71C 136.833,70.6667 137.167,70.3333 137.5,70C 149.341,69.1739 161.007,69.3405 172.5,70.5 Z"/></g>
<g><path style="opacity:1" fill="#bbbdbe" d="M 112.5,87.5 C 112.781,90.8166 112.781,93.9832 112.5,97C 114.113,99.2768 116.28,100.777 119,101.5C 119.21,103.058 119.71,104.391 120.5,105.5C 120.5,106.833 120.5,108.167 120.5,109.5C 119.778,109.918 119.278,110.584 119,111.5C 115.959,108.824 112.959,106.157 110,103.5C 109.178,106.117 108.678,108.784 108.5,111.5C 107.833,111.5 107.167,111.5 106.5,111.5C 107.932,103.234 109.932,95.2341 112.5,87.5 Z"/></g>
<g><path style="opacity:1" fill="#36b9b0" d="M 142.5,83.5 C 145.4,83.4078 147.067,84.7411 147.5,87.5C 147.171,93.5368 147.504,99.5368 148.5,105.5C 149.466,103.604 149.799,101.604 149.5,99.5C 150.822,99.33 151.989,99.6634 153,100.5C 153.333,102.167 153.667,103.833 154,105.5C 154.497,102.854 154.664,100.187 154.5,97.5C 156.167,97.5 157.833,97.5 159.5,97.5C 159.238,98.9778 159.571,100.311 160.5,101.5C 161.72,100.289 162.887,100.289 164,101.5C 164.674,104.26 165.507,106.927 166.5,109.5C 168.124,109.64 169.29,108.973 170,107.5C 171.78,108.594 173.614,109.594 175.5,110.5C 175.376,111.107 175.043,111.44 174.5,111.5C 167.66,110.062 160.993,110.728 154.5,113.5C 151.572,113.565 148.905,114.232 146.5,115.5C 143.123,115.959 139.789,116.626 136.5,117.5C 132.002,118.411 127.668,119.911 123.5,122C 118.925,124.758 114.258,127.258 109.5,129.5C 108.256,126.457 105.923,125.124 102.5,125.5C 103.637,120.759 104.97,116.093 106.5,111.5C 107.167,111.5 107.833,111.5 108.5,111.5C 110.541,115.226 112.541,114.893 114.5,110.5C 115.842,112.005 117.508,112.672 119.5,112.5C 119.351,113.552 119.517,114.552 120,115.5C 120.495,113.527 120.662,111.527 120.5,109.5C 120.5,108.167 120.5,106.833 120.5,105.5C 119.337,99.6665 121.671,96.9998 127.5,97.5C 127.334,101.514 127.501,105.514 128,109.5C 128.333,106.833 128.667,104.167 129,101.5C 129.71,100.027 130.876,99.3601 132.5,99.5C 133.806,101.245 134.806,103.245 135.5,105.5C 136.484,102.572 136.817,99.5719 136.5,96.5C 137.583,96.5394 138.583,96.8728 139.5,97.5C 140.484,94.5719 140.817,91.5719 140.5,88.5C 141.404,87.791 141.737,86.791 141.5,85.5C 141.5,85.1667 141.5,84.8333 141.5,84.5C 142.167,84.5 142.5,84.1667 142.5,83.5 Z"/></g>
<g><path style="opacity:1" fill="#dbe7e7" d="M 120.5,109.5 C 120.662,111.527 120.495,113.527 120,115.5C 119.517,114.552 119.351,113.552 119.5,112.5C 117.508,112.672 115.842,112.005 114.5,110.5C 112.541,114.893 110.541,115.226 108.5,111.5C 108.678,108.784 109.178,106.117 110,103.5C 112.959,106.157 115.959,108.824 119,111.5C 119.278,110.584 119.778,109.918 120.5,109.5 Z"/></g>
<g><path style="opacity:1" fill="#50586f" d="M 174.5,111.5 C 172.585,111.216 170.919,111.549 169.5,112.5C 165.658,112.892 161.991,113.892 158.5,115.5C 157.817,113.824 156.483,113.157 154.5,113.5C 160.993,110.728 167.66,110.062 174.5,111.5 Z"/></g>
<g><path style="opacity:1" fill="#8daab2" d="M 169.5,112.5 C 170.919,111.549 172.585,111.216 174.5,111.5C 172.614,115.628 170.947,115.962 169.5,112.5 Z"/></g>
<g><path style="opacity:1" fill="#646880" d="M 146.5,115.5 C 138.083,119.207 129.75,123.207 121.5,127.5C 121.167,127.5 120.833,127.5 120.5,127.5C 120.5,126.833 120.167,126.5 119.5,126.5C 125.04,123.23 130.707,120.23 136.5,117.5C 139.789,116.626 143.123,115.959 146.5,115.5 Z"/></g>
<g><path style="opacity:1" fill="#8c8ea0" d="M 155.5,117.5 C 149.833,121.167 145.167,125.833 141.5,131.5C 140.124,131.747 139.29,133.081 139,135.5C 138.503,138.146 138.336,140.813 138.5,143.5C 137.833,142.167 137.167,140.833 136.5,139.5C 138.461,128.53 144.794,121.196 155.5,117.5 Z"/></g>
<g><path style="opacity:1" fill="#2b8979" d="M 102.5,125.5 C 105.923,125.124 108.256,126.457 109.5,129.5C 106.229,132.268 103.062,135.268 100,138.5C 99.8195,136.512 99.9862,134.512 100.5,132.5C 101.319,130.228 101.985,127.894 102.5,125.5 Z"/></g>
<g><path style="opacity:1" fill="#d5dedf" d="M 136.5,117.5 C 130.707,120.23 125.04,123.23 119.5,126.5C 112.642,130.02 106.642,134.687 101.5,140.5C 100.791,139.596 99.791,139.263 98.5,139.5C 97.9898,136.612 98.6565,134.279 100.5,132.5C 99.9862,134.512 99.8195,136.512 100,138.5C 103.062,135.268 106.229,132.268 109.5,129.5C 114.258,127.258 118.925,124.758 123.5,122C 127.668,119.911 132.002,118.411 136.5,117.5 Z"/></g>
<g><path style="opacity:1" fill="#222748" d="M 154.5,113.5 C 156.483,113.157 157.817,113.824 158.5,115.5C 157.29,115.932 156.29,116.599 155.5,117.5C 144.794,121.196 138.461,128.53 136.5,139.5C 136.467,143.869 136.8,148.202 137.5,152.5C 135.883,148.46 135.05,144.127 135,139.5C 134.667,139.167 134.333,138.833 134,138.5C 133,139.833 132,141.167 131,142.5C 130.5,142 130,141.5 129.5,141C 131.616,139.829 132.282,138.329 131.5,136.5C 129.68,137.883 127.68,138.883 125.5,139.5C 125.452,142.292 126.785,144.125 129.5,145C 128.874,145.75 128.374,146.584 128,147.5C 123.257,142.488 118.09,138.821 112.5,136.5C 115.194,133.14 118.194,130.14 121.5,127.5C 129.75,123.207 138.083,119.207 146.5,115.5C 148.905,114.232 151.572,113.565 154.5,113.5 Z"/></g>
<g><path style="opacity:1" fill="#9a9dac" d="M 133.5,124.5 C 134.376,124.369 135.043,124.702 135.5,125.5C 134.379,128.047 132.712,129.047 130.5,128.5C 131.524,127.148 132.524,125.815 133.5,124.5 Z"/></g>
<g><path style="opacity:1" fill="#71748a" d="M 141.5,119.5 C 142.552,119.351 143.552,119.517 144.5,120C 140.529,123.474 139.529,123.307 141.5,119.5 Z"/></g>
<g><path style="opacity:1" fill="#b6b7b9" d="M 167.5,148.5 C 167.631,147.761 167.464,147.094 167,146.5C 166.722,147.416 166.222,148.082 165.5,148.5C 162.953,144.363 159.62,140.863 155.5,138C 150.595,138.808 145.595,139.308 140.5,139.5C 140.205,137.265 140.539,135.265 141.5,133.5C 141.5,134.833 141.5,136.167 141.5,137.5C 144.167,137.5 146.833,137.5 149.5,137.5C 149.357,135.738 149.691,134.071 150.5,132.5C 157.468,131.503 164.468,131.17 171.5,131.5C 170.61,137.387 169.277,143.054 167.5,148.5 Z"/></g>
<g><path style="opacity:1" fill="#a1a3b3" d="M 120.5,127.5 C 120.833,127.5 121.167,127.5 121.5,127.5C 118.194,130.14 115.194,133.14 112.5,136.5C 110.5,138.167 108.5,139.833 106.5,141.5C 106.5,140.833 106.167,140.5 105.5,140.5C 109.589,135.075 114.589,130.742 120.5,127.5 Z"/></g>
<g><path style="opacity:1" fill="#cacbd1" d="M 125.5,139.5 C 124.142,140.626 122.808,140.626 121.5,139.5C 122.543,136.076 124.543,134.409 127.5,134.5C 126.544,136.075 125.877,137.742 125.5,139.5 Z"/></g>
<g><path style="opacity:1" fill="#1b2145" d="M 112.5,136.5 C 118.09,138.821 123.257,142.488 128,147.5C 128.374,146.584 128.874,145.75 129.5,145C 126.785,144.125 125.452,142.292 125.5,139.5C 127.68,138.883 129.68,137.883 131.5,136.5C 132.282,138.329 131.616,139.829 129.5,141C 130,141.5 130.5,142 131,142.5C 132,141.167 133,139.833 134,138.5C 134.333,138.833 134.667,139.167 135,139.5C 135.05,144.127 135.883,148.46 137.5,152.5C 137.5,153.833 137.5,155.167 137.5,156.5C 132.5,156.5 127.5,156.5 122.5,156.5C 122.5,153.167 122.5,149.833 122.5,146.5C 120.901,146.232 119.568,146.566 118.5,147.5C 117.422,150.402 116.756,153.402 116.5,156.5C 110.402,157.117 104.735,156.45 99.5,154.5C 101.591,149.98 103.925,145.647 106.5,141.5C 108.5,139.833 110.5,138.167 112.5,136.5 Z"/></g>
<g><path style="opacity:1" fill="#999b9f" d="M 158.5,132.5 C 162.167,132.5 165.833,132.5 169.5,132.5C 169.037,135.482 168.704,138.482 168.5,141.5C 167.448,141.649 166.448,141.483 165.5,141C 163.493,139.287 161.493,137.621 159.5,136C 158.663,134.989 158.33,133.822 158.5,132.5 Z"/></g>
<g><path style="opacity:1" fill="#e5e6e7" d="M 165.5,148.5 C 165.288,151.712 163.621,153.712 160.5,154.5C 157.428,154.817 154.428,154.484 151.5,153.5C 147.095,150.098 143.428,146.098 140.5,141.5C 140.5,140.833 140.5,140.167 140.5,139.5C 145.595,139.308 150.595,138.808 155.5,138C 159.62,140.863 162.953,144.363 165.5,148.5 Z"/></g>
<g><path style="opacity:1" fill="#c5c7cf" d="M 105.5,140.5 C 106.167,140.5 106.5,140.833 106.5,141.5C 103.925,145.647 101.591,149.98 99.5,154.5C 98.596,155.209 98.2627,156.209 98.5,157.5C 97.8333,157.167 97.1667,156.833 96.5,156.5C 98.4607,150.578 101.461,145.245 105.5,140.5 Z"/></g>
<g><path style="opacity:1" fill="#3c4061" d="M 119.5,126.5 C 120.167,126.5 120.5,126.833 120.5,127.5C 114.589,130.742 109.589,135.075 105.5,140.5C 101.461,145.245 98.4607,150.578 96.5,156.5C 95.6905,150.584 97.3572,145.25 101.5,140.5C 106.642,134.687 112.642,130.02 119.5,126.5 Z"/></g>
<g><path style="opacity:1" fill="#363b58" d="M 141.5,131.5 C 141.5,132.167 141.5,132.833 141.5,133.5C 140.539,135.265 140.205,137.265 140.5,139.5C 140.5,140.167 140.5,140.833 140.5,141.5C 140.674,143.861 141.007,146.194 141.5,148.5C 142.298,150.886 143.298,153.22 144.5,155.5C 143.675,156.386 142.675,156.719 141.5,156.5C 139.867,152.341 138.867,148.008 138.5,143.5C 138.336,140.813 138.503,138.146 139,135.5C 139.29,133.081 140.124,131.747 141.5,131.5 Z"/></g>
<g><path style="opacity:1" fill="#bfc1c3" d="M 140.5,141.5 C 143.428,146.098 147.095,150.098 151.5,153.5C 154.428,154.484 157.428,154.817 160.5,154.5C 156.689,155.645 152.689,155.812 148.5,155C 146.929,151.926 144.596,149.76 141.5,148.5C 141.007,146.194 140.674,143.861 140.5,141.5 Z"/></g>
<g><path style="opacity:1" fill="#9a9da0" d="M 167.5,148.5 C 166.476,152.362 164.143,155.195 160.5,157C 153.986,157.82 147.653,157.653 141.5,156.5C 142.675,156.719 143.675,156.386 144.5,155.5C 143.298,153.22 142.298,150.886 141.5,148.5C 144.596,149.76 146.929,151.926 148.5,155C 152.689,155.812 156.689,155.645 160.5,154.5C 163.621,153.712 165.288,151.712 165.5,148.5C 166.222,148.082 166.722,147.416 167,146.5C 167.464,147.094 167.631,147.761 167.5,148.5 Z"/></g>
<g><path style="opacity:1" fill="#818698" d="M 99.5,154.5 C 104.735,156.45 110.402,157.117 116.5,156.5C 110.69,157.49 104.69,157.823 98.5,157.5C 98.2627,156.209 98.596,155.209 99.5,154.5 Z"/></g>
<g><path style="opacity:1" fill="#7e8395" d="M 118.5,147.5 C 119.568,146.566 120.901,146.232 122.5,146.5C 122.5,149.833 122.5,153.167 122.5,156.5C 127.5,156.5 132.5,156.5 137.5,156.5C 137.5,155.167 137.5,153.833 137.5,152.5C 138.451,153.919 138.784,155.585 138.5,157.5C 132.833,157.5 127.167,157.5 121.5,157.5C 121.5,154.167 121.5,150.833 121.5,147.5C 120.5,147.5 119.5,147.5 118.5,147.5 Z"/></g>
<g><path style="opacity:1" fill="#9193a4" d="M 105.5,174.5 C 104.127,174.343 102.793,174.51 101.5,175C 102.056,175.383 102.389,175.883 102.5,176.5C 101.833,176.5 101.167,176.5 100.5,176.5C 96.2853,174.564 91.6186,173.897 86.5,174.5C 86.5,175.5 86.5,176.5 86.5,177.5C 85.5655,176.432 85.2322,175.099 85.5,173.5C 92.3543,173.176 99.021,173.509 105.5,174.5 Z"/></g>
<g><path style="opacity:1" fill="#252a4c" d="M 154.5,174.5 C 158.101,177.736 158.434,181.403 155.5,185.5C 156.95,186.85 157.617,188.516 157.5,190.5C 156.022,190.762 154.689,190.429 153.5,189.5C 153.058,188.261 152.391,187.261 151.5,186.5C 150.432,185.566 149.099,185.232 147.5,185.5C 147.5,186.833 147.5,188.167 147.5,189.5C 146.5,189.5 145.5,189.5 144.5,189.5C 144.5,184.5 144.5,179.5 144.5,174.5C 147.833,174.5 151.167,174.5 154.5,174.5 Z"/></g>
<g><path style="opacity:1" fill="#2d3153" d="M 197.5,189.5 C 194.278,189.892 191.278,189.392 188.5,188C 189.094,187.536 189.761,187.369 190.5,187.5C 192.5,187.5 194.5,187.5 196.5,187.5C 196.737,186.209 196.404,185.209 195.5,184.5C 188.906,184.59 186.573,181.59 188.5,175.5C 191.225,173.571 194.225,173.071 197.5,174C 199.107,175.049 199.773,176.549 199.5,178.5C 196.792,177.551 194.126,177.551 191.5,178.5C 194.228,180.253 197.061,181.92 200,183.5C 200.972,186.294 200.139,188.294 197.5,189.5 Z"/></g>
<g><path style="opacity:1" fill="#65677e" d="M 161.5,174.5 C 162.568,173.566 163.901,173.232 165.5,173.5C 165.5,177.5 165.5,181.5 165.5,185.5C 164.518,182.038 164.185,178.371 164.5,174.5C 163.5,174.5 162.5,174.5 161.5,174.5 Z"/></g>
<g><path style="opacity:1" fill="#303353" d="M 67.5,173.5 C 70.9717,173.126 73.9717,174.126 76.5,176.5C 76.1131,177.72 75.2798,178.387 74,178.5C 69.5877,176.358 66.7544,177.525 65.5,182C 65.4393,183.711 66.1059,185.044 67.5,186C 70.2356,186.422 72.9023,186.422 75.5,186C 76.727,187.587 76.3937,188.921 74.5,190C 64.3874,191.888 60.2208,187.721 62,177.5C 63.8121,176.023 65.6455,174.69 67.5,173.5 Z"/></g>
<g><path style="opacity:1" fill="#5d6179" d="M 215.5,174.5 C 216.404,175.209 216.737,176.209 216.5,177.5C 213.5,177.5 210.5,177.5 207.5,177.5C 210.477,177.098 213.143,176.098 215.5,174.5 Z"/></g>
<g><path style="opacity:1" fill="#35395a" d="M 130.5,173.5 C 133.187,173.336 135.854,173.503 138.5,174C 140.037,175.11 140.703,176.61 140.5,178.5C 137.474,177.423 134.474,177.423 131.5,178.5C 129.167,185.5 131.5,187.833 138.5,185.5C 141.064,187.019 141.064,188.519 138.5,190C 129.258,191.681 125.091,187.848 126,178.5C 127.707,176.963 129.207,175.296 130.5,173.5 Z"/></g>
<g><path style="opacity:1" fill="#7a7c8e" d="M 172.5,174.5 C 173.568,173.566 174.901,173.232 176.5,173.5C 176.817,177.702 176.483,181.702 175.5,185.5C 175.5,181.833 175.5,178.167 175.5,174.5C 174.5,174.5 173.5,174.5 172.5,174.5 Z"/></g>
<g><path style="opacity:1" fill="#72748a" d="M 154.5,174.5 C 151.167,174.5 147.833,174.5 144.5,174.5C 144.5,179.5 144.5,184.5 144.5,189.5C 145.5,189.5 146.5,189.5 147.5,189.5C 147.5,188.167 147.5,186.833 147.5,185.5C 149.099,185.232 150.432,185.566 151.5,186.5C 150.5,186.5 149.5,186.5 148.5,186.5C 148.5,187.833 148.5,189.167 148.5,190.5C 146.833,190.5 145.167,190.5 143.5,190.5C 143.5,184.833 143.5,179.167 143.5,173.5C 147.371,173.185 151.038,173.518 154.5,174.5 Z"/></g>
<g><path style="opacity:1" fill="#efeff1" d="M 148.5,177.5 C 150.167,177.5 151.833,177.5 153.5,177.5C 153.5,178.833 153.5,180.167 153.5,181.5C 151.833,181.5 150.167,181.5 148.5,181.5C 148.5,180.167 148.5,178.833 148.5,177.5 Z"/></g>
<g><path style="opacity:1" fill="#2e3254" d="M 215.5,174.5 C 213.143,176.098 210.477,177.098 207.5,177.5C 207.5,178.5 207.5,179.5 207.5,180.5C 209.833,180.5 212.167,180.5 214.5,180.5C 214.5,181.5 214.5,182.5 214.5,183.5C 211.941,183.198 209.607,183.532 207.5,184.5C 207.5,185.5 207.5,186.5 207.5,187.5C 210.5,187.5 213.5,187.5 216.5,187.5C 216.5,188.5 216.5,189.5 216.5,190.5C 212.167,190.5 207.833,190.5 203.5,190.5C 203.5,184.833 203.5,179.167 203.5,173.5C 207.702,173.183 211.702,173.517 215.5,174.5 Z"/></g>
<g><path style="opacity:1" fill="#24284b" d="M 100.5,176.5 C 99.0813,177.451 97.4147,177.784 95.5,177.5C 94.5166,181.298 94.1832,185.298 94.5,189.5C 93.5,189.5 92.5,189.5 91.5,189.5C 91.8168,185.298 91.4834,181.298 90.5,177.5C 89.1667,177.5 87.8333,177.5 86.5,177.5C 86.5,176.5 86.5,175.5 86.5,174.5C 91.6186,173.897 96.2853,174.564 100.5,176.5 Z"/></g>
<g><path style="opacity:1" fill="#444765" d="M 80.5,174.5 C 81.1667,194.5 81.8333,194.5 82.5,174.5C 82.8333,174.5 83.1667,174.5 83.5,174.5C 83.5,179.833 83.5,185.167 83.5,190.5C 82.1667,190.5 80.8333,190.5 79.5,190.5C 79.1786,184.974 79.5119,179.64 80.5,174.5 Z"/></g>
<g><path style="opacity:1" fill="#1d2243" d="M 80.5,174.5 C 81.1667,174.5 81.8333,174.5 82.5,174.5C 81.8333,194.5 81.1667,194.5 80.5,174.5 Z"/></g>
<g><path style="opacity:1" fill="#24284b" d="M 105.5,174.5 C 106.403,176.636 107.569,178.636 109,180.5C 110.292,178.751 111.458,176.918 112.5,175C 113.833,174.333 115.167,174.333 116.5,175C 114.948,177.943 113.281,180.777 111.5,183.5C 110.539,185.265 110.205,187.265 110.5,189.5C 109.5,189.5 108.5,189.5 107.5,189.5C 107.784,187.585 107.451,185.919 106.5,184.5C 105.18,181.86 103.847,179.193 102.5,176.5C 102.389,175.883 102.056,175.383 101.5,175C 102.793,174.51 104.127,174.343 105.5,174.5 Z"/></g>
<g><path style="opacity:1" fill="#a9abb8" d="M 148.5,177.5 C 148.5,178.833 148.5,180.167 148.5,181.5C 150.167,181.5 151.833,181.5 153.5,181.5C 151.735,182.461 149.735,182.795 147.5,182.5C 147.216,180.585 147.549,178.919 148.5,177.5 Z"/></g>
<g><path style="opacity:1" fill="#6c6e87" d="M 90.5,177.5 C 91.4834,181.298 91.8168,185.298 91.5,189.5C 92.5,189.5 93.5,189.5 94.5,189.5C 94.1832,185.298 94.5166,181.298 95.5,177.5C 95.5,181.833 95.5,186.167 95.5,190.5C 93.8333,190.5 92.1667,190.5 90.5,190.5C 90.5,186.167 90.5,181.833 90.5,177.5 Z"/></g>
<g><path style="opacity:1" fill="#2c3052" d="M 161.5,174.5 C 162.5,174.5 163.5,174.5 164.5,174.5C 164.185,178.371 164.518,182.038 165.5,185.5C 167.09,187.424 168.924,187.757 171,186.5C 171.176,182.312 171.676,178.312 172.5,174.5C 173.5,174.5 174.5,174.5 175.5,174.5C 175.5,178.167 175.5,181.833 175.5,185.5C 175.141,187.371 174.141,188.871 172.5,190C 169.833,190.667 167.167,190.667 164.5,190C 163.299,189.097 162.465,187.931 162,186.5C 161.501,182.514 161.334,178.514 161.5,174.5 Z"/></g>
<g><path style="opacity:1" fill="#a7a9b6" d="M 214.5,180.5 C 215.434,181.568 215.768,182.901 215.5,184.5C 212.833,184.5 210.167,184.5 207.5,184.5C 209.607,183.532 211.941,183.198 214.5,183.5C 214.5,182.5 214.5,181.5 214.5,180.5 Z"/></g>
<g><path style="opacity:1" fill="#bebec9" d="M 83.5,174.5 C 83.1667,174.5 82.8333,174.5 82.5,174.5C 81.8333,174.5 81.1667,174.5 80.5,174.5C 79.5119,179.64 79.1786,184.974 79.5,190.5C 78.5111,185.025 78.1778,179.358 78.5,173.5C 80.4147,173.216 82.0813,173.549 83.5,174.5 Z"/></g>
<g><path style="opacity:1" fill="#73778a" d="M 179.5,173.5 C 181.167,173.5 182.833,173.5 184.5,173.5C 184.5,179.167 184.5,184.833 184.5,190.5C 182.833,190.5 181.167,190.5 179.5,190.5C 179.5,184.833 179.5,179.167 179.5,173.5 Z"/></g>
<g><path style="opacity:1" fill="#1c2244" d="M 180.5,174.5 C 181.5,174.5 182.5,174.5 183.5,174.5C 183.5,179.5 183.5,184.5 183.5,189.5C 182.5,189.5 181.5,189.5 180.5,189.5C 180.5,184.5 180.5,179.5 180.5,174.5 Z"/></g>
<g><path style="opacity:1" fill="#707289" d="M 111.5,183.5 C 111.5,185.833 111.5,188.167 111.5,190.5C 109.833,190.5 108.167,190.5 106.5,190.5C 106.5,188.5 106.5,186.5 106.5,184.5C 107.451,185.919 107.784,187.585 107.5,189.5C 108.5,189.5 109.5,189.5 110.5,189.5C 110.205,187.265 110.539,185.265 111.5,183.5 Z"/></g>
<g><path style="opacity:1" fill="#9395a8" d="M 195.5,184.5 C 196.404,185.209 196.737,186.209 196.5,187.5C 194.5,187.5 192.5,187.5 190.5,187.5C 190.5,187.167 190.5,186.833 190.5,186.5C 192.781,186.923 194.448,186.256 195.5,184.5 Z"/></g>
<g><path style="opacity:1" fill="#484e6a" d="M 190.5,186.5 C 190.5,186.833 190.5,187.167 190.5,187.5C 189.761,187.369 189.094,187.536 188.5,188C 191.278,189.392 194.278,189.892 197.5,189.5C 194.696,190.638 191.696,190.805 188.5,190C 187.253,188.506 187.253,187.006 188.5,185.5C 189.183,185.863 189.85,186.196 190.5,186.5 Z"/></g>
<g><path style="opacity:1" fill="#adafbb" d="M 102.5,197.5 C 100.5,196.167 98.5,196.167 96.5,197.5C 95.9569,197.44 95.6236,197.107 95.5,196.5C 98.1667,195.167 100.833,195.167 103.5,196.5C 103.376,197.107 103.043,197.44 102.5,197.5 Z"/></g>
<g><path style="opacity:1" fill="#717288" d="M 115.5,196.5 C 122.241,195.115 124.074,197.782 121,204.5C 120.283,203.956 119.783,203.289 119.5,202.5C 120.338,202.158 120.672,201.492 120.5,200.5C 120.5,199.5 120.5,198.5 120.5,197.5C 119.5,197.5 118.5,197.5 117.5,197.5C 117.158,196.662 116.492,196.328 115.5,196.5 Z"/></g>
<g><path style="opacity:1" fill="#5e5e77" d="M 161.5,196.5 C 163.527,196.338 165.527,196.505 167.5,197C 170.192,199.632 169.859,201.966 166.5,204C 161.293,204.117 159.626,201.617 161.5,196.5 Z"/></g>
<g><path style="opacity:1" fill="#54556f" d="M 86.5,196.5 C 88.6237,197.031 90.1237,198.365 91,200.5C 91.2189,199.062 91.7189,197.729 92.5,196.5C 93.8333,199.167 93.8333,201.833 92.5,204.5C 91.0095,202.874 89.5095,201.208 88,199.5C 87.6667,200.833 87.3333,202.167 87,203.5C 86.5034,201.19 86.3367,198.857 86.5,196.5 Z"/></g>
<g><path style="opacity:1" fill="#61627b" d="M 138.5,196.5 C 141.989,197.463 143.489,199.797 143,203.5C 140.733,202.065 138.733,202.398 137,204.5C 136.572,201.678 137.072,199.012 138.5,196.5 Z"/></g>
<g><path style="opacity:1" fill="#5f6279" d="M 96.5,197.5 C 98.5,196.167 100.5,196.167 102.5,197.5C 100.964,199.025 99.9642,201.025 99.5,203.5C 99.0358,201.025 98.0358,199.025 96.5,197.5 Z"/></g>
<g><path style="opacity:1" fill="#4a4b68" d="M 150.5,197.5 C 149.833,199.5 149.167,201.5 148.5,203.5C 148.917,200.921 148.25,198.754 146.5,197C 148.743,196.203 150.077,196.37 150.5,197.5 Z"/></g>
<g><path style="opacity:1" fill="#707286" d="M 155.5,196.5 C 156.725,197.152 157.392,198.319 157.5,200C 157.167,201.167 156.833,202.333 156.5,203.5C 155.526,201.257 155.192,198.924 155.5,196.5 Z"/></g>
<g><path style="opacity:1" fill="#e5e4e8" d="M 163.5,197.5 C 167.161,197.35 168.161,198.85 166.5,202C 162.707,202.487 161.707,200.987 163.5,197.5 Z"/></g>
<g><path style="opacity:1" fill="#63647c" d="M 172.5,196.5 C 174.371,196.859 175.871,197.859 177,199.5C 177.249,198.376 177.749,197.376 178.5,196.5C 179.833,198.833 179.833,201.167 178.5,203.5C 177.186,202.687 176.019,201.687 175,200.5C 174.751,201.624 174.251,202.624 173.5,203.5C 172.526,201.257 172.192,198.924 172.5,196.5 Z"/></g>
<g><path style="opacity:1" fill="#7e8193" d="M 80.5,196.5 C 81.7479,197.334 82.4146,198.667 82.5,200.5C 82.1667,201.833 81.8333,203.167 81.5,204.5C 80.52,201.914 80.1866,199.247 80.5,196.5 Z"/></g>
<g><path style="opacity:1" fill="#484a65" d="M 115.5,196.5 C 116.492,196.328 117.158,196.662 117.5,197.5C 118.5,197.5 119.5,197.5 120.5,197.5C 120.5,198.5 120.5,199.5 120.5,200.5C 120.672,201.492 120.338,202.158 119.5,202.5C 118.207,201.355 117.041,201.689 116,203.5C 115.503,201.19 115.337,198.857 115.5,196.5 Z"/></g>
<g><path style="opacity:1" fill="#c3c2cc" d="M 117.5,197.5 C 118.5,197.5 119.5,197.5 120.5,197.5C 120.5,198.5 120.5,199.5 120.5,200.5C 119.5,200.5 118.5,200.5 117.5,200.5C 117.5,199.5 117.5,198.5 117.5,197.5 Z"/></g>
<g><path style="opacity:1" fill="#62627c" d="M 105.5,196.5 C 107.527,196.338 109.527,196.505 111.5,197C 106.167,198 106.167,199 111.5,200C 106.27,200.909 106.27,202.075 111.5,203.5C 109.647,204.76 107.814,204.76 106,203.5C 105.503,201.19 105.337,198.857 105.5,196.5 Z"/></g>
<g><path style="opacity:1" fill="#54556f" d="M 125.5,196.5 C 127.716,197.203 129.549,198.536 131,200.5C 131.333,199.167 131.667,197.833 132,196.5C 132.814,198.902 132.647,201.235 131.5,203.5C 130.108,202.395 128.941,201.061 128,199.5C 127.781,200.938 127.281,202.271 126.5,203.5C 125.526,201.257 125.192,198.924 125.5,196.5 Z"/></g>
<g><path style="opacity:1" fill="#acaeb9" d="M 150.5,197.5 C 150.808,199.924 150.474,202.257 149.5,204.5C 148.893,204.376 148.56,204.043 148.5,203.5C 149.167,201.5 149.833,199.5 150.5,197.5 Z"/></g>
<g><path style="opacity:1" fill="#b5b6c0" d="M 194.5,196.5 C 194.56,195.957 194.893,195.624 195.5,195.5C 196.466,197.396 196.799,199.396 196.5,201.5C 197.5,201.5 198.5,201.5 199.5,201.5C 199.5,202.5 199.5,203.5 199.5,204.5C 197.5,204.5 195.5,204.5 193.5,204.5C 193.194,201.615 193.527,198.948 194.5,196.5 Z"/></g>
<g><path style="opacity:1" fill="#4f4e6a" d="M 194.5,196.5 C 195.461,198.265 195.795,200.265 195.5,202.5C 199.172,203.045 198.838,203.378 194.5,203.5C 194.5,201.167 194.5,198.833 194.5,196.5 Z"/></g>
<g><path style="opacity:1" fill="#65657e" d="M 185.5,196.5 C 188.389,197.049 190.056,198.882 190.5,202C 190.167,202.5 189.833,203 189.5,203.5C 187.629,202.233 185.796,202.233 184,203.5C 183.391,200.935 183.891,198.601 185.5,196.5 Z"/></g>
</svg>
