<?xml version="1.0" encoding="UTF-8"?>
<!DOCTYPE svg PUBLIC "-//W3C//DTD SVG 1.1//EN" "http://www.w3.org/Graphics/SVG/1.1/DTD/svg11.dtd">
<svg xmlns="http://www.w3.org/2000/svg" version="1.1" width="267px" height="265px" style="shape-rendering:geometricPrecision; text-rendering:geometricPrecision; image-rendering:optimizeQuality; fill-rule:evenodd; clip-rule:evenodd" xmlns:xlink="http://www.w3.org/1999/xlink">
<g><path style="opacity:1" fill="#f9f9f9" d="M -0.5,-0.5 C 88.5,-0.5 177.5,-0.5 266.5,-0.5C 266.5,87.8333 266.5,176.167 266.5,264.5C 177.5,264.5 88.5,264.5 -0.5,264.5C -0.5,176.167 -0.5,87.8333 -0.5,-0.5 Z"/></g>
<g><path style="opacity:1" fill="#1f1e47" d="M 131.5,88.5 C 129.631,86.3647 128.964,83.6981 129.5,80.5C 127.208,80.2436 125.041,80.5769 123,81.5C 122.501,85.1516 122.335,88.8183 122.5,92.5C 120.167,94.5 117.833,96.5 115.5,98.5C 114.732,97.7375 114.232,96.7375 114,95.5C 112.111,96.0974 110.278,96.4307 108.5,96.5C 106.506,99.1498 105.506,102.15 105.5,105.5C 98.607,105.243 95.9404,108.576 97.5,115.5C 95.744,114.448 95.0773,112.781 95.5,110.5C 98.6977,91.4672 109.698,79.6339 128.5,75C 141.838,73.063 153.838,76.063 164.5,84C 166.211,85.1332 166.711,86.6332 166,88.5C 162.333,90.8333 159.333,93.8333 157,97.5C 150.095,90.2092 141.595,87.2092 131.5,88.5 Z"/></g>
<g><path style="opacity:1" fill="#224277" d="M 131.5,88.5 C 131.158,89.3382 130.492,89.6716 129.5,89.5C 127.938,87.6283 126.938,85.2949 126.5,82.5C 125.322,85.3908 124.655,88.3908 124.5,91.5C 123.833,91.8333 123.167,92.1667 122.5,92.5C 122.335,88.8183 122.501,85.1516 123,81.5C 125.041,80.5769 127.208,80.2436 129.5,80.5C 128.964,83.6981 129.631,86.3647 131.5,88.5 Z"/></g>
<g><path style="opacity:1" fill="#8cbbd4" d="M 129.5,89.5 C 129.167,90.1667 128.833,90.8333 128.5,91.5C 127.883,91.3893 127.383,91.056 127,90.5C 126.878,92.437 126.045,93.7703 124.5,94.5C 125.625,93.3478 125.625,92.3478 124.5,91.5C 124.655,88.3908 125.322,85.3908 126.5,82.5C 126.938,85.2949 127.938,87.6283 129.5,89.5 Z"/></g>
<g><path style="opacity:1" fill="#e4ebf0" d="M 124.5,91.5 C 125.625,92.3478 125.625,93.3478 124.5,94.5C 124.5,98.5 124.5,102.5 124.5,106.5C 123.5,106.5 122.5,106.5 121.5,106.5C 121.784,108.415 121.451,110.081 120.5,111.5C 120.66,109.801 120.494,108.134 120,106.5C 119.577,105.044 118.744,104.544 117.5,105C 116.549,108.057 116.216,111.223 116.5,114.5C 115.717,110.307 115.051,105.973 114.5,101.5C 114.5,101.167 114.5,100.833 114.5,100.5C 115.338,100.158 115.672,99.4916 115.5,98.5C 117.833,96.5 120.167,94.5 122.5,92.5C 123.167,92.1667 123.833,91.8333 124.5,91.5 Z"/></g>
<g><path style="opacity:1" fill="#25407e" d="M 114.5,100.5 C 114.5,100.833 114.5,101.167 114.5,101.5C 113.25,101.423 112.417,100.756 112,99.5C 111.517,100.448 111.351,101.448 111.5,102.5C 110.5,102.5 109.5,102.5 108.5,102.5C 108.813,105.247 108.48,107.914 107.5,110.5C 105.477,108.827 103.144,108.16 100.5,108.5C 102.607,107.532 104.941,107.198 107.5,107.5C 107.337,105.143 107.503,102.81 108,100.5C 110.243,97.8862 112.41,97.8862 114.5,100.5 Z"/></g>
<g><path style="opacity:1" fill="#1a2155" d="M 115.5,98.5 C 115.672,99.4916 115.338,100.158 114.5,100.5C 112.41,97.8862 110.243,97.8862 108,100.5C 107.503,102.81 107.337,105.143 107.5,107.5C 104.941,107.198 102.607,107.532 100.5,108.5C 100.083,111.159 99.0826,113.492 97.5,115.5C 95.9404,108.576 98.607,105.243 105.5,105.5C 105.506,102.15 106.506,99.1498 108.5,96.5C 110.278,96.4307 112.111,96.0974 114,95.5C 114.232,96.7375 114.732,97.7375 115.5,98.5 Z"/></g>
<g><path style="opacity:1" fill="#40abd8" d="M 149.5,107.5 C 147.261,109.205 144.761,110.538 142,111.5C 141.667,110.167 141.333,108.833 141,107.5C 140.623,108.942 139.79,109.942 138.5,110.5C 138.5,105.833 138.5,101.167 138.5,96.5C 140.144,96.2865 141.644,96.6198 143,97.5C 143.333,101.167 143.667,104.833 144,108.5C 144.495,106.527 144.662,104.527 144.5,102.5C 146.167,102.5 147.833,102.5 149.5,102.5C 149.5,104.167 149.5,105.833 149.5,107.5 Z"/></g>
<g><path style="opacity:1" fill="#2885ba" d="M 138.5,110.5 C 139.79,109.942 140.623,108.942 141,107.5C 141.333,108.833 141.667,110.167 142,111.5C 144.761,110.538 147.261,109.205 149.5,107.5C 150.11,109.85 150.444,109.517 150.5,106.5C 151.5,106.5 152.5,106.5 153.5,106.5C 153.34,108.199 153.506,109.866 154,111.5C 154.483,110.552 154.649,109.552 154.5,108.5C 155.833,108.5 157.167,108.5 158.5,108.5C 158.285,110.179 158.952,111.179 160.5,111.5C 160.423,112.75 159.756,113.583 158.5,114C 152.157,114.835 145.824,115.669 139.5,116.5C 140.058,115.21 141.058,114.377 142.5,114C 140.26,113.023 137.927,112.523 135.5,112.5C 134.245,106.793 132.912,106.46 131.5,111.5C 131.273,106.902 132.106,102.568 134,98.5C 136.134,102.947 137.634,106.947 138.5,110.5 Z"/></g>
<g><path style="opacity:1" fill="#1d5691" d="M 120.5,111.5 C 120.56,112.043 120.893,112.376 121.5,112.5C 122.452,110.955 122.785,109.288 122.5,107.5C 124.144,107.286 125.644,107.62 127,108.5C 128.4,111.902 130.567,114.736 133.5,117C 132.944,117.383 132.611,117.883 132.5,118.5C 129.746,119.641 127.079,120.975 124.5,122.5C 123.833,122.5 123.167,122.5 122.5,122.5C 122.414,121.504 122.748,120.671 123.5,120C 121.951,118.786 120.785,117.286 120,115.5C 118.855,114.316 117.688,114.316 116.5,115.5C 116.5,115.167 116.5,114.833 116.5,114.5C 116.216,111.223 116.549,108.057 117.5,105C 118.744,104.544 119.577,105.044 120,106.5C 120.494,108.134 120.66,109.801 120.5,111.5 Z"/></g>
<g><path style="opacity:1" fill="#2071a6" d="M 128.5,91.5 C 129.117,91.6107 129.617,91.944 130,92.5C 130.172,99.0133 130.672,105.347 131.5,111.5C 132.912,106.46 134.245,106.793 135.5,112.5C 137.927,112.523 140.26,113.023 142.5,114C 141.058,114.377 140.058,115.21 139.5,116.5C 139.158,117.338 138.492,117.672 137.5,117.5C 135.883,118.038 134.216,118.371 132.5,118.5C 132.611,117.883 132.944,117.383 133.5,117C 130.567,114.736 128.4,111.902 127,108.5C 125.644,107.62 124.144,107.286 122.5,107.5C 122.785,109.288 122.452,110.955 121.5,112.5C 120.893,112.376 120.56,112.043 120.5,111.5C 121.451,110.081 121.784,108.415 121.5,106.5C 122.5,106.5 123.5,106.5 124.5,106.5C 124.5,102.5 124.5,98.5 124.5,94.5C 126.045,93.7703 126.878,92.437 127,90.5C 127.383,91.056 127.883,91.3893 128.5,91.5 Z"/></g>
<g><path style="opacity:1" fill="#a4b2cc" d="M 114.5,101.5 C 115.051,105.973 115.717,110.307 116.5,114.5C 116.5,114.833 116.5,115.167 116.5,115.5C 114.586,112.316 113.92,108.649 114.5,104.5C 113.167,104.5 111.833,104.5 110.5,104.5C 110.5,107.167 110.5,109.833 110.5,112.5C 108.824,113.183 108.157,114.517 108.5,116.5C 107.5,116.5 106.5,116.5 105.5,116.5C 105.5,114.5 105.5,112.5 105.5,110.5C 104.167,110.5 102.833,110.5 101.5,110.5C 101.5,112.833 101.5,115.167 101.5,117.5C 99.6907,118.291 97.6907,118.291 95.5,117.5C 95.5045,121.534 95.8379,125.534 96.5,129.5C 95.7321,128.737 95.2321,127.737 95,126.5C 94.5017,123.183 94.335,119.85 94.5,116.5C 96.5,116.5 98.5,116.5 100.5,116.5C 100.5,113.833 100.5,111.167 100.5,108.5C 103.144,108.16 105.477,108.827 107.5,110.5C 108.48,107.914 108.813,105.247 108.5,102.5C 109.5,102.5 110.5,102.5 111.5,102.5C 111.351,101.448 111.517,100.448 112,99.5C 112.417,100.756 113.25,101.423 114.5,101.5 Z"/></g>
<g><path style="opacity:1" fill="#4d5385" d="M 100.5,108.5 C 100.5,111.167 100.5,113.833 100.5,116.5C 98.5,116.5 96.5,116.5 94.5,116.5C 94.2053,114.265 94.5386,112.265 95.5,110.5C 95.0773,112.781 95.744,114.448 97.5,115.5C 99.0826,113.492 100.083,111.159 100.5,108.5 Z"/></g>
<g><path style="opacity:1" fill="#1d3d7f" d="M 116.5,115.5 C 117.688,114.316 118.855,114.316 120,115.5C 120.785,117.286 121.951,118.786 123.5,120C 122.748,120.671 122.414,121.504 122.5,122.5C 120.249,123.695 117.915,124.695 115.5,125.5C 114.099,121.036 112.432,116.703 110.5,112.5C 110.5,109.833 110.5,107.167 110.5,104.5C 111.833,104.5 113.167,104.5 114.5,104.5C 113.92,108.649 114.586,112.316 116.5,115.5 Z"/></g>
<g><path style="opacity:1" fill="#87b7d5" d="M 160.5,111.5 C 161.404,112.209 161.737,113.209 161.5,114.5C 162.873,114.343 164.207,114.51 165.5,115C 163.753,115.352 162.086,115.852 160.5,116.5C 154.055,115.515 147.722,116.181 141.5,118.5C 139.901,118.768 138.568,118.434 137.5,117.5C 138.492,117.672 139.158,117.338 139.5,116.5C 145.824,115.669 152.157,114.835 158.5,114C 159.756,113.583 160.423,112.75 160.5,111.5 Z"/></g>
<g><path style="opacity:1" fill="#21276b" d="M 110.5,112.5 C 112.432,116.703 114.099,121.036 115.5,125.5C 113.343,127.412 111.009,129.079 108.5,130.5C 108.866,126.38 108.866,122.88 108.5,120C 106.35,118.589 104.016,117.755 101.5,117.5C 101.5,115.167 101.5,112.833 101.5,110.5C 102.833,110.5 104.167,110.5 105.5,110.5C 105.5,112.5 105.5,114.5 105.5,116.5C 106.5,116.5 107.5,116.5 108.5,116.5C 108.157,114.517 108.824,113.183 110.5,112.5 Z"/></g>
<g><path style="opacity:1" fill="#678ab3" d="M 137.5,117.5 C 138.568,118.434 139.901,118.768 141.5,118.5C 137.349,119.773 133.349,121.44 129.5,123.5C 127.181,123.992 125.181,124.992 123.5,126.5C 121.02,127.242 118.687,128.242 116.5,129.5C 117.167,128.5 117.833,127.5 118.5,126.5C 120.5,125.167 122.5,123.833 124.5,122.5C 127.079,120.975 129.746,119.641 132.5,118.5C 134.216,118.371 135.883,118.038 137.5,117.5 Z"/></g>
<g><path style="opacity:1" fill="#28679d" d="M 141.5,118.5 C 142.978,118.238 144.311,118.571 145.5,119.5C 142.506,122.16 139.506,124.827 136.5,127.5C 136.578,124.513 135.411,123.847 133,125.5C 131.923,124.571 130.756,123.904 129.5,123.5C 133.349,121.44 137.349,119.773 141.5,118.5 Z"/></g>
<g><path style="opacity:1" fill="#5c91bb" d="M 160.5,116.5 C 152.65,118.09 145.983,121.757 140.5,127.5C 139.671,126.668 138.838,127.001 138,128.5C 137.503,130.81 137.337,133.143 137.5,135.5C 136.833,133.833 136.167,132.167 135.5,130.5C 136.11,129.609 136.443,128.609 136.5,127.5C 139.506,124.827 142.506,122.16 145.5,119.5C 144.311,118.571 142.978,118.238 141.5,118.5C 147.722,116.181 154.055,115.515 160.5,116.5 Z"/></g>
<g><path style="opacity:1" fill="#1c1b46" d="M 101.5,117.5 C 104.016,117.755 106.35,118.589 108.5,120C 108.866,122.88 108.866,126.38 108.5,130.5C 105.896,132.6 103.396,134.933 101,137.5C 100.617,136.944 100.117,136.611 99.5,136.5C 99.0652,133.843 98.0652,131.509 96.5,129.5C 95.8379,125.534 95.5045,121.534 95.5,117.5C 97.6907,118.291 99.6907,118.291 101.5,117.5 Z"/></g>
<g><path style="opacity:1" fill="#204a85" d="M 129.5,123.5 C 130.756,123.904 131.923,124.571 133,125.5C 135.411,123.847 136.578,124.513 136.5,127.5C 136.443,128.609 136.11,129.609 135.5,130.5C 135.5,132.167 135.5,133.833 135.5,135.5C 134.766,134.122 134.099,132.622 133.5,131C 132.069,130.535 130.903,129.701 130,128.5C 129.617,129.056 129.117,129.389 128.5,129.5C 128.565,129.062 128.399,128.728 128,128.5C 127.292,129.381 126.458,130.047 125.5,130.5C 125.771,128.62 125.104,127.287 123.5,126.5C 125.181,124.992 127.181,123.992 129.5,123.5 Z"/></g>
<g><path style="opacity:1" fill="#1e2f6e" d="M 123.5,126.5 C 125.104,127.287 125.771,128.62 125.5,130.5C 126.779,131.715 127.779,131.382 128.5,129.5C 129.117,129.389 129.617,129.056 130,128.5C 130.903,129.701 132.069,130.535 133.5,131C 134.099,132.622 134.766,134.122 135.5,135.5C 136.986,139.137 138.986,142.47 141.5,145.5C 140.167,145.5 138.833,145.5 137.5,145.5C 137.657,144.127 137.49,142.793 137,141.5C 136.586,141.957 136.086,142.291 135.5,142.5C 131.81,141.16 128.143,139.826 124.5,138.5C 124.728,136.645 124.061,135.812 122.5,136C 121.594,137.699 121.261,139.533 121.5,141.5C 122.5,141.5 123.5,141.5 124.5,141.5C 124.158,142.338 123.492,142.672 122.5,142.5C 120.142,140.128 117.475,137.961 114.5,136C 113.748,135.329 113.414,134.496 113.5,133.5C 114.5,132.167 115.5,130.833 116.5,129.5C 118.687,128.242 121.02,127.242 123.5,126.5 Z"/></g>
<g><path style="opacity:1" fill="#a3b0c7" d="M 128.5,129.5 C 127.779,131.382 126.779,131.715 125.5,130.5C 126.458,130.047 127.292,129.381 128,128.5C 128.399,128.728 128.565,129.062 128.5,129.5 Z"/></g>
<g><path style="opacity:1" fill="#37528b" d="M 140.5,127.5 C 138.977,131.882 139.644,135.882 142.5,139.5C 141.508,139.328 140.842,139.662 140.5,140.5C 138.75,139.341 137.75,137.674 137.5,135.5C 137.337,133.143 137.503,130.81 138,128.5C 138.838,127.001 139.671,126.668 140.5,127.5 Z"/></g>
<g><path style="opacity:1" fill="#a3a4bb" d="M 122.5,122.5 C 123.167,122.5 123.833,122.5 124.5,122.5C 122.5,123.833 120.5,125.167 118.5,126.5C 111.61,129.39 106.276,134.057 102.5,140.5C 101.122,139.455 100.122,138.122 99.5,136.5C 100.117,136.611 100.617,136.944 101,137.5C 103.396,134.933 105.896,132.6 108.5,130.5C 111.009,129.079 113.343,127.412 115.5,125.5C 117.915,124.695 120.249,123.695 122.5,122.5 Z"/></g>
<g><path style="opacity:1" fill="#21204b" d="M 113.5,133.5 C 113.414,134.496 113.748,135.329 114.5,136C 117.475,137.961 120.142,140.128 122.5,142.5C 123.6,143.558 124.934,144.392 126.5,145C 130.339,145.459 134.172,145.959 138,146.5C 139.385,146.486 140.551,146.152 141.5,145.5C 146.641,148.052 151.308,151.052 155.5,154.5C 150.918,155.955 146.251,157.122 141.5,158C 138.5,158.667 135.5,158.667 132.5,158C 130.306,155.305 128.306,152.472 126.5,149.5C 125.311,148.571 123.978,148.238 122.5,148.5C 122.586,150.677 123.253,152.677 124.5,154.5C 123.277,155.614 121.944,155.781 120.5,155C 113.355,152.68 108.355,148.18 105.5,141.5C 107.806,138.527 110.473,135.86 113.5,133.5 Z"/></g>
<g><path style="opacity:1" fill="#393762" d="M 118.5,126.5 C 117.833,127.5 117.167,128.5 116.5,129.5C 111.569,132.095 107.569,135.762 104.5,140.5C 103.833,141.833 103.167,141.833 102.5,140.5C 106.276,134.057 111.61,129.39 118.5,126.5 Z"/></g>
<g><path style="opacity:1" fill="#22214d" d="M 157.5,152.5 C 153.434,150.631 149.434,148.464 145.5,146C 143.627,144.296 141.96,142.463 140.5,140.5C 140.842,139.662 141.508,139.328 142.5,139.5C 143.191,141.022 144.358,142.022 146,142.5C 150.08,140.387 153.913,138.221 157.5,136C 160.683,139.015 163.683,142.182 166.5,145.5C 164.344,148.998 161.344,151.331 157.5,152.5 Z"/></g>
<g><path style="opacity:1" fill="#9fa0b5" d="M 116.5,129.5 C 115.5,130.833 114.5,132.167 113.5,133.5C 110.473,135.86 107.806,138.527 105.5,141.5C 105.5,140.833 105.167,140.5 104.5,140.5C 107.569,135.762 111.569,132.095 116.5,129.5 Z"/></g>
<g><path style="opacity:1" fill="#cdceda" d="M 124.5,138.5 C 124.5,139.5 124.5,140.5 124.5,141.5C 123.5,141.5 122.5,141.5 121.5,141.5C 121.261,139.533 121.594,137.699 122.5,136C 124.061,135.812 124.728,136.645 124.5,138.5 Z"/></g>
<g><path style="opacity:1" fill="#1a1b5b" d="M 124.5,138.5 C 128.143,139.826 131.81,141.16 135.5,142.5C 136.086,142.291 136.586,141.957 137,141.5C 137.49,142.793 137.657,144.127 137.5,145.5C 138.833,145.5 140.167,145.5 141.5,145.5C 140.551,146.152 139.385,146.486 138,146.5C 134.172,145.959 130.339,145.459 126.5,145C 124.934,144.392 123.6,143.558 122.5,142.5C 123.492,142.672 124.158,142.338 124.5,141.5C 124.5,140.5 124.5,139.5 124.5,138.5 Z"/></g>
<g><path style="opacity:1" fill="#babaca" d="M 135.5,130.5 C 136.167,132.167 136.833,133.833 137.5,135.5C 137.75,137.674 138.75,139.341 140.5,140.5C 141.96,142.463 143.627,144.296 145.5,146C 149.434,148.464 153.434,150.631 157.5,152.5C 156.833,153.167 156.167,153.833 155.5,154.5C 151.308,151.052 146.641,148.052 141.5,145.5C 138.986,142.47 136.986,139.137 135.5,135.5C 135.5,133.833 135.5,132.167 135.5,130.5 Z"/></g>
<g><path style="opacity:1" fill="#403b5f" d="M 107.5,178.5 C 106.549,179.919 106.216,181.585 106.5,183.5C 105.5,183.5 104.5,183.5 103.5,183.5C 104.021,179.281 102.854,175.614 100,172.5C 97.9734,172.014 95.8067,172.014 93.5,172.5C 93.5,176.167 93.5,179.833 93.5,183.5C 92.1667,183.5 90.8333,183.5 89.5,183.5C 89.5,179.833 89.5,176.167 89.5,172.5C 88.1667,172.5 86.8333,172.5 85.5,172.5C 85.5,171.5 85.5,170.5 85.5,169.5C 91.2055,169.171 96.8722,169.505 102.5,170.5C 103.026,172.23 104.026,173.564 105.5,174.5C 106.941,173.135 108.274,171.635 109.5,170C 110.5,169.333 111.5,169.333 112.5,170C 110.444,172.614 108.777,175.447 107.5,178.5 Z"/></g>
<g><path style="opacity:1" fill="#39355c" d="M 123.5,169.5 C 126.187,169.336 128.854,169.503 131.5,170C 134.044,171.099 134.044,172.265 131.5,173.5C 124.106,171.726 122.106,174.226 125.5,181C 127.713,181.626 129.88,181.459 132,180.5C 133.826,181.01 133.993,181.844 132.5,183C 123.372,185.544 119.538,182.044 121,172.5C 122.045,171.627 122.878,170.627 123.5,169.5 Z"/></g>
<g><path style="opacity:1" fill="#302d54" d="M 67.5,169.5 C 69.8568,169.337 72.1902,169.503 74.5,170C 76.4054,170.826 76.7388,171.993 75.5,173.5C 73.2324,172.456 70.8991,172.289 68.5,173C 65.7348,175.966 66.0682,178.633 69.5,181C 71.3774,181.576 73.2108,181.409 75,180.5C 76.8261,181.01 76.9928,181.844 75.5,183C 66.7356,185.56 62.9023,182.393 64,173.5C 65.0319,171.973 66.1986,170.64 67.5,169.5 Z"/></g>
<g><path style="opacity:1" fill="#3d395f" d="M 176.5,169.5 C 179.5,169.5 182.5,169.5 185.5,169.5C 185.5,170.5 185.5,171.5 185.5,172.5C 183.076,172.192 180.743,172.526 178.5,173.5C 180.682,175.294 183.182,176.627 186,177.5C 186.626,181.885 184.626,184.219 180,184.5C 177.63,184.4 175.797,183.4 174.5,181.5C 177.044,181.051 179.71,181.051 182.5,181.5C 182.5,180.5 182.5,179.5 182.5,178.5C 175.381,178.433 173.381,175.433 176.5,169.5 Z"/></g>
<g><path style="opacity:1" fill="#63627f" d="M 82.5,183.5 C 81.8333,166.167 81.1667,166.167 80.5,183.5C 79.5139,179.03 79.1805,174.363 79.5,169.5C 80.8333,169.5 82.1667,169.5 83.5,169.5C 83.8195,174.363 83.4861,179.03 82.5,183.5 Z"/></g>
<g><path style="opacity:1" fill="#26224b" d="M 82.5,183.5 C 81.8333,183.5 81.1667,183.5 80.5,183.5C 81.1667,166.167 81.8333,166.167 82.5,183.5 Z"/></g>
<g><path style="opacity:1" fill="#343157" d="M 168.5,169.5 C 169.5,169.5 170.5,169.5 171.5,169.5C 171.5,174.167 171.5,178.833 171.5,183.5C 170.5,183.5 169.5,183.5 168.5,183.5C 168.5,178.833 168.5,174.167 168.5,169.5 Z"/></g>
<g><path style="opacity:1" fill="#302c55" d="M 189.5,169.5 C 192.833,169.5 196.167,169.5 199.5,169.5C 199.5,170.5 199.5,171.5 199.5,172.5C 197.167,172.5 194.833,172.5 192.5,172.5C 192.5,173.5 192.5,174.5 192.5,175.5C 195.082,175.025 197.082,175.692 198.5,177.5C 196.5,177.5 194.5,177.5 192.5,177.5C 192.5,178.833 192.5,180.167 192.5,181.5C 194.833,181.5 197.167,181.5 199.5,181.5C 196.663,183.402 193.329,184.069 189.5,183.5C 189.5,178.833 189.5,174.167 189.5,169.5 Z"/></g>
<g><path style="opacity:1" fill="#322d55" d="M 136.5,169.5 C 140.584,169.043 144.417,169.71 148,171.5C 148.895,174.466 148.395,177.133 146.5,179.5C 147.04,180.748 147.707,181.915 148.5,183C 146.051,183.775 144.384,182.942 143.5,180.5C 142.311,179.571 140.978,179.238 139.5,179.5C 139.5,180.833 139.5,182.167 139.5,183.5C 138.5,183.5 137.5,183.5 136.5,183.5C 136.5,178.833 136.5,174.167 136.5,169.5 Z"/></g>
<g><path style="opacity:1" fill="#d5d4dc" d="M 139.5,172.5 C 141.199,172.34 142.866,172.506 144.5,173C 145.833,174.333 145.833,175.667 144.5,177C 142.866,177.494 141.199,177.66 139.5,177.5C 139.5,175.833 139.5,174.167 139.5,172.5 Z"/></g>
<g><path style="opacity:1" fill="#39355b" d="M 151.5,169.5 C 152.833,169.5 154.167,169.5 155.5,169.5C 155.335,173.182 155.501,176.848 156,180.5C 157.938,181.86 159.604,181.527 161,179.5C 161.498,176.183 161.665,172.85 161.5,169.5C 162.5,169.5 163.5,169.5 164.5,169.5C 164.666,173.514 164.499,177.514 164,181.5C 159.615,185.756 155.615,185.423 152,180.5C 151.501,176.848 151.335,173.182 151.5,169.5 Z"/></g>
<g><path style="opacity:1" fill="#c2c2cc" d="M 198.5,177.5 C 197.048,178.302 195.382,178.802 193.5,179C 196.361,178.97 198.695,179.803 200.5,181.5C 200.167,181.5 199.833,181.5 199.5,181.5C 197.167,181.5 194.833,181.5 192.5,181.5C 192.5,180.167 192.5,178.833 192.5,177.5C 194.5,177.5 196.5,177.5 198.5,177.5 Z"/></g>
<g><path style="opacity:1" fill="#9c9bad" d="M 107.5,178.5 C 107.5,180.5 107.5,182.5 107.5,184.5C 105.901,184.768 104.568,184.434 103.5,183.5C 104.5,183.5 105.5,183.5 106.5,183.5C 106.216,181.585 106.549,179.919 107.5,178.5 Z"/></g>
<g><path style="opacity:1" fill="#9191a5" d="M 189.5,169.5 C 189.5,174.167 189.5,178.833 189.5,183.5C 193.329,184.069 196.663,183.402 199.5,181.5C 199.833,181.5 200.167,181.5 200.5,181.5C 200.5,182.5 200.5,183.5 200.5,184.5C 196.5,184.5 192.5,184.5 188.5,184.5C 188.179,179.305 188.513,174.305 189.5,169.5 Z"/></g>
<g><path style="opacity:1" fill="#6f6c88" d="M 137.5,188.5 C 139.199,188.34 140.866,188.506 142.5,189C 140.926,190.826 140.093,192.993 140,195.5C 139.552,192.969 138.719,190.636 137.5,188.5 Z"/></g>
<g><path style="opacity:1" fill="#716c87" d="M 86.5,188.5 C 88.371,188.859 89.871,189.859 91,191.5C 91.2492,190.376 91.7492,189.376 92.5,188.5C 93.8333,190.833 93.8333,193.167 92.5,195.5C 91.1861,194.687 90.0195,193.687 89,192.5C 88.7508,193.624 88.2508,194.624 87.5,195.5C 86.5258,193.257 86.1924,190.924 86.5,188.5 Z"/></g>
<g><path style="opacity:1" fill="#726d8a" d="M 95.5,188.5 C 97.1992,188.34 98.8659,188.506 100.5,189C 99.8875,191.147 99.2208,193.314 98.5,195.5C 97.5927,193.061 96.5927,190.728 95.5,188.5 Z"/></g>
<g><path style="opacity:1" fill="#67607f" d="M 103.5,188.5 C 105.288,188.215 106.955,188.548 108.5,189.5C 104.639,190.598 104.639,191.431 108.5,192C 104.5,193 104.5,194 108.5,195C 106.866,195.494 105.199,195.66 103.5,195.5C 103.5,193.167 103.5,190.833 103.5,188.5 Z"/></g>
<g><path style="opacity:1" fill="#676380" d="M 131.5,188.5 C 134.243,189.985 135.409,192.318 135,195.5C 133.333,194.167 131.667,194.167 130,195.5C 129.761,193.041 130.261,190.707 131.5,188.5 Z"/></g>
<g><path style="opacity:1" fill="#645e7e" d="M 170.5,188.5 C 171.496,188.414 172.329,188.748 173,189.5C 173.402,190.872 173.902,192.205 174.5,193.5C 172.659,194.23 170.825,194.897 169,195.5C 168.865,193.078 169.365,190.745 170.5,188.5 Z"/></g>
<g><path style="opacity:1" fill="#6d6986" d="M 177.5,188.5 C 179.308,189.918 179.975,191.918 179.5,194.5C 180.552,194.351 181.552,194.517 182.5,195C 180.866,195.494 179.199,195.66 177.5,195.5C 177.5,193.167 177.5,190.833 177.5,188.5 Z"/></g>
<g><path style="opacity:1" fill="#6e6785" d="M 111.5,188.5 C 113.467,188.261 115.301,188.594 117,189.5C 116.872,191.445 117.038,193.278 117.5,195C 116.258,195.311 115.258,194.811 114.5,193.5C 113.833,194.167 113.167,194.833 112.5,195.5C 111.526,193.257 111.192,190.924 111.5,188.5 Z"/></g>
<g><path style="opacity:1" fill="#4f496b" d="M 120.5,189.5 C 122.371,189.859 123.871,190.859 125,192.5C 125.333,191.5 125.667,190.5 126,189.5C 126.907,196.273 125.574,196.939 122,191.5C 121.667,192.833 121.333,194.167 121,195.5C 120.505,193.527 120.338,191.527 120.5,189.5 Z"/></g>
<g><path style="opacity:1" fill="#666280" d="M 151.5,188.5 C 156.328,188.385 157.661,190.552 155.5,195C 149.738,195.418 148.404,193.251 151.5,188.5 Z"/></g>
<g><path style="opacity:1" fill="#dddde2" d="M 151.5,190.5 C 152.833,190.5 154.167,190.5 155.5,190.5C 155.778,192.346 155.111,193.68 153.5,194.5C 151.889,193.68 151.222,192.346 151.5,190.5 Z"/></g>
<g><path style="opacity:1" fill="#645e7d" d="M 159.5,188.5 C 161.193,189.475 162.693,190.808 164,192.5C 164.333,191.167 164.667,189.833 165,188.5C 165.814,190.902 165.647,193.235 164.5,195.5C 163.667,194.5 162.833,193.5 162,192.5C 161.751,193.624 161.251,194.624 160.5,195.5C 159.526,193.257 159.192,190.924 159.5,188.5 Z"/></g>
</svg>
