<?xml version="1.0" encoding="UTF-8"?>
<!DOCTYPE svg PUBLIC "-//W3C//DTD SVG 1.1//EN" "http://www.w3.org/Graphics/SVG/1.1/DTD/svg11.dtd">
<svg xmlns="http://www.w3.org/2000/svg" version="1.1" width="275px" height="271px" style="shape-rendering:geometricPrecision; text-rendering:geometricPrecision; image-rendering:optimizeQuality; fill-rule:evenodd; clip-rule:evenodd" xmlns:xlink="http://www.w3.org/1999/xlink">
<g><path style="opacity:1" fill="#8e88e7" d="M -0.5,-0.5 C -0.166667,-0.5 0.166667,-0.5 0.5,-0.5C 0.169398,89.9039 0.502731,180.237 1.5,270.5C 0.833333,270.5 0.166667,270.5 -0.5,270.5C -0.5,180.167 -0.5,89.8333 -0.5,-0.5 Z"/></g>
<g><path style="opacity:1" fill="#f9f9f9" d="M 0.5,-0.5 C 91.5,-0.5 182.5,-0.5 273.5,-0.5C 273.831,89.9039 273.497,180.237 272.5,270.5C 182.167,270.5 91.8333,270.5 1.5,270.5C 0.502731,180.237 0.169398,89.9039 0.5,-0.5 Z"/></g>
<g><path style="opacity:1" fill="#b4b4ed" d="M 273.5,-0.5 C 273.833,-0.5 274.167,-0.5 274.5,-0.5C 274.5,89.8333 274.5,180.167 274.5,270.5C 273.833,270.5 273.167,270.5 272.5,270.5C 273.497,180.237 273.831,89.9039 273.5,-0.5 Z"/></g>
<g><path style="opacity:1" fill="#bcbcc8" d="M 153.5,66.5 C 156.522,66.804 159.522,67.304 162.5,68C 163.942,68.3768 164.942,69.2101 165.5,70.5C 161.303,69.4582 157.303,68.1249 153.5,66.5 Z"/></g>
<g><path style="opacity:1" fill="#1c1e47" d="M 153.5,66.5 C 157.303,68.1249 161.303,69.4582 165.5,70.5C 179.643,76.9731 190.643,86.9731 198.5,100.5C 198.427,102.027 199.094,103.027 200.5,103.5C 202.614,106.839 203.947,110.505 204.5,114.5C 202.721,116.344 200.388,117.01 197.5,116.5C 198.429,115.685 199.429,114.852 200.5,114C 199.062,113.781 197.729,113.281 196.5,112.5C 196.453,109.511 196.786,106.677 197.5,104C 196.062,102.759 194.562,102.259 193,102.5C 192.51,101.207 192.343,99.8734 192.5,98.5C 190.486,98.3915 188.82,99.0582 187.5,100.5C 187.405,97.7277 186.071,95.7277 183.5,94.5C 181.471,95.8435 179.471,97.1769 177.5,98.5C 176.167,96.8333 176.167,95.1667 177.5,93.5C 180.017,91.9229 180.017,90.0896 177.5,88C 175.527,87.5045 173.527,87.3379 171.5,87.5C 170.662,87.1583 170.328,86.4916 170.5,85.5C 170.719,84.325 170.386,83.325 169.5,82.5C 168.16,83.8665 166.827,85.1999 165.5,86.5C 164.662,86.1583 164.328,85.4916 164.5,84.5C 165.038,82.8828 165.371,81.2161 165.5,79.5C 161.868,80.7326 160.202,83.3992 160.5,87.5C 159.167,87.5 157.833,87.5 156.5,87.5C 156.571,84.6887 157.238,82.022 158.5,79.5C 158.167,78.8333 157.833,78.1667 157.5,77.5C 156.818,78.2427 156.151,78.9094 155.5,79.5C 154.883,79.6107 154.383,79.944 154,80.5C 153.768,79.2625 153.268,78.2625 152.5,77.5C 152.53,76.5028 152.03,75.8361 151,75.5C 148.566,74.6777 146.066,74.3444 143.5,74.5C 143.058,78.1545 142.724,81.8212 142.5,85.5C 143.5,85.5 144.5,85.5 145.5,85.5C 146.167,81.5 146.833,81.5 147.5,85.5C 143.087,87.1384 138.421,88.1384 133.5,88.5C 128.784,88.846 124.117,89.5127 119.5,90.5C 116.755,90.627 114.755,89.4603 113.5,87C 114.025,86.3076 114.692,85.8076 115.5,85.5C 116.262,86.6283 116.929,87.7949 117.5,89C 118.437,89.6917 119.103,89.525 119.5,88.5C 120.404,87.791 120.737,86.791 120.5,85.5C 120.82,82.1016 120.487,78.7683 119.5,75.5C 118.893,75.6236 118.56,75.9569 118.5,76.5C 117.839,77.7175 117.172,79.0508 116.5,80.5C 115.15,79.0499 113.484,78.3832 111.5,78.5C 108.291,78.9183 104.958,78.9183 101.5,78.5C 100,80.7857 99.6668,83.119 100.5,85.5C 99.0508,86.1719 97.7175,86.8386 96.5,87.5C 97.2055,89.6716 98.2055,91.6716 99.5,93.5C 98.646,95.9337 97.646,95.767 96.5,93C 94.9343,92.235 93.6009,92.4017 92.5,93.5C 88.746,94.8276 87.5793,97.4942 89,101.5C 90.5388,104.521 93.0388,105.854 96.5,105.5C 96.5,106.5 96.5,107.5 96.5,108.5C 95.8902,109.391 95.5569,110.391 95.5,111.5C 93.8235,112.183 93.1568,113.517 93.5,115.5C 91.5806,116.534 87.5806,117.2 81.5,117.5C 79.5,117.5 77.5,117.5 75.5,117.5C 74.5489,118.919 74.2155,120.585 74.5,122.5C 72.5,122.5 70.5,122.5 68.5,122.5C 68.5,121.167 68.5,119.833 68.5,118.5C 69.9,112.868 71.9,107.534 74.5,102.5C 75.9063,102.027 76.573,101.027 76.5,99.5C 84.1517,86.0198 95.1517,76.1865 109.5,70C 114.606,68.4779 119.606,66.8112 124.5,65C 134.231,64.3077 143.897,64.8077 153.5,66.5 Z"/></g>
<g><path style="opacity:1" fill="#b6b5bc" d="M 152.5,77.5 C 152.756,79.9124 151.756,81.5791 149.5,82.5C 151.04,85.5352 150.373,86.5352 147.5,85.5C 146.833,81.5 146.167,81.5 145.5,85.5C 144.5,85.5 143.5,85.5 142.5,85.5C 142.724,81.8212 143.058,78.1545 143.5,74.5C 146.066,74.3444 148.566,74.6777 151,75.5C 152.03,75.8361 152.53,76.5028 152.5,77.5 Z"/></g>
<g><path style="opacity:1" fill="#4b4a66" d="M 146.5,76.5 C 147.5,76.5 148.5,76.5 149.5,76.5C 149.5,77.8333 149.5,79.1667 149.5,80.5C 148.5,80.5 147.5,80.5 146.5,80.5C 146.5,79.1667 146.5,77.8333 146.5,76.5 Z"/></g>
<g><path style="opacity:1" fill="#a5a5ad" d="M 132.5,73.5 C 135.798,73.0162 138.464,74.0162 140.5,76.5C 137.956,76.9491 135.29,76.9491 132.5,76.5C 131.3,83.1568 133.467,84.8235 139,81.5C 139.5,81.8333 140,82.1667 140.5,82.5C 137.285,85.9532 133.785,86.2865 130,83.5C 129.333,80.8333 129.333,78.1667 130,75.5C 130.995,74.9341 131.828,74.2674 132.5,73.5 Z"/></g>
<g><path style="opacity:1" fill="#b4b4ba" d="M 118.5,76.5 C 119.167,79.5 119.833,82.5 120.5,85.5C 120.737,86.791 120.404,87.791 119.5,88.5C 116.491,85.4852 113.824,82.1519 111.5,78.5C 113.484,78.3832 115.15,79.0499 116.5,80.5C 117.172,79.0508 117.839,77.7175 118.5,76.5 Z"/></g>
<g><path style="opacity:1" fill="#595a76" d="M 118.5,76.5 C 118.56,75.9569 118.893,75.6236 119.5,75.5C 120.487,78.7683 120.82,82.1016 120.5,85.5C 119.833,82.5 119.167,79.5 118.5,76.5 Z"/></g>
<g><path style="opacity:1" fill="#25264c" d="M 111.5,78.5 C 113.824,82.1519 116.491,85.4852 119.5,88.5C 119.103,89.525 118.437,89.6917 117.5,89C 116.929,87.7949 116.262,86.6283 115.5,85.5C 114.692,85.8076 114.025,86.3076 113.5,87C 114.755,89.4603 116.755,90.627 119.5,90.5C 115.763,92.3727 112.096,94.5394 108.5,97C 104.631,101.037 100.631,104.87 96.5,108.5C 96.5,107.5 96.5,106.5 96.5,105.5C 98.4613,103.708 99.7946,101.542 100.5,99C 100.167,98.1667 99.8333,97.3333 99.5,96.5C 97.9884,97.9906 96.9884,99.8239 96.5,102C 91.9167,102.934 90.4167,101.1 92,96.5C 93.2051,95.9288 94.3717,95.2621 95.5,94.5C 94.675,93.6143 93.675,93.281 92.5,93.5C 93.6009,92.4017 94.9343,92.235 96.5,93C 97.646,95.767 98.646,95.9337 99.5,93.5C 101.148,94.8098 102.814,96.1431 104.5,97.5C 105.583,96.635 105.749,95.635 105,94.5C 102.791,92.6266 100.958,90.46 99.5,88C 98.552,87.5172 97.552,87.3505 96.5,87.5C 97.7175,86.8386 99.0508,86.1719 100.5,85.5C 99.6668,83.119 100,80.7857 101.5,78.5C 104.958,78.9183 108.291,78.9183 111.5,78.5 Z"/></g>
<g><path style="opacity:1" fill="#b0afb7" d="M 164.5,84.5 C 163.214,89.0785 160.214,90.5785 155.5,89C 154.106,88.044 153.439,86.7106 153.5,85C 153.954,83.0614 154.621,81.228 155.5,79.5C 156.151,78.9094 156.818,78.2427 157.5,77.5C 157.833,78.1667 158.167,78.8333 158.5,79.5C 157.238,82.022 156.571,84.6887 156.5,87.5C 157.833,87.5 159.167,87.5 160.5,87.5C 160.202,83.3992 161.868,80.7326 165.5,79.5C 165.371,81.2161 165.038,82.8828 164.5,84.5 Z"/></g>
<g><path style="opacity:1" fill="#aeacb4" d="M 96.5,87.5 C 97.552,87.3505 98.552,87.5172 99.5,88C 100.958,90.46 102.791,92.6266 105,94.5C 105.749,95.635 105.583,96.635 104.5,97.5C 102.814,96.1431 101.148,94.8098 99.5,93.5C 98.2055,91.6716 97.2055,89.6716 96.5,87.5 Z"/></g>
<g><path style="opacity:1" fill="#b4b3ba" d="M 105.5,81.5 C 108.205,81.3802 108.872,82.3802 107.5,84.5C 109.658,87.1485 110.992,90.1485 111.5,93.5C 110.5,93.5 109.5,93.5 108.5,93.5C 108.245,90.9837 107.411,88.6504 106,86.5C 104.467,86.0563 102.967,85.723 101.5,85.5C 102.549,83.7844 103.882,82.4511 105.5,81.5 Z"/></g>
<g><path style="opacity:1" fill="#b5b6bd" d="M 170.5,85.5 C 168.509,88.1369 166.509,90.8036 164.5,93.5C 164.167,92.8333 163.833,92.1667 163.5,91.5C 164.187,89.8228 164.854,88.1561 165.5,86.5C 166.827,85.1999 168.16,83.8665 169.5,82.5C 170.386,83.325 170.719,84.325 170.5,85.5 Z"/></g>
<g><path style="opacity:1" fill="#b7b7bd" d="M 171.5,87.5 C 173.527,87.3379 175.527,87.5045 177.5,88C 180.017,90.0896 180.017,91.9229 177.5,93.5C 177.029,92.0992 176.362,90.7658 175.5,89.5C 175.167,90 174.833,90.5 174.5,91C 175.322,93.4339 175.656,95.9339 175.5,98.5C 172.956,98.8957 170.789,98.229 169,96.5C 168.251,95.365 168.417,94.365 169.5,93.5C 170.281,94.7366 171.281,95.7366 172.5,96.5C 172.833,96 173.167,95.5 173.5,95C 172.129,92.6813 171.462,90.1813 171.5,87.5 Z"/></g>
<g><path style="opacity:1" fill="#141a44" d="M 177.5,108.5 C 178.5,107.833 179.5,107.167 180.5,106.5C 180.297,104.956 179.63,103.622 178.5,102.5C 180.044,101.378 181.377,101.711 182.5,103.5C 183.645,102.224 183.645,100.891 182.5,99.5C 183,99.1667 183.5,98.8333 184,98.5C 185.077,99.4295 186.244,100.096 187.5,100.5C 188.82,99.0582 190.486,98.3915 192.5,98.5C 192.343,99.8734 192.51,101.207 193,102.5C 194.562,102.259 196.062,102.759 197.5,104C 196.786,106.677 196.453,109.511 196.5,112.5C 197.729,113.281 199.062,113.781 200.5,114C 199.429,114.852 198.429,115.685 197.5,116.5C 181.5,116.5 165.5,116.5 149.5,116.5C 132.163,116.667 114.83,116.5 97.5,116C 98.3802,114.644 98.7135,113.144 98.5,111.5C 110.34,93.4844 127.007,86.6511 148.5,91C 160.945,94.717 170.611,102.05 177.5,113C 178.332,113.688 178.998,113.521 179.5,112.5C 178.82,111.14 178.153,109.807 177.5,108.5 Z"/></g>
<g><path style="opacity:1" fill="#9193a1" d="M 133.5,88.5 C 151.731,87.6201 166.398,94.2868 177.5,108.5C 178.153,109.807 178.82,111.14 179.5,112.5C 178.998,113.521 178.332,113.688 177.5,113C 170.611,102.05 160.945,94.717 148.5,91C 127.007,86.6511 110.34,93.4844 98.5,111.5C 97.5416,111.953 96.7083,112.619 96,113.5C 95.5357,112.906 95.369,112.239 95.5,111.5C 95.5569,110.391 95.8902,109.391 96.5,108.5C 100.631,104.87 104.631,101.037 108.5,97C 112.096,94.5394 115.763,92.3727 119.5,90.5C 124.117,89.5127 128.784,88.846 133.5,88.5 Z"/></g>
<g><path style="opacity:1" fill="#303154" d="M 152.5,77.5 C 153.268,78.2625 153.768,79.2625 154,80.5C 154.383,79.944 154.883,79.6107 155.5,79.5C 154.621,81.228 153.954,83.0614 153.5,85C 153.439,86.7106 154.106,88.044 155.5,89C 160.214,90.5785 163.214,89.0785 164.5,84.5C 164.328,85.4916 164.662,86.1583 165.5,86.5C 164.854,88.1561 164.187,89.8228 163.5,91.5C 163.833,92.1667 164.167,92.8333 164.5,93.5C 166.509,90.8036 168.509,88.1369 170.5,85.5C 170.328,86.4916 170.662,87.1583 171.5,87.5C 171.462,90.1813 172.129,92.6813 173.5,95C 173.167,95.5 172.833,96 172.5,96.5C 171.281,95.7366 170.281,94.7366 169.5,93.5C 168.417,94.365 168.251,95.365 169,96.5C 170.789,98.229 172.956,98.8957 175.5,98.5C 175.656,95.9339 175.322,93.4339 174.5,91C 174.833,90.5 175.167,90 175.5,89.5C 176.362,90.7658 177.029,92.0992 177.5,93.5C 176.167,95.1667 176.167,96.8333 177.5,98.5C 174.014,102.185 175.014,104.852 180.5,106.5C 179.5,107.167 178.5,107.833 177.5,108.5C 166.398,94.2868 151.731,87.6201 133.5,88.5C 138.421,88.1384 143.087,87.1384 147.5,85.5C 150.373,86.5352 151.04,85.5352 149.5,82.5C 151.756,81.5791 152.756,79.9124 152.5,77.5 Z"/></g>
<g><path style="opacity:1" fill="#aeaeb5" d="M 187.5,100.5 C 186.244,100.096 185.077,99.4295 184,98.5C 183.5,98.8333 183,99.1667 182.5,99.5C 183.645,100.891 183.645,102.224 182.5,103.5C 181.377,101.711 180.044,101.378 178.5,102.5C 179.63,103.622 180.297,104.956 180.5,106.5C 175.014,104.852 174.014,102.185 177.5,98.5C 179.471,97.1769 181.471,95.8435 183.5,94.5C 186.071,95.7277 187.405,97.7277 187.5,100.5 Z"/></g>
<g><path style="opacity:1" fill="#676782" d="M 76.5,99.5 C 76.573,101.027 75.9063,102.027 74.5,102.5C 74.427,100.973 75.0937,99.9731 76.5,99.5 Z"/></g>
<g><path style="opacity:1" fill="#adaeb4" d="M 92.5,93.5 C 93.675,93.281 94.675,93.6143 95.5,94.5C 94.3717,95.2621 93.2051,95.9288 92,96.5C 90.4167,101.1 91.9167,102.934 96.5,102C 96.9884,99.8239 97.9884,97.9906 99.5,96.5C 99.8333,97.3333 100.167,98.1667 100.5,99C 99.7946,101.542 98.4613,103.708 96.5,105.5C 93.0388,105.854 90.5388,104.521 89,101.5C 87.5793,97.4942 88.746,94.8276 92.5,93.5 Z"/></g>
<g><path style="opacity:1" fill="#797a92" d="M 198.5,100.5 C 199.906,100.973 200.573,101.973 200.5,103.5C 199.094,103.027 198.427,102.027 198.5,100.5 Z"/></g>
<g><path style="opacity:1" fill="#24455e" d="M 204.5,114.5 C 205.404,115.209 205.737,116.209 205.5,117.5C 197.5,117.5 189.5,117.5 181.5,117.5C 177.5,117.5 173.5,117.5 169.5,117.5C 162.833,117.5 156.167,117.5 149.5,117.5C 149.5,117.167 149.5,116.833 149.5,116.5C 165.5,116.5 181.5,116.5 197.5,116.5C 200.388,117.01 202.721,116.344 204.5,114.5 Z"/></g>
<g><path style="opacity:1" fill="#be827d" d="M 101.5,117.5 C 101.577,118.75 102.244,119.583 103.5,120C 102.944,120.383 102.611,120.883 102.5,121.5C 96.8333,121.5 91.1667,121.5 85.5,121.5C 85.5,120.167 85.5,118.833 85.5,117.5C 90.8333,117.5 96.1667,117.5 101.5,117.5 Z"/></g>
<g><path style="opacity:1" fill="#729e9a" d="M 140.5,117.5 C 143.5,117.5 146.5,117.5 149.5,117.5C 149.389,118.117 149.056,118.617 148.5,119C 150.437,121.086 152.104,123.252 153.5,125.5C 151.18,123.774 148.513,123.107 145.5,123.5C 143.485,122.076 141.152,121.41 138.5,121.5C 138.389,120.883 138.056,120.383 137.5,120C 138.571,119.148 139.571,118.315 140.5,117.5 Z"/></g>
<g><path style="opacity:1" fill="#59aca5" d="M 149.5,117.5 C 156.167,117.5 162.833,117.5 169.5,117.5C 167.958,118.141 166.624,119.141 165.5,120.5C 166.634,122.462 166.634,124.462 165.5,126.5C 166.237,128.97 167.237,131.304 168.5,133.5C 163.142,131.652 158.142,128.986 153.5,125.5C 152.104,123.252 150.437,121.086 148.5,119C 149.056,118.617 149.389,118.117 149.5,117.5 Z"/></g>
<g><path style="opacity:1" fill="#46b7ab" d="M 169.5,117.5 C 173.5,117.5 177.5,117.5 181.5,117.5C 180.737,118.268 179.737,118.768 178.5,119C 179.761,124.135 179.761,129.302 178.5,134.5C 175.061,134.747 171.728,134.414 168.5,133.5C 167.237,131.304 166.237,128.97 165.5,126.5C 166.634,124.462 166.634,122.462 165.5,120.5C 166.624,119.141 167.958,118.141 169.5,117.5 Z"/></g>
<g><path style="opacity:1" fill="#30cab9" d="M 181.5,117.5 C 189.5,117.5 197.5,117.5 205.5,117.5C 209.63,130.494 209.296,143.494 204.5,156.5C 202.958,155.699 201.292,155.366 199.5,155.5C 199.5,154.167 199.5,152.833 199.5,151.5C 200.537,149.262 200.703,146.929 200,144.5C 198.283,143.012 197.116,141.179 196.5,139C 190.491,137.037 184.491,135.537 178.5,134.5C 179.761,129.302 179.761,124.135 178.5,119C 179.737,118.768 180.737,118.268 181.5,117.5 Z"/></g>
<g><path style="opacity:1" fill="#ab8988" d="M 101.5,117.5 C 107.833,117.5 114.167,117.5 120.5,117.5C 119.737,118.268 118.737,118.768 117.5,119C 119.611,119.845 121.611,120.678 123.5,121.5C 116.5,121.5 109.5,121.5 102.5,121.5C 102.611,120.883 102.944,120.383 103.5,120C 102.244,119.583 101.577,118.75 101.5,117.5 Z"/></g>
<g><path style="opacity:1" fill="#8b9995" d="M 120.5,117.5 C 127.167,117.5 133.833,117.5 140.5,117.5C 139.571,118.315 138.571,119.148 137.5,120C 138.056,120.383 138.389,120.883 138.5,121.5C 133.5,121.5 128.5,121.5 123.5,121.5C 121.611,120.678 119.611,119.845 117.5,119C 118.737,118.768 119.737,118.268 120.5,117.5 Z"/></g>
<g><path style="opacity:1" fill="#463d59" d="M 95.5,111.5 C 95.369,112.239 95.5357,112.906 96,113.5C 96.7083,112.619 97.5416,111.953 98.5,111.5C 98.7135,113.144 98.3802,114.644 97.5,116C 114.83,116.5 132.163,116.667 149.5,116.5C 149.5,116.833 149.5,117.167 149.5,117.5C 146.5,117.5 143.5,117.5 140.5,117.5C 133.833,117.5 127.167,117.5 120.5,117.5C 114.167,117.5 107.833,117.5 101.5,117.5C 96.1667,117.5 90.8333,117.5 85.5,117.5C 85.5,118.833 85.5,120.167 85.5,121.5C 91.1667,121.5 96.8333,121.5 102.5,121.5C 109.5,121.5 116.5,121.5 123.5,121.5C 128.5,121.5 133.5,121.5 138.5,121.5C 141.152,121.41 143.485,122.076 145.5,123.5C 144.167,123.5 142.833,123.5 141.5,123.5C 132.827,123.334 124.16,123.5 115.5,124C 114.263,124.232 113.263,124.732 112.5,125.5C 108.922,126.292 105.588,127.625 102.5,129.5C 102.5,129.167 102.5,128.833 102.5,128.5C 104.316,126.863 106.316,125.363 108.5,124C 103.511,123.501 98.5111,123.334 93.5,123.5C 84.8333,123.5 76.1667,123.5 67.5,123.5C 67.2155,121.585 67.5489,119.919 68.5,118.5C 68.5,119.833 68.5,121.167 68.5,122.5C 70.5,122.5 72.5,122.5 74.5,122.5C 74.2155,120.585 74.5489,118.919 75.5,117.5C 75.5,118.833 75.5,120.167 75.5,121.5C 77.5,121.5 79.5,121.5 81.5,121.5C 81.5,120.167 81.5,118.833 81.5,117.5C 87.5806,117.2 91.5806,116.534 93.5,115.5C 93.1568,113.517 93.8235,112.183 95.5,111.5 Z"/></g>
<g><path style="opacity:1" fill="#c96d66" d="M 75.5,117.5 C 77.5,117.5 79.5,117.5 81.5,117.5C 81.5,118.833 81.5,120.167 81.5,121.5C 79.5,121.5 77.5,121.5 75.5,121.5C 75.5,120.167 75.5,118.833 75.5,117.5 Z"/></g>
<g><path style="opacity:1" fill="#e97869" d="M 67.5,123.5 C 72.6813,124.167 78.0147,124.833 83.5,125.5C 83.8627,126.183 84.1961,126.85 84.5,127.5C 78.31,127.177 72.31,127.51 66.5,128.5C 62.4862,128.666 58.4862,128.499 54.5,128C 53.1667,126.667 53.1667,125.333 54.5,124C 58.8206,123.501 63.1539,123.334 67.5,123.5 Z"/></g>
<g><path style="opacity:1" fill="#c6766e" d="M 67.5,123.5 C 76.1667,123.5 84.8333,123.5 93.5,123.5C 94.3984,124.158 95.3984,124.824 96.5,125.5C 96.2907,126.086 95.9574,126.586 95.5,127C 91.8484,127.499 88.1817,127.665 84.5,127.5C 84.1961,126.85 83.8627,126.183 83.5,125.5C 78.0147,124.833 72.6813,124.167 67.5,123.5 Z"/></g>
<g><path style="opacity:1" fill="#bebfca" d="M 141.5,123.5 C 149.875,125.021 157.208,128.687 163.5,134.5C 161.549,136.792 159.216,137.125 156.5,135.5C 156.5,134.5 156.5,133.5 156.5,132.5C 155.106,130.292 153.106,128.792 150.5,128C 145.955,126.458 141.289,125.624 136.5,125.5C 136.5,126.833 136.5,128.167 136.5,129.5C 135.539,131.265 135.205,133.265 135.5,135.5C 130.305,135.821 125.305,135.487 120.5,134.5C 125.167,134.5 129.833,134.5 134.5,134.5C 134.81,131.287 134.477,128.287 133.5,125.5C 127.974,125.179 122.64,125.512 117.5,126.5C 116.5,126.5 115.5,126.5 114.5,126.5C 114.158,125.662 113.492,125.328 112.5,125.5C 113.263,124.732 114.263,124.232 115.5,124C 124.16,123.5 132.827,123.334 141.5,123.5 Z"/></g>
<g><path style="opacity:1" fill="#f4f4f5" d="M 112.5,125.5 C 113.492,125.328 114.158,125.662 114.5,126.5C 113.833,126.5 113.5,126.833 113.5,127.5C 111.188,129.146 109.188,131.146 107.5,133.5C 109.396,134.466 111.396,134.799 113.5,134.5C 114.268,133.737 114.768,132.737 115,131.5C 115.232,132.737 115.732,133.737 116.5,134.5C 117.833,134.5 119.167,134.5 120.5,134.5C 125.305,135.487 130.305,135.821 135.5,135.5C 135.205,133.265 135.539,131.265 136.5,129.5C 137.931,130.78 138.598,132.447 138.5,134.5C 144.31,135.49 150.31,135.823 156.5,135.5C 159.216,137.125 161.549,136.792 163.5,134.5C 171.456,135.497 179.456,136.497 187.5,137.5C 187.216,139.415 187.549,141.081 188.5,142.5C 191.358,143.166 194.358,143.833 197.5,144.5C 199.666,149.166 198.333,151.832 193.5,152.5C 191.833,152.5 190.167,152.5 188.5,152.5C 188.556,143.008 183.889,139.508 174.5,142C 172.959,143.371 171.625,144.871 170.5,146.5C 169.539,148.265 169.205,150.265 169.5,152.5C 151.167,152.5 132.833,152.5 114.5,152.5C 114.784,150.585 114.451,148.919 113.5,147.5C 110.42,142.14 105.753,140.307 99.5,142C 97.9586,143.371 96.6253,144.871 95.5,146.5C 94.5489,147.919 94.2155,149.585 94.5,151.5C 93.5,151.5 92.5,151.5 91.5,151.5C 87.5842,151.975 84.2509,150.975 81.5,148.5C 81.9608,144.788 82.6275,141.121 83.5,137.5C 83.5,136.833 83.5,136.167 83.5,135.5C 88.0367,134.181 92.7033,133.347 97.5,133C 98.5707,132.148 99.5707,131.315 100.5,130.5C 101.167,130.167 101.833,129.833 102.5,129.5C 105.588,127.625 108.922,126.292 112.5,125.5 Z"/></g>
<g><path style="opacity:1" fill="#1a1f46" d="M 133.5,125.5 C 133.5,128.167 133.5,130.833 133.5,133.5C 127.833,133.5 122.167,133.5 116.5,133.5C 116.448,131.097 116.781,128.764 117.5,126.5C 122.64,125.512 127.974,125.179 133.5,125.5 Z"/></g>
<g><path style="opacity:1" fill="#a46b6b" d="M 93.5,123.5 C 98.5111,123.334 103.511,123.501 108.5,124C 106.316,125.363 104.316,126.863 102.5,128.5C 90.8333,128.5 79.1667,128.5 67.5,128.5C 67.1667,128.5 66.8333,128.5 66.5,128.5C 72.31,127.51 78.31,127.177 84.5,127.5C 88.1817,127.665 91.8484,127.499 95.5,127C 95.9574,126.586 96.2907,126.086 96.5,125.5C 95.3984,124.824 94.3984,124.158 93.5,123.5 Z"/></g>
<g><path style="opacity:1" fill="#171c43" d="M 156.5,132.5 C 150.792,134.386 144.792,135.053 138.5,134.5C 138.598,132.447 137.931,130.78 136.5,129.5C 136.5,128.167 136.5,126.833 136.5,125.5C 141.289,125.624 145.955,126.458 150.5,128C 153.106,128.792 155.106,130.292 156.5,132.5 Z"/></g>
<g><path style="opacity:1" fill="#1b1f46" d="M 67.5,128.5 C 79.1667,128.5 90.8333,128.5 102.5,128.5C 102.5,128.833 102.5,129.167 102.5,129.5C 101.833,129.833 101.167,130.167 100.5,130.5C 99.5,130.5 98.5,130.5 97.5,130.5C 87.5,129.833 77.5,129.167 67.5,128.5 Z"/></g>
<g><path style="opacity:1" fill="#41516b" d="M 141.5,123.5 C 142.833,123.5 144.167,123.5 145.5,123.5C 148.513,123.107 151.18,123.774 153.5,125.5C 158.142,128.986 163.142,131.652 168.5,133.5C 171.728,134.414 175.061,134.747 178.5,134.5C 184.491,135.537 190.491,137.037 196.5,139C 197.116,141.179 198.283,143.012 200,144.5C 200.703,146.929 200.537,149.262 199.5,151.5C 197.886,153.075 195.886,153.741 193.5,153.5C 193.5,153.167 193.5,152.833 193.5,152.5C 198.333,151.832 199.666,149.166 197.5,144.5C 194.358,143.833 191.358,143.166 188.5,142.5C 190.735,142.795 192.735,142.461 194.5,141.5C 195.885,140.698 195.718,140.031 194,139.5C 191.846,138.726 189.679,138.059 187.5,137.5C 179.456,136.497 171.456,135.497 163.5,134.5C 157.208,128.687 149.875,125.021 141.5,123.5 Z"/></g>
<g><path style="opacity:1" fill="#3d2f4c" d="M 66.5,128.5 C 66.8333,128.5 67.1667,128.5 67.5,128.5C 77.5,129.167 87.5,129.833 97.5,130.5C 90.8333,130.5 84.1667,130.5 77.5,130.5C 73.8333,130.5 70.1667,130.5 66.5,130.5C 66.5,129.833 66.5,129.167 66.5,128.5 Z"/></g>
<g><path style="opacity:1" fill="#2d2f53" d="M 113.5,127.5 C 114.239,127.369 114.906,127.536 115.5,128C 113.984,129.897 113.317,132.064 113.5,134.5C 111.396,134.799 109.396,134.466 107.5,133.5C 109.188,131.146 111.188,129.146 113.5,127.5 Z"/></g>
<g><path style="opacity:1" fill="#9899a9" d="M 113.5,127.5 C 113.5,126.833 113.833,126.5 114.5,126.5C 115.5,126.5 116.5,126.5 117.5,126.5C 116.781,128.764 116.448,131.097 116.5,133.5C 116.5,133.833 116.5,134.167 116.5,134.5C 115.732,133.737 115.232,132.737 115,131.5C 114.768,132.737 114.268,133.737 113.5,134.5C 113.317,132.064 113.984,129.897 115.5,128C 114.906,127.536 114.239,127.369 113.5,127.5 Z"/></g>
<g><path style="opacity:1" fill="#f26c59" d="M 45.5,131.5 C 52.8409,131.334 60.1742,131.5 67.5,132C 66.6195,132.708 65.9528,133.542 65.5,134.5C 59.4908,134.666 53.4908,134.499 47.5,134C 46.244,133.583 45.5774,132.75 45.5,131.5 Z"/></g>
<g><path style="opacity:1" fill="#e67164" d="M 45.5,131.5 C 52.3134,130.509 59.3134,130.175 66.5,130.5C 70.1667,130.5 73.8333,130.5 77.5,130.5C 77.9175,131.222 78.5842,131.722 79.5,132C 78.6195,132.708 77.9528,133.542 77.5,134.5C 73.8333,134.5 70.1667,134.5 66.5,134.5C 66.1667,134.5 65.8333,134.5 65.5,134.5C 65.9528,133.542 66.6195,132.708 67.5,132C 60.1742,131.5 52.8409,131.334 45.5,131.5 Z"/></g>
<g><path style="opacity:1" fill="#ca746c" d="M 77.5,130.5 C 84.1667,130.5 90.8333,130.5 97.5,130.5C 92.8333,131.5 88.1667,132.5 83.5,133.5C 81.6208,134.341 79.6208,134.675 77.5,134.5C 77.9528,133.542 78.6195,132.708 79.5,132C 78.5842,131.722 77.9175,131.222 77.5,130.5 Z"/></g>
<g><path style="opacity:1" fill="#504561" d="M 97.5,130.5 C 98.5,130.5 99.5,130.5 100.5,130.5C 99.5707,131.315 98.5707,132.148 97.5,133C 92.7033,133.347 88.0367,134.181 83.5,135.5C 83.5,134.833 83.5,134.167 83.5,133.5C 88.1667,132.5 92.8333,131.5 97.5,130.5 Z"/></g>
<g><path style="opacity:1" fill="#3c3f60" d="M 133.5,125.5 C 134.477,128.287 134.81,131.287 134.5,134.5C 129.833,134.5 125.167,134.5 120.5,134.5C 119.167,134.5 117.833,134.5 116.5,134.5C 116.5,134.167 116.5,133.833 116.5,133.5C 122.167,133.5 127.833,133.5 133.5,133.5C 133.5,130.833 133.5,128.167 133.5,125.5 Z"/></g>
<g><path style="opacity:1" fill="#f4998c" d="M 45.5,131.5 C 45.5774,132.75 46.244,133.583 47.5,134C 53.4908,134.499 59.4908,134.666 65.5,134.5C 65.8333,134.5 66.1667,134.5 66.5,134.5C 66.5,134.833 66.5,135.167 66.5,135.5C 59.4921,135.666 52.4921,135.5 45.5,135C 44.2089,133.708 44.2089,132.542 45.5,131.5 Z"/></g>
<g><path style="opacity:1" fill="#97555a" d="M 83.5,133.5 C 83.5,134.167 83.5,134.833 83.5,135.5C 77.8333,135.5 72.1667,135.5 66.5,135.5C 66.5,135.167 66.5,134.833 66.5,134.5C 70.1667,134.5 73.8333,134.5 77.5,134.5C 79.6208,134.675 81.6208,134.341 83.5,133.5 Z"/></g>
<g><path style="opacity:1" fill="#515571" d="M 156.5,132.5 C 156.5,133.5 156.5,134.5 156.5,135.5C 150.31,135.823 144.31,135.49 138.5,134.5C 144.792,135.053 150.792,134.386 156.5,132.5 Z"/></g>
<g><path style="opacity:1" fill="#352a49" d="M 66.5,135.5 C 72.1667,135.5 77.8333,135.5 83.5,135.5C 83.5,136.167 83.5,136.833 83.5,137.5C 82.8333,137.5 82.1667,137.5 81.5,137.5C 76.5,137.5 71.5,137.5 66.5,137.5C 66.5,136.833 66.5,136.167 66.5,135.5 Z"/></g>
<g><path style="opacity:1" fill="#f36957" d="M 64.5,138.5 C 63.8333,139.5 63.1667,140.5 62.5,141.5C 56.1667,141.5 49.8333,141.5 43.5,141.5C 43.5,140.5 43.5,139.5 43.5,138.5C 50.5,138.5 57.5,138.5 64.5,138.5 Z"/></g>
<g><path style="opacity:1" fill="#d96c62" d="M 66.5,137.5 C 71.5,137.5 76.5,137.5 81.5,137.5C 81.7678,139.099 81.4345,140.432 80.5,141.5C 75.8333,141.5 71.1667,141.5 66.5,141.5C 65.1667,141.5 63.8333,141.5 62.5,141.5C 63.1667,140.5 63.8333,139.5 64.5,138.5C 65.4916,138.672 66.1583,138.338 66.5,137.5 Z"/></g>
<g><path style="opacity:1" fill="#f98575" d="M 24.5,137.5 C 28.1378,136.737 29.6378,138.07 29,141.5C 24.4155,143.413 22.9155,142.079 24.5,137.5 Z"/></g>
<g><path style="opacity:1" fill="#f68172" d="M 33.5,137.5 C 35.1992,137.34 36.8659,137.506 38.5,138C 39.5171,139.049 39.6838,140.216 39,141.5C 34.0848,143.679 32.2515,142.346 33.5,137.5 Z"/></g>
<g><path style="opacity:1" fill="#1f2348" d="M 194.5,141.5 C 192.735,142.461 190.735,142.795 188.5,142.5C 189.988,140.155 191.988,139.821 194.5,141.5 Z"/></g>
<g><path style="opacity:1" fill="#9595a8" d="M 187.5,137.5 C 189.679,138.059 191.846,138.726 194,139.5C 195.718,140.031 195.885,140.698 194.5,141.5C 191.988,139.821 189.988,140.155 188.5,142.5C 187.549,141.081 187.216,139.415 187.5,137.5 Z"/></g>
<g><path style="opacity:1" fill="#f59083" d="M 66.5,137.5 C 66.1583,138.338 65.4916,138.672 64.5,138.5C 57.5,138.5 50.5,138.5 43.5,138.5C 43.5,139.5 43.5,140.5 43.5,141.5C 49.8333,141.5 56.1667,141.5 62.5,141.5C 63.8333,141.5 65.1667,141.5 66.5,141.5C 66.5,141.833 66.5,142.167 66.5,142.5C 64.8333,142.5 63.1667,142.5 61.5,142.5C 55.1667,142.5 48.8333,142.5 42.5,142.5C 42.5,140.833 42.5,139.167 42.5,137.5C 50.5,137.5 58.5,137.5 66.5,137.5 Z"/></g>
<g><path style="opacity:1" fill="#6e657f" d="M 81.5,137.5 C 82.1667,137.5 82.8333,137.5 83.5,137.5C 82.6275,141.121 81.9608,144.788 81.5,148.5C 80.5386,146.735 80.2053,144.735 80.5,142.5C 80.5,142.167 80.5,141.833 80.5,141.5C 81.4345,140.432 81.7678,139.099 81.5,137.5 Z"/></g>
<g><path style="opacity:1" fill="#fadfdc" d="M 61.5,142.5 C 63.1667,142.5 64.8333,142.5 66.5,142.5C 66.5,143.5 66.5,144.5 66.5,145.5C 65.1667,145.5 63.8333,145.5 62.5,145.5C 62.5,146.5 62.5,147.5 62.5,148.5C 61.7784,148.082 61.2784,147.416 61,146.5C 60.7216,147.416 60.2216,148.082 59.5,148.5C 59.5,147.5 59.5,146.5 59.5,145.5C 56.1667,145.5 52.8333,145.5 49.5,145.5C 53.6015,144.932 57.6015,143.932 61.5,142.5 Z"/></g>
<g><path style="opacity:1" fill="#ededef" d="M 110.5,154.5 C 107.324,157.574 103.658,158.241 99.5,156.5C 94.8302,146.656 97.8302,142.489 108.5,144C 111.485,147.079 112.152,150.579 110.5,154.5 Z"/></g>
<g><path style="opacity:1" fill="#eeeff0" d="M 186.5,152.5 C 185.5,153.833 184.5,155.167 183.5,156.5C 180.728,157.767 178.061,157.767 175.5,156.5C 171.547,152.331 171.547,148.165 175.5,144C 183.07,142.096 186.737,144.929 186.5,152.5 Z"/></g>
<g><path style="opacity:1" fill="#834c56" d="M 66.5,141.5 C 71.1667,141.5 75.8333,141.5 80.5,141.5C 80.5,141.833 80.5,142.167 80.5,142.5C 76.1161,142.174 71.7828,142.508 67.5,143.5C 71.6475,144.167 75.6475,144.834 79.5,145.5C 75.1667,145.5 70.8333,145.5 66.5,145.5C 66.5,144.5 66.5,143.5 66.5,142.5C 66.5,142.167 66.5,141.833 66.5,141.5 Z"/></g>
<g><path style="opacity:1" fill="#e57063" d="M 66.5,145.5 C 70.8333,145.5 75.1667,145.5 79.5,145.5C 79.5,146.833 79.5,148.167 79.5,149.5C 75.8333,149.5 72.1667,149.5 68.5,149.5C 66.2646,149.795 64.2646,149.461 62.5,148.5C 62.5,147.5 62.5,146.5 62.5,145.5C 63.8333,145.5 65.1667,145.5 66.5,145.5 Z"/></g>
<g><path style="opacity:1" fill="#f47d6c" d="M 49.5,145.5 C 52.8333,145.5 56.1667,145.5 59.5,145.5C 59.5,146.5 59.5,147.5 59.5,148.5C 56.0381,149.482 52.3714,149.815 48.5,149.5C 48.2322,147.901 48.5655,146.568 49.5,145.5 Z"/></g>
<g><path style="opacity:1" fill="#9495a5" d="M 95.5,146.5 C 95.5,148.5 95.5,150.5 95.5,152.5C 94.1667,152.5 92.8333,152.5 91.5,152.5C 91.5,152.167 91.5,151.833 91.5,151.5C 92.5,151.5 93.5,151.5 94.5,151.5C 94.2155,149.585 94.5489,147.919 95.5,146.5 Z"/></g>
<g><path style="opacity:1" fill="#342c4b" d="M 80.5,142.5 C 80.2053,144.735 80.5386,146.735 81.5,148.5C 84.2509,150.975 87.5842,151.975 91.5,151.5C 91.5,151.833 91.5,152.167 91.5,152.5C 90.5,152.5 89.5,152.5 88.5,152.5C 81.8333,152.5 75.1667,152.5 68.5,152.5C 68.5,151.5 68.5,150.5 68.5,149.5C 72.1667,149.5 75.8333,149.5 79.5,149.5C 79.5,148.167 79.5,146.833 79.5,145.5C 75.6475,144.834 71.6475,144.167 67.5,143.5C 71.7828,142.508 76.1161,142.174 80.5,142.5 Z"/></g>
<g><path style="opacity:1" fill="#bb736d" d="M 68.5,153.5 C 68.5,153.167 68.5,152.833 68.5,152.5C 75.1667,152.5 81.8333,152.5 88.5,152.5C 91.0232,153.384 93.6898,154.218 96.5,155C 97.2524,155.671 97.5858,156.504 97.5,157.5C 88.5,157.5 79.5,157.5 70.5,157.5C 73.6414,156.679 76.9748,156.179 80.5,156C 77.176,153.872 73.5094,153.039 69.5,153.5C 69.1667,153.5 68.8333,153.5 68.5,153.5 Z"/></g>
<g><path style="opacity:1" fill="#4f516f" d="M 113.5,147.5 C 113.5,149.5 113.5,151.5 113.5,153.5C 132.5,153.5 151.5,153.5 170.5,153.5C 170.5,151.167 170.5,148.833 170.5,146.5C 171.625,144.871 172.959,143.371 174.5,142C 183.889,139.508 188.556,143.008 188.5,152.5C 190.167,152.5 191.833,152.5 193.5,152.5C 193.5,152.833 193.5,153.167 193.5,153.5C 191.05,153.702 188.717,153.369 186.5,152.5C 186.737,144.929 183.07,142.096 175.5,144C 171.547,148.165 171.547,152.331 175.5,156.5C 174.244,156.539 173.244,156.039 172.5,155C 151.836,154.5 131.169,154.333 110.5,154.5C 112.152,150.579 111.485,147.079 108.5,144C 97.8302,142.489 94.8302,146.656 99.5,156.5C 98.8333,156.833 98.1667,157.167 97.5,157.5C 97.5858,156.504 97.2524,155.671 96.5,155C 93.6898,154.218 91.0232,153.384 88.5,152.5C 89.5,152.5 90.5,152.5 91.5,152.5C 92.8333,152.5 94.1667,152.5 95.5,152.5C 95.5,150.5 95.5,148.5 95.5,146.5C 96.6253,144.871 97.9586,143.371 99.5,142C 105.753,140.307 110.42,142.14 113.5,147.5 Z"/></g>
<g><path style="opacity:1" fill="#d0d2d9" d="M 170.5,146.5 C 170.5,148.833 170.5,151.167 170.5,153.5C 151.5,153.5 132.5,153.5 113.5,153.5C 113.5,151.5 113.5,149.5 113.5,147.5C 114.451,148.919 114.784,150.585 114.5,152.5C 132.833,152.5 151.167,152.5 169.5,152.5C 169.205,150.265 169.539,148.265 170.5,146.5 Z"/></g>
<g><path style="opacity:1" fill="#151a45" d="M 110.5,154.5 C 131.169,154.333 151.836,154.5 172.5,155C 173.244,156.039 174.244,156.539 175.5,156.5C 178.061,157.767 180.728,157.767 183.5,156.5C 188.882,158.218 194.548,159.051 200.5,159C 201.406,160.699 201.739,162.533 201.5,164.5C 199.992,166.181 198.992,168.181 198.5,170.5C 197.094,170.973 196.427,171.973 196.5,173.5C 194.167,176.167 191.833,178.833 189.5,181.5C 187.833,180.5 186.5,179.167 185.5,177.5C 188.511,174.362 188.011,173.362 184,174.5C 182.037,173.375 180.204,172.041 178.5,170.5C 177.893,170.624 177.56,170.957 177.5,171.5C 176.5,173.167 175.167,174.5 173.5,175.5C 172.805,177.873 172.472,180.206 172.5,182.5C 171.288,181.77 170.288,180.77 169.5,179.5C 169.003,181.216 168.669,182.883 168.5,184.5C 167.167,183.833 165.833,183.167 164.5,182.5C 163.893,182.624 163.56,182.957 163.5,183.5C 162.292,184.234 160.959,184.567 159.5,184.5C 159.5,183.5 159.5,182.5 159.5,181.5C 167.327,176.992 173.827,170.992 179,163.5C 179.688,162.668 179.521,162.002 178.5,161.5C 174.015,166.485 169.349,171.319 164.5,176C 146.163,187.245 127.83,187.245 109.5,176C 107.627,174.296 105.96,172.463 104.5,170.5C 107.311,167.738 106.645,165.904 102.5,165C 104.01,164.15 105.51,163.317 107,162.5C 109.366,163.938 109.866,163.438 108.5,161C 109.448,160.517 110.448,160.351 111.5,160.5C 111.167,158.5 110.833,156.5 110.5,154.5 Z"/></g>
<g><path style="opacity:1" fill="#23b3a8" d="M 199.5,151.5 C 199.5,152.833 199.5,154.167 199.5,155.5C 201.292,155.366 202.958,155.699 204.5,156.5C 204.5,157.167 204.167,157.5 203.5,157.5C 197.463,157.829 191.463,157.496 185.5,156.5C 185.709,155.914 186.043,155.414 186.5,155C 189.036,154.814 191.369,154.314 193.5,153.5C 195.886,153.741 197.886,153.075 199.5,151.5 Z"/></g>
<g><path style="opacity:1" fill="#ec877a" d="M 68.5,152.5 C 68.5,152.833 68.5,153.167 68.5,153.5C 64.1539,153.334 59.8206,153.501 55.5,154C 55.0426,154.414 54.7093,154.914 54.5,155.5C 59.1313,156.662 63.798,156.828 68.5,156C 69.2524,155.329 69.5858,154.496 69.5,153.5C 73.5094,153.039 77.176,153.872 80.5,156C 76.9748,156.179 73.6414,156.679 70.5,157.5C 64.5746,157.808 58.7412,157.475 53,156.5C 52.3162,155.216 52.4829,154.049 53.5,153C 58.4889,152.501 63.4889,152.334 68.5,152.5 Z"/></g>
<g><path style="opacity:1" fill="#ef6c5b" d="M 68.5,153.5 C 68.8333,153.5 69.1667,153.5 69.5,153.5C 69.5858,154.496 69.2524,155.329 68.5,156C 63.798,156.828 59.1313,156.662 54.5,155.5C 54.7093,154.914 55.0426,154.414 55.5,154C 59.8206,153.501 64.1539,153.334 68.5,153.5 Z"/></g>
<g><path style="opacity:1" fill="#2a3556" d="M 186.5,152.5 C 188.717,153.369 191.05,153.702 193.5,153.5C 191.369,154.314 189.036,154.814 186.5,155C 186.043,155.414 185.709,155.914 185.5,156.5C 191.463,157.496 197.463,157.829 203.5,157.5C 203.59,160.152 202.924,162.485 201.5,164.5C 201.739,162.533 201.406,160.699 200.5,159C 194.548,159.051 188.882,158.218 183.5,156.5C 184.5,155.167 185.5,153.833 186.5,152.5 Z"/></g>
<g><path style="opacity:1" fill="#93939f" d="M 185.5,177.5 C 181.935,176.59 179.268,174.59 177.5,171.5C 177.56,170.957 177.893,170.624 178.5,170.5C 180.204,172.041 182.037,173.375 184,174.5C 188.011,173.362 188.511,174.362 185.5,177.5 Z"/></g>
<g><path style="opacity:1" fill="#86879b" d="M 198.5,170.5 C 198.573,172.027 197.906,173.027 196.5,173.5C 196.427,171.973 197.094,170.973 198.5,170.5 Z"/></g>
<g><path style="opacity:1" fill="#9395a2" d="M 104.5,170.5 C 105.96,172.463 107.627,174.296 109.5,176C 127.83,187.245 146.163,187.245 164.5,176C 169.349,171.319 174.015,166.485 178.5,161.5C 179.521,162.002 179.688,162.668 179,163.5C 173.827,170.992 167.327,176.992 159.5,181.5C 132.497,192.441 110.831,185.941 94.5,162C 94.8499,160.743 95.5165,160.409 96.5,161C 98.3532,164.887 101.02,168.053 104.5,170.5 Z"/></g>
<g><path style="opacity:1" fill="#202149" d="M 110.5,154.5 C 110.833,156.5 111.167,158.5 111.5,160.5C 110.448,160.351 109.448,160.517 108.5,161C 109.866,163.438 109.366,163.938 107,162.5C 105.51,163.317 104.01,164.15 102.5,165C 106.645,165.904 107.311,167.738 104.5,170.5C 101.02,168.053 98.3532,164.887 96.5,161C 95.5165,160.409 94.8499,160.743 94.5,162C 110.831,185.941 132.497,192.441 159.5,181.5C 159.5,182.5 159.5,183.5 159.5,184.5C 160.959,184.567 162.292,184.234 163.5,183.5C 164.433,186.37 166.1,188.704 168.5,190.5C 168.833,189.167 169.167,187.833 169.5,186.5C 170.736,187.246 172.07,187.579 173.5,187.5C 173.371,185.784 173.038,184.117 172.5,182.5C 172.472,180.206 172.805,177.873 173.5,175.5C 175.167,174.5 176.5,173.167 177.5,171.5C 179.268,174.59 181.935,176.59 185.5,177.5C 186.5,179.167 187.833,180.5 189.5,181.5C 186.527,185.194 183.194,188.694 179.5,192C 175.139,194.512 170.806,197.012 166.5,199.5C 164.033,199.755 162.033,200.755 160.5,202.5C 156.626,203.761 152.626,204.428 148.5,204.5C 138.82,204.482 129.153,204.148 119.5,203.5C 117.485,202.076 115.152,201.41 112.5,201.5C 92.0368,193.036 78.0368,178.369 70.5,157.5C 79.5,157.5 88.5,157.5 97.5,157.5C 98.1667,157.167 98.8333,156.833 99.5,156.5C 103.658,158.241 107.324,157.574 110.5,154.5 Z"/></g>
<g><path style="opacity:1" fill="#a3a4ae" d="M 147.5,191.5 C 146.833,200.833 146.167,200.833 145.5,191.5C 144.209,191.737 143.209,191.404 142.5,190.5C 144.455,189.677 146.455,189.51 148.5,190C 147.944,190.383 147.611,190.883 147.5,191.5 Z"/></g>
<g><path style="opacity:1" fill="#60627a" d="M 122.5,189.5 C 123.167,190.167 123.833,190.833 124.5,191.5C 124.025,194.082 124.692,196.082 126.5,197.5C 125.791,198.404 124.791,198.737 123.5,198.5C 123.795,196.265 123.461,194.265 122.5,192.5C 122.5,191.5 122.5,190.5 122.5,189.5 Z"/></g>
<g><path style="opacity:1" fill="#a4a4ad" d="M 141.5,196.5 C 141.631,197.239 141.464,197.906 141,198.5C 139.384,197.199 137.884,197.199 136.5,198.5C 136.44,199.043 136.107,199.376 135.5,199.5C 135.167,198.667 134.833,197.833 134.5,197C 135.418,194.914 136.085,192.747 136.5,190.5C 139.887,190.862 141.553,192.862 141.5,196.5 Z"/></g>
<g><path style="opacity:1" fill="#aeafb6" d="M 153.5,192.5 C 153.5,192.833 153.5,193.167 153.5,193.5C 153.633,196.925 152.967,197.258 151.5,194.5C 151.5,194.167 151.5,193.833 151.5,193.5C 151.343,192.127 151.51,190.793 152,189.5C 152.232,190.737 152.732,191.737 153.5,192.5 Z"/></g>
<g><path style="opacity:1" fill="#a3a3ad" d="M 126.5,197.5 C 124.692,196.082 124.025,194.082 124.5,191.5C 124.47,190.503 124.97,189.836 126,189.5C 127.584,189.988 128.751,190.988 129.5,192.5C 130.167,191.833 130.833,191.167 131.5,190.5C 132.48,193.086 132.813,195.753 132.5,198.5C 129.708,198.548 127.875,197.215 127,194.5C 126.517,195.448 126.351,196.448 126.5,197.5 Z"/></g>
<g><path style="opacity:1" fill="#606077" d="M 153.5,192.5 C 152.732,191.737 152.232,190.737 152,189.5C 151.51,190.793 151.343,192.127 151.5,193.5C 150.732,192.737 150.232,191.737 150,190.5C 149.329,191.252 148.496,191.586 147.5,191.5C 147.611,190.883 147.944,190.383 148.5,190C 146.455,189.51 144.455,189.677 142.5,190.5C 142.611,189.883 142.944,189.383 143.5,189C 146.817,188.502 150.15,188.335 153.5,188.5C 153.5,189.833 153.5,191.167 153.5,192.5 Z"/></g>
<g><path style="opacity:1" fill="#aaaab2" d="M 121.5,187.5 C 121.833,188.167 122.167,188.833 122.5,189.5C 122.5,190.5 122.5,191.5 122.5,192.5C 121.15,193.483 120.15,194.816 119.5,196.5C 118.893,196.376 118.56,196.043 118.5,195.5C 118.294,193.451 117.461,193.117 116,194.5C 114.508,189.47 116.341,187.136 121.5,187.5 Z"/></g>
<g><path style="opacity:1" fill="#454560" d="M 118.5,189.5 C 120.337,189.639 120.67,190.306 119.5,191.5C 118.702,191.043 118.369,190.376 118.5,189.5 Z"/></g>
<g><path style="opacity:1" fill="#aaa9b1" d="M 115.5,185.5 C 114.282,186.161 112.949,186.828 111.5,187.5C 111.709,188.086 112.043,188.586 112.5,189C 111.376,189.249 110.376,189.749 109.5,190.5C 109.957,191.298 110.624,191.631 111.5,191.5C 112.125,193.77 111.125,194.104 108.5,192.5C 107.235,186.431 109.568,184.098 115.5,185.5 Z"/></g>
<g><path style="opacity:1" fill="#9d9daa" d="M 157.5,185.5 C 163.803,185.924 165.469,188.757 162.5,194C 154.184,194.838 152.517,192.004 157.5,185.5 Z"/></g>
<g><path style="opacity:1" fill="#2b2c50" d="M 158.5,187.5 C 159.5,187.5 160.5,187.5 161.5,187.5C 161.5,189.167 161.5,190.833 161.5,192.5C 160.167,192.5 158.833,192.5 157.5,192.5C 157.366,190.708 157.699,189.042 158.5,187.5 Z"/></g>
<g><path style="opacity:1" fill="#434261" d="M 115.5,185.5 C 117.626,186.048 119.626,186.715 121.5,187.5C 116.341,187.136 114.508,189.47 116,194.5C 117.461,193.117 118.294,193.451 118.5,195.5C 117.167,195.5 115.833,195.5 114.5,195.5C 114.5,193.833 114.5,192.167 114.5,190.5C 113.209,190.263 112.209,190.596 111.5,191.5C 110.624,191.631 109.957,191.298 109.5,190.5C 110.376,189.749 111.376,189.249 112.5,189C 112.043,188.586 111.709,188.086 111.5,187.5C 112.949,186.828 114.282,186.161 115.5,185.5 Z"/></g>
<g><path style="opacity:1" fill="#aeaeb6" d="M 172.5,182.5 C 173.038,184.117 173.371,185.784 173.5,187.5C 172.07,187.579 170.736,187.246 169.5,186.5C 169.167,187.833 168.833,189.167 168.5,190.5C 166.1,188.704 164.433,186.37 163.5,183.5C 163.56,182.957 163.893,182.624 164.5,182.5C 165.833,183.167 167.167,183.833 168.5,184.5C 168.669,182.883 169.003,181.216 169.5,179.5C 170.288,180.77 171.288,181.77 172.5,182.5 Z"/></g>
<g><path style="opacity:1" fill="#a9a9b0" d="M 103.5,179.5 C 109.396,180.843 110.063,182.509 105.5,184.5C 104.5,185.833 103.5,187.167 102.5,188.5C 101.668,186.064 102.335,183.897 104.5,182C 103.748,181.329 103.414,180.496 103.5,179.5 Z"/></g>
<g><path style="opacity:1" fill="#a5a4ab" d="M 173.5,175.5 C 176.757,176.462 179.757,177.962 182.5,180C 178.749,179.917 176.749,181.751 176.5,185.5C 174.691,182.407 173.691,179.074 173.5,175.5 Z"/></g>
<g><path style="opacity:1" fill="#a0a1ab" d="M 96.5,173.5 C 98.1644,174.949 98.9977,176.949 99,179.5C 99.9653,177.74 101.132,177.406 102.5,178.5C 100.833,180.833 98.8333,182.833 96.5,184.5C 95.6922,182.577 95.1922,180.577 95,178.5C 94.0347,180.26 92.868,180.594 91.5,179.5C 93.1897,177.481 94.8564,175.481 96.5,173.5 Z"/></g>
<g><path style="opacity:1" fill="#abacb6" d="M 93.5,169.5 C 95.2252,169.843 95.7252,170.843 95,172.5C 93.2552,173.956 91.4219,175.289 89.5,176.5C 88.479,175.998 88.3123,175.332 89,174.5C 90.7073,172.963 92.2073,171.296 93.5,169.5 Z"/></g>
<g><path style="opacity:1" fill="#707288" d="M 153.5,193.5 C 154.434,194.568 154.768,195.901 154.5,197.5C 153.5,197.5 152.5,197.5 151.5,197.5C 151.5,196.5 151.5,195.5 151.5,194.5C 152.967,197.258 153.633,196.925 153.5,193.5 Z"/></g>
<g><path style="opacity:1" fill="#6a6d84" d="M 141.5,196.5 C 142.404,197.209 142.737,198.209 142.5,199.5C 140.5,199.167 138.5,198.833 136.5,198.5C 137.884,197.199 139.384,197.199 141,198.5C 141.464,197.906 141.631,197.239 141.5,196.5 Z"/></g>
<g><path style="opacity:1" fill="#b6b7c1" d="M 166.5,199.5 C 164.967,201.245 162.967,202.245 160.5,202.5C 162.033,200.755 164.033,199.755 166.5,199.5 Z"/></g>
<g><path style="opacity:1" fill="#666982" d="M 112.5,201.5 C 115.152,201.41 117.485,202.076 119.5,203.5C 116.848,203.59 114.515,202.924 112.5,201.5 Z"/></g>
<g><path style="opacity:1" fill="#404363" d="M 119.5,203.5 C 129.153,204.148 138.82,204.482 148.5,204.5C 144.681,205.166 140.681,205.499 136.5,205.5C 130.583,205.695 124.916,205.029 119.5,203.5 Z"/></g>
</svg>
